<svg width="85" height="94" viewBox="0 0 85 94" fill="none" xmlns="http://www.w3.org/2000/svg">
<circle cx="42.6644" cy="42.6976" r="40.4494" fill="#005BFF" stroke="white" stroke-width="3.37079"/>
<g clip-path="url(#clip0_2334_12568)">
<path fill-rule="evenodd" clip-rule="evenodd" d="M30.4714 48.4305C30.9174 47.992 31.6105 47.9213 32.1495 48.2593C32.4562 48.4516 32.9041 48.7324 33.2159 48.9281C33.7747 49.2785 34.0147 49.9716 33.7891 50.5824L33.7887 50.5836C33.6473 50.9653 33.3418 51.2609 32.9555 51.3888C32.5693 51.5169 32.1429 51.464 31.7935 51.2448C31.4694 51.0415 31.0555 50.782 30.7267 50.5758C30.3679 50.3508 30.1292 49.9749 30.079 49.5565C30.0291 49.138 30.1732 48.7232 30.4705 48.4314L30.4714 48.4305V48.4305ZM31.0768 49.0481C31.2436 48.8839 31.5029 48.8576 31.7044 48.9841C32.0112 49.1764 32.4591 49.4572 32.7708 49.6529C32.9799 49.7838 33.0696 50.0432 32.9853 50.2715C32.985 50.2718 32.985 50.2723 32.9847 50.2729C32.9319 50.4156 32.8175 50.5261 32.6732 50.5741C32.5287 50.6218 32.3692 50.6021 32.2385 50.5201C31.9143 50.3169 31.5004 50.0573 31.1718 49.851C31.0374 49.7669 30.9482 49.6263 30.9295 49.47C30.9106 49.3133 30.9647 49.1582 31.076 49.0492C31.0763 49.0486 31.0765 49.0484 31.0768 49.0481Z" fill="url(#paint0_linear_2334_12568)"/>
<path fill-rule="evenodd" clip-rule="evenodd" d="M46.2728 52.6111C46.8688 52.3363 47.5844 52.4633 48.0054 52.9186C48.2451 53.1777 48.5949 53.5561 48.8384 53.8196C49.2748 54.2917 49.2753 54.9868 48.8397 55.4787L48.8388 55.4797C48.5662 55.787 48.1596 55.9709 47.7302 55.9804C47.3009 55.9901 46.8939 55.8245 46.621 55.5292C46.3678 55.2554 46.0445 54.9057 45.7877 54.628C45.5074 54.3248 45.399 53.9179 45.4932 53.5244C45.5877 53.131 45.8745 52.7944 46.2715 52.6116L46.2728 52.6111V52.6111ZM46.6636 53.3385C46.8866 53.2355 47.1542 53.2831 47.3116 53.4535C47.5513 53.7126 47.9011 54.091 48.1446 54.3545C48.308 54.531 48.308 54.791 48.1452 54.9749C48.1448 54.9751 48.1446 54.9756 48.1441 54.976C48.0422 55.0909 47.89 55.1597 47.7296 55.1633C47.5691 55.1668 47.4167 55.1049 47.3146 54.9945C47.0614 54.7206 46.7381 54.371 46.4815 54.0931C46.3765 53.9797 46.336 53.8276 46.3713 53.6806C46.4064 53.5332 46.5138 53.4074 46.6624 53.3392C46.6629 53.3388 46.6633 53.3386 46.6636 53.3385Z" fill="url(#paint1_linear_2334_12568)"/>
<path fill-rule="evenodd" clip-rule="evenodd" d="M50.8295 49.9248C51.0803 50.5044 50.8954 51.1628 50.3817 51.5188C50.0894 51.7215 49.6626 52.0173 49.3653 52.2232C48.8328 52.5923 48.0932 52.5355 47.6002 52.0879L47.5993 52.0871C47.2913 51.807 47.124 51.4118 47.1437 51.0098C47.1632 50.6078 47.3678 50.241 47.7008 50.0102C48.0098 49.7961 48.4042 49.5227 48.7176 49.3055C49.0596 49.0684 49.4999 49.0005 49.912 49.121C50.324 49.2417 50.6622 49.5374 50.8289 49.9235L50.8295 49.9248V49.9248ZM50.0285 50.2302C50.1225 50.447 50.0532 50.6933 49.861 50.8264C49.5687 51.029 49.1419 51.3249 48.8446 51.5308C48.6455 51.669 48.3688 51.6476 48.1845 51.4803C48.1843 51.4799 48.1838 51.4797 48.1834 51.4792C48.0683 51.3745 48.0057 51.2267 48.013 51.0764C48.0204 50.9261 48.0969 50.7888 48.2215 50.7025C48.5304 50.4883 48.9249 50.2149 49.2383 49.9979C49.3663 49.9091 49.5309 49.8837 49.6849 49.9288C49.8392 49.9738 49.9655 50.0845 50.0278 50.229C50.0282 50.2295 50.0283 50.2298 50.0285 50.2302Z" fill="url(#paint2_linear_2334_12568)"/>
<path fill-rule="evenodd" clip-rule="evenodd" d="M40.6732 41.7646C40.9241 42.3442 40.7392 43.0026 40.2255 43.3586C39.9332 43.5613 39.5063 43.8572 39.2091 44.0631C38.6765 44.4322 37.937 44.3754 37.444 43.9278L37.443 43.9269C37.135 43.6468 36.9677 43.2517 36.9874 42.8496C37.007 42.4476 37.2115 42.0808 37.5446 41.8501C37.8535 41.6359 38.248 41.3625 38.5613 41.1453C38.9033 40.9083 39.3437 40.8404 39.7558 40.9608C40.1678 41.0815 40.5059 41.3772 40.6727 41.7634L40.6732 41.7646V41.7646ZM39.8722 42.0701C39.9662 42.2869 39.897 42.5331 39.7048 42.6662C39.4125 42.8689 38.9856 43.1647 38.6883 43.3706C38.4892 43.5088 38.2126 43.4875 38.0282 43.3201C38.0281 43.3198 38.0276 43.3196 38.0272 43.3191C37.912 43.2144 37.8495 43.0665 37.8567 42.9162C37.8642 42.7659 37.9406 42.6286 38.0652 42.5423C38.3742 42.3281 38.7686 42.0547 39.082 41.8377C39.21 41.749 39.3747 41.7236 39.5286 41.7687C39.6829 41.8136 39.8093 41.9243 39.8715 42.0689C39.8719 42.0693 39.8721 42.0697 39.8722 42.0701Z" fill="url(#paint3_linear_2334_12568)"/>
<path fill-rule="evenodd" clip-rule="evenodd" d="M7.94129 39.5485C7.78578 40.2201 11.6425 41.1946 13.7504 45.6359C16.0307 50.4403 19.2 56.7908 21.307 59.2664C26.7331 65.6424 32.8238 65.1746 33.1932 64.3514C34.4441 61.5651 27.6721 55.4995 25.2292 50.4795C22.8993 45.6914 22.4949 39.0207 21.9318 41.8465C21.6038 40.2125 20.9234 37.5512 20.6969 37.4424C20.4414 37.3203 19.7041 33.0063 17.4652 34.7238C16.8938 35.1624 18.0234 36.9022 18.0248 37.7095C16.6307 34.4899 12.8851 30.8726 12.4444 31.8378C12.1137 32.5626 15.1137 35.1418 15.6052 39.693C13.7889 36.8902 9.79591 34.4029 9.68144 35.4582C9.59145 36.2893 13.5429 39.4198 13.7027 41.6608C12.4007 40.0999 8.21336 38.3725 7.94129 39.5485Z" fill="url(#paint4_linear_2334_12568)"/>
<path fill-rule="evenodd" clip-rule="evenodd" d="M53.9266 40.1242C54.3137 40.6496 54.2995 41.3338 53.892 41.7807C53.6602 42.0351 53.3217 42.4065 53.0859 42.6649C52.6635 43.1283 51.9348 43.2098 51.3467 42.8598L51.3455 42.8591C50.978 42.6399 50.7177 42.2811 50.6364 41.8806C50.5549 41.4802 50.6609 41.0802 50.9251 40.7905C51.1701 40.5217 51.4829 40.1785 51.7315 39.9059C52.0027 39.6083 52.4112 39.4594 52.8395 39.5016C53.2677 39.5441 53.6683 39.7731 53.9258 40.1231L53.9266 40.1242V40.1242ZM53.229 40.5747C53.3739 40.7712 53.3685 41.0271 53.216 41.1942C52.9842 41.4486 52.6457 41.82 52.4099 42.0784C52.252 42.2519 51.9793 42.2823 51.7595 42.1514C51.7592 42.1511 51.7587 42.1509 51.7582 42.1505C51.6208 42.0686 51.5234 41.9343 51.4929 41.7847C51.4626 41.6349 51.5022 41.4852 51.601 41.3768C51.846 41.108 52.1588 40.7648 52.4075 40.4924C52.509 40.381 52.6617 40.3253 52.8217 40.3411C52.982 40.3568 53.1318 40.4426 53.228 40.5736C53.2285 40.574 53.2287 40.5743 53.229 40.5747Z" fill="url(#paint5_linear_2334_12568)"/>
<path fill-rule="evenodd" clip-rule="evenodd" d="M21.1718 73.9191C20.9209 73.1087 20.8638 72.0682 21.038 70.7632C21.8829 64.4342 24.803 57.7619 29.7387 51.8635C38.1028 41.8678 45.136 39.828 42.974 32.9781C44.5611 32.3419 51.8928 24.3403 53.3586 25.3449C58.4118 43.0224 42.7975 53.5028 49.0178 61.7196C49.8615 62.407 53.0326 65.7908 56.086 69.2393C59.5417 73.1422 62.8466 77.128 62.4558 77.3817C55.6818 81.7801 23.1562 83.8634 21.1718 73.9191L21.1718 73.9191Z" fill="url(#paint6_linear_2334_12568)"/>
<path fill-rule="evenodd" clip-rule="evenodd" d="M22.9271 41.5221C24.8655 43.6841 23.4882 44.7828 24.1001 47.1011C25.2689 51.5297 19.563 51.2987 19.8302 44.633C19.9523 41.5834 19.8441 38.8551 21.596 37.992C25.9116 35.8652 21.195 39.5902 22.9271 41.5221V41.5221Z" fill="url(#paint7_linear_2334_12568)"/>
<path fill-rule="evenodd" clip-rule="evenodd" d="M24.0097 38.9028C24.0016 38.982 24.0012 39.0634 24.0089 39.1463C24.0416 39.4964 24.0894 40.0074 24.1228 40.3632C24.1684 40.8513 24.4875 41.2868 24.9354 41.5193C24.8383 41.7079 24.7899 41.9184 24.8018 42.1356C24.8206 42.476 24.8478 42.9732 24.8668 43.3195C24.8905 43.7532 25.1502 44.1306 25.5373 44.3458C25.2724 44.858 25.3058 45.4734 25.6395 45.8998C25.8532 46.1731 26.1652 46.5719 26.3824 46.8495C26.6185 47.1513 26.9654 47.3084 27.3287 47.3067C27.3286 47.3094 27.3285 47.312 27.3284 47.3147C27.3132 47.729 27.4787 48.1557 27.7792 48.477C28.0577 48.7751 28.4137 49.1557 28.6963 49.4581C29.0048 49.7881 29.4219 49.9716 29.8281 49.9556C30.2339 49.9395 30.5838 49.7261 30.7766 49.3761L30.7774 49.3751C31.0671 48.8499 30.9451 48.1315 30.4817 47.6358C30.218 47.3537 29.8329 46.9419 29.5648 46.6551C29.3217 46.395 29.0184 46.2322 28.7119 46.1774C28.7199 46.1479 28.7271 46.1181 28.7335 46.0881C28.8217 45.6697 28.7316 45.2466 28.488 44.9355C28.2623 44.6468 27.9739 44.2782 27.7448 43.9853C27.6968 43.9239 27.6438 43.8681 27.5865 43.8183C27.7035 43.6142 27.7607 43.3842 27.748 43.1509C27.7281 42.7911 27.7029 42.3316 27.6829 41.9667C27.6611 41.5683 27.4376 41.2038 27.0764 40.978C27.0121 40.9379 26.9447 40.9029 26.8749 40.8731C26.93 40.7127 26.9511 40.539 26.9345 40.3612C26.9 39.9914 26.8558 39.5191 26.8207 39.1439C26.7826 38.7344 26.5483 38.348 26.1854 38.0952C25.9442 37.9272 25.6638 37.8309 25.3825 37.8138C25.435 37.6329 25.449 37.4449 25.4207 37.2615C25.3611 36.8727 25.1179 36.5454 24.758 36.3694C24.4244 36.206 23.9982 35.9976 23.6598 35.832C23.2904 35.6512 22.8385 35.6498 22.4336 35.8277C22.029 36.0057 21.7163 36.3437 21.5859 36.7443L21.5854 36.7455C21.3894 37.3473 21.6417 37.9616 22.1964 38.233C22.5122 38.3876 22.9732 38.6131 23.2943 38.7701C23.5166 38.8789 23.7639 38.9212 24.0097 38.9028V38.9028ZM30.0337 48.8564C30.1421 48.6599 30.0964 48.3912 29.9232 48.2059C29.6593 47.9237 29.2744 47.5117 29.0063 47.2251C28.8267 47.0328 28.5591 46.9827 28.3679 47.1054C28.3676 47.1057 28.3671 47.1059 28.3667 47.1061C28.2473 47.1829 28.1747 47.3173 28.1691 47.4723C28.1634 47.6272 28.2253 47.7869 28.3377 47.9069C28.6164 48.205 28.9722 48.5858 29.2548 48.8881C29.3704 49.0117 29.5264 49.0802 29.6782 49.0742C29.8301 49.0683 29.9609 48.9883 30.033 48.8575C30.0333 48.857 30.0334 48.8566 30.0337 48.8564ZM26.8573 44.4299C26.7163 44.4843 26.5665 44.5185 26.4135 44.5307C26.3724 44.564 26.3352 44.6036 26.3035 44.6486C26.303 44.6489 26.3028 44.6495 26.3024 44.6498C26.1594 44.8526 26.1576 45.1215 26.2981 45.3011C26.5119 45.5742 26.8239 45.973 27.041 46.2507C27.1867 46.4367 27.445 46.4758 27.6578 46.3438C27.6582 46.3435 27.6586 46.3434 27.6591 46.3431C27.7921 46.2606 27.8882 46.1218 27.9211 45.9654C27.9542 45.8088 27.9204 45.6507 27.8294 45.5342C27.6036 45.2455 27.3153 44.8769 27.0862 44.5842C27.0266 44.5082 26.9468 44.4552 26.8573 44.4299V44.4299ZM26.2501 41.5644C26.1427 41.6157 26.0276 41.6524 25.9078 41.6739C25.7738 41.771 25.6943 41.922 25.7032 42.0828C25.7218 42.4233 25.749 42.9205 25.7682 43.2667C25.7796 43.4746 25.9359 43.6479 26.1518 43.7032C26.3227 43.6074 26.51 43.5481 26.7019 43.5323C26.7119 43.5315 26.7218 43.5308 26.7318 43.5302C26.8117 43.4375 26.8531 43.3217 26.8466 43.2036C26.8269 42.8438 26.8017 42.3843 26.7817 42.0193C26.7734 41.8703 26.6898 41.734 26.5549 41.6497C26.4646 41.5932 26.3582 41.5641 26.2501 41.5644ZM25.2443 38.6606C25.014 38.7153 24.8671 38.9157 24.8885 39.1457C24.9213 39.4956 24.969 40.0068 25.0024 40.3625C25.0245 40.601 25.2216 40.806 25.4725 40.8518C25.4729 40.8518 25.4735 40.8521 25.4739 40.852C25.6308 40.8807 25.7869 40.8422 25.8993 40.7473C26.0118 40.6526 26.0688 40.511 26.0548 40.3619C26.0204 39.9921 25.9761 39.5198 25.9411 39.1446C25.9269 38.9914 25.8393 38.8468 25.7036 38.7524C25.5678 38.6577 25.399 38.6239 25.2456 38.6604C25.2452 38.6605 25.2447 38.6607 25.2443 38.6606V38.6606ZM22.9703 36.5319C22.8942 36.5327 22.8167 36.5492 22.7435 36.5815C22.5918 36.648 22.475 36.7744 22.4263 36.9244C22.4261 36.9248 22.4261 36.9253 22.4258 36.9256C22.3524 37.1506 22.4469 37.3804 22.6543 37.482C22.97 37.6364 23.4312 37.8621 23.7522 38.0189C23.9672 38.1244 24.2449 38.0631 24.4148 37.8728C24.4148 37.8726 24.415 37.8725 24.4151 37.8724L24.4154 37.8721C24.4155 37.872 24.4156 37.8719 24.4157 37.8717C24.5219 37.7527 24.5705 37.5994 24.548 37.4541C24.5258 37.3088 24.4347 37.1862 24.3002 37.1205C23.9666 36.9571 23.5404 36.7487 23.202 36.5831C23.1318 36.5488 23.0537 36.5317 22.9739 36.5319L22.9703 36.5319V36.5319Z" fill="url(#paint8_linear_2334_12568)"/>
<path fill-rule="evenodd" clip-rule="evenodd" d="M21.7235 36.2468C21.226 35.8557 20.5624 35.8811 20.1166 36.3085C19.8628 36.5518 19.4923 36.907 19.2344 37.1544C18.772 37.5977 18.6705 38.3509 18.9916 38.9522L18.9923 38.9535C19.1933 39.3295 19.5332 39.5925 19.9189 39.6702C20.3044 39.748 20.6955 39.6323 20.9846 39.355C21.2528 39.0981 21.5952 38.7696 21.8672 38.5089C22.1641 38.2244 22.321 37.8005 22.2933 37.3591C22.2655 36.918 22.0558 36.5081 21.7245 36.2477L21.7235 36.2468V36.2468ZM21.2652 36.9738C21.0791 36.8275 20.8309 36.8371 20.6641 36.9969C20.4104 37.2402 20.0398 37.5955 19.7821 37.8428C19.6091 38.0084 19.571 38.2903 19.6912 38.5153C19.6915 38.5156 19.6916 38.5162 19.6919 38.5165C19.7671 38.6572 19.8943 38.7555 20.0385 38.7845C20.1826 38.8137 20.3289 38.7703 20.437 38.6666C20.7052 38.4097 21.0475 38.0813 21.3195 37.8205C21.4306 37.7141 21.4894 37.5555 21.4789 37.3906C21.4687 37.2253 21.3902 37.0721 21.2661 36.9747C21.2658 36.9744 21.2653 36.9742 21.2652 36.9738V36.9738Z" fill="url(#paint9_linear_2334_12568)"/>
<path fill-rule="evenodd" clip-rule="evenodd" d="M19.0489 34.4611C17.0094 33.4896 18.6685 37.6407 20.4202 37.1586C25.059 35.8821 21.3914 35.5769 19.0489 34.4611Z" fill="url(#paint10_linear_2334_12568)"/>
<path fill-rule="evenodd" clip-rule="evenodd" d="M18.7129 38.6113C18.0971 38.7577 17.7043 39.2931 17.7618 39.908C17.7944 40.2581 17.8422 40.7691 17.8756 41.1249C17.9351 41.7627 18.4618 42.3107 19.1324 42.4332L19.1338 42.4334C19.5532 42.5099 19.9706 42.4072 20.2713 42.1535C20.572 41.9 20.7247 41.5218 20.6873 41.1229C20.6529 40.7531 20.6086 40.2808 20.5736 39.9056C20.5354 39.4961 20.3011 39.1097 19.9382 38.8569C19.5755 38.6043 19.1241 38.5136 18.7142 38.6111L18.7129 38.6113V38.6113ZM18.9971 39.4224C18.7668 39.477 18.62 39.6774 18.6414 39.9074C18.6741 40.2573 18.7218 40.7685 18.7552 41.1242C18.7773 41.3627 18.9744 41.5677 19.2253 41.6136C19.2258 41.6135 19.2263 41.6138 19.2267 41.6138C19.3836 41.6424 19.5398 41.6039 19.6521 41.509C19.7646 41.4144 19.8216 41.2727 19.8077 41.1236C19.7732 40.7538 19.729 40.2815 19.6939 39.9063C19.6797 39.7531 19.5921 39.6085 19.4564 39.5142C19.3206 39.4194 19.1518 39.3856 18.9984 39.4222C18.998 39.4222 18.9975 39.4225 18.9971 39.4224V39.4224Z" fill="url(#paint11_linear_2334_12568)"/>
<path fill-rule="evenodd" clip-rule="evenodd" d="M19.3891 41.5847C18.7605 41.6585 18.3081 42.1447 18.2937 42.7621C18.2855 43.1136 18.2735 43.6267 18.2653 43.984C18.2504 44.6244 18.7098 45.2298 19.3616 45.4294L19.3629 45.4298C19.7707 45.5545 20.1971 45.5011 20.5253 45.284C20.8534 45.0672 21.049 44.7093 21.0582 44.3088C21.067 43.9375 21.0779 43.4632 21.0867 43.0865C21.0964 42.6753 20.9086 42.2643 20.5776 41.971C20.2466 41.678 19.8088 41.5355 19.3904 41.5846L19.3891 41.5847V41.5847ZM19.5771 42.4233C19.3421 42.4508 19.1729 42.6328 19.1674 42.8637C19.1592 43.2151 19.1472 43.7284 19.1391 44.0855C19.1333 44.3249 19.3052 44.5515 19.5491 44.6262C19.5496 44.6262 19.5501 44.6266 19.5505 44.6265C19.703 44.6732 19.8626 44.6532 19.9852 44.572C20.1079 44.491 20.181 44.357 20.1845 44.2073C20.1932 43.836 20.2042 43.3617 20.213 42.985C20.2166 42.8312 20.1464 42.6773 20.0226 42.5679C19.8987 42.4579 19.7351 42.4048 19.5784 42.4232C19.578 42.4233 19.5775 42.4235 19.5771 42.4233V42.4233Z" fill="url(#paint12_linear_2334_12568)"/>
<path fill-rule="evenodd" clip-rule="evenodd" d="M19.934 44.5183C19.3054 44.5921 18.853 45.0783 18.8386 45.6957C18.8304 46.0472 18.8185 46.5603 18.8103 46.9176C18.7953 47.558 19.2547 48.1634 19.9065 48.363L19.9079 48.3634C20.3156 48.4881 20.742 48.4347 21.0702 48.2176C21.3983 48.0008 21.5939 47.6429 21.6032 47.2424C21.6119 46.8711 21.6229 46.3968 21.6316 46.0201C21.6413 45.6089 21.4535 45.1979 21.1225 44.9046C20.7916 44.6116 20.3537 44.4691 19.9353 44.5182L19.934 44.5183V44.5183ZM20.122 45.3569C19.887 45.3844 19.7178 45.5664 19.7123 45.7973C19.7042 46.1487 19.6922 46.6619 19.684 47.0191C19.6783 47.2585 19.8501 47.4851 20.0941 47.5598C20.0945 47.5598 20.095 47.5602 20.0954 47.5601C20.2479 47.6068 20.4075 47.5868 20.5301 47.5056C20.6528 47.4246 20.7259 47.2906 20.7294 47.1409C20.7381 46.7696 20.7491 46.2953 20.7579 45.9186C20.7615 45.7648 20.6913 45.6109 20.5675 45.5014C20.4437 45.3915 20.28 45.3384 20.1234 45.3568C20.1229 45.3569 20.1224 45.357 20.122 45.3569V45.3569Z" fill="url(#paint13_linear_2334_12568)"/>
<path fill-rule="evenodd" clip-rule="evenodd" d="M44.1558 39.5591C44.2301 39.9864 44.5211 40.3628 44.9533 40.5488C45.2877 40.6927 45.7758 40.9027 46.1156 41.0487C46.4436 41.1899 46.8045 41.2008 47.129 41.0993C47.2943 41.4256 47.6 41.6827 47.9884 41.7925C48.3426 41.8925 48.8594 42.0387 49.2194 42.1405C49.7528 42.2912 50.3209 42.1303 50.6824 41.7529C50.9661 41.9423 51.3226 42.0295 51.6863 41.9786C52.0508 41.9275 52.583 41.8527 52.9535 41.8009C53.6177 41.7079 54.1237 41.1804 54.1616 40.542L54.1617 40.5408C54.1851 40.1416 54.0204 39.7548 53.712 39.4865C53.4038 39.2183 52.9843 39.0964 52.569 39.1547C52.1838 39.2087 51.6919 39.2777 51.3012 39.3324C50.9682 39.379 50.6662 39.5373 50.4465 39.7741C50.3276 39.6968 50.1954 39.6365 50.0537 39.5965C49.6795 39.4906 49.2016 39.3556 48.8221 39.2483C48.5433 39.1694 48.2482 39.1748 47.9762 39.2584C47.8374 38.9726 47.5948 38.7411 47.2888 38.6096C46.9356 38.4575 46.4843 38.2633 46.1261 38.1093C45.9144 38.0181 45.6848 37.9801 45.4579 37.9946C45.4048 37.6898 45.2415 37.4099 44.9919 37.2061C44.698 36.9661 44.3224 36.6595 44.024 36.416C43.6985 36.1503 43.2616 36.0428 42.839 36.1244C42.4165 36.2061 42.055 36.4679 41.8585 36.8347L41.8577 36.8358C41.5627 37.3864 41.6992 38.0548 42.188 38.454C42.4663 38.6811 42.8727 39.0128 43.1555 39.2438C43.4404 39.4764 43.8009 39.5819 44.1558 39.5591V39.5591ZM50.0921 40.6127C50.0258 40.5071 49.9194 40.4281 49.7926 40.3922C49.4185 40.2865 48.9407 40.1515 48.5613 40.0441C48.4062 40.0003 48.2379 40.0259 48.1047 40.1137C48.09 40.1234 48.0759 40.1337 48.0625 40.1445C48.0249 40.2866 47.9629 40.4234 47.8775 40.5489C47.8879 40.7556 48.035 40.936 48.2493 40.9966C48.6033 41.0967 49.1204 41.2428 49.4803 41.3446C49.7214 41.4128 49.9818 41.3105 50.1015 41.1005C50.1017 41.1001 50.102 41.0999 50.102 41.0993C50.1175 41.0723 50.1301 41.0442 50.1398 41.0155C50.1022 40.8836 50.0864 40.7477 50.0921 40.6127V40.6127ZM51.0475 40.9222C51.155 41.0876 51.3572 41.18 51.5659 41.1506C51.9305 41.0997 52.4627 41.0251 52.8333 40.9731C53.0814 40.9384 53.271 40.741 53.285 40.5023C53.285 40.5018 53.2851 40.5014 53.2851 40.5008C53.2939 40.3516 53.2321 40.207 53.117 40.1066C53.0017 40.0062 52.8447 39.9607 52.6893 39.9825C52.3043 40.0365 51.8123 40.1054 51.4216 40.16C51.262 40.1826 51.1215 40.2734 51.0405 40.4066C51.0225 40.4361 51.0078 40.467 50.9966 40.4987C51.0381 40.637 51.055 40.7801 51.0475 40.9222V40.9222ZM47.2265 39.7976C47.2246 39.764 47.2191 39.7304 47.2099 39.6973C47.17 39.553 47.0643 39.434 46.9217 39.3726C46.5686 39.2205 46.1174 39.0265 45.7591 38.8723C45.6128 38.8093 45.4437 38.8141 45.3006 38.8854C45.294 38.8886 45.2876 38.892 45.2812 38.8954C45.2151 39.0024 45.1334 39.101 45.0378 39.1879C45.0327 39.2041 45.0284 39.2206 45.025 39.2374C45.0248 39.2376 45.0248 39.2382 45.0247 39.2386C44.9784 39.4651 45.1006 39.691 45.3202 39.7856C45.6546 39.9295 46.1427 40.1395 46.4826 40.2857C46.6678 40.3655 46.8813 40.334 47.0336 40.2143C47.0722 40.0656 47.1377 39.9247 47.2265 39.7976ZM44.5766 38.3647C44.59 38.3222 44.5976 38.2779 44.5988 38.2327C44.6025 38.0832 44.5361 37.9405 44.4175 37.8435C44.1235 37.6035 43.7479 37.2969 43.4497 37.0535C43.3277 36.954 43.1644 36.9138 43.0065 36.9444C42.8483 36.9748 42.713 37.0729 42.6397 37.2101C42.6395 37.2104 42.6392 37.211 42.6389 37.2113C42.5286 37.4171 42.5796 37.6671 42.7623 37.8165C43.0407 38.0437 43.4471 38.3754 43.73 38.6064C43.9 38.7451 44.1421 38.7628 44.3328 38.6577C44.3993 38.5499 44.4814 38.4512 44.5766 38.3647V38.3647Z" fill="url(#paint14_linear_2334_12568)"/>
<path fill-rule="evenodd" clip-rule="evenodd" d="M38.425 46.6226C38.0782 46.5567 37.7614 46.3608 37.553 46.0589C37.3503 45.7656 37.0547 45.3372 36.8488 45.0392C36.4799 44.5049 36.5505 43.7855 37.0174 43.3222L37.0184 43.3213C37.3104 43.0317 37.718 42.8841 38.1294 42.9192C38.5406 42.9542 38.9127 43.1682 39.1434 43.5024C39.3574 43.8124 39.6309 44.2082 39.8478 44.5225C40.0071 44.7532 40.0874 45.0243 40.0833 45.298C40.3021 45.3396 40.5096 45.4332 40.6862 45.5741C40.9822 45.8101 41.3603 46.1115 41.6604 46.351C41.9017 46.5434 42.066 46.8086 42.1321 47.1011C42.3509 47.0841 42.5729 47.1182 42.779 47.2041C43.1305 47.3504 43.5795 47.5375 43.9361 47.6861C44.2105 47.8003 44.4355 47.9976 44.5821 48.2448C44.8436 48.0916 45.1515 48.0251 45.4581 48.0609C45.8383 48.1052 46.3237 48.1617 46.7094 48.2065C47.0808 48.2499 47.4147 48.4389 47.6376 48.727C47.8048 48.614 47.9968 48.5368 48.2014 48.5035C48.5801 48.4419 49.0636 48.3633 49.4477 48.3008C49.867 48.2327 50.2931 48.357 50.6036 48.6377C50.914 48.9186 51.0745 49.325 51.0385 49.7401L51.0383 49.7414C50.9847 50.3648 50.504 50.8756 49.8743 50.9779C49.5159 51.0363 48.9927 51.1214 48.6284 51.1805C48.1138 51.2641 47.6111 51.0573 47.3105 50.6686C47.0384 50.8527 46.7017 50.9416 46.3571 50.9014C45.9973 50.8594 45.4719 50.7983 45.1062 50.7556C44.667 50.7045 44.2957 50.4535 44.0853 50.0988C43.7131 50.3168 43.249 50.3582 42.8342 50.1854C42.5014 50.0468 42.0155 49.8444 41.6775 49.7036C41.2601 49.5296 40.9714 49.1722 40.878 48.7593C40.5343 48.7861 40.184 48.687 39.9031 48.4629C39.6228 48.2396 39.2138 47.9133 38.9292 47.6862C38.595 47.4198 38.4188 47.0247 38.425 46.6226V46.6226ZM50.1761 49.6779C50.1562 49.9112 49.9763 50.1022 49.7407 50.1404C49.3824 50.1987 48.8591 50.2838 48.4948 50.3429C48.2506 50.3828 48.0136 50.2475 47.9291 50.0205C47.9291 50.0201 47.9288 50.0197 47.9286 50.0191C47.8759 49.8772 47.8908 49.7187 47.9693 49.5875C48.048 49.4563 48.1822 49.3657 48.3349 49.3409C48.7136 49.2793 49.1971 49.2006 49.5812 49.1384C49.7382 49.1128 49.8975 49.1593 50.0135 49.2642C50.1298 49.3692 50.1897 49.5213 50.176 49.6766C50.1762 49.6772 50.1761 49.6775 50.1761 49.6779V49.6779ZM47.0155 49.732C46.9301 49.9512 46.7037 50.086 46.4672 50.0584C46.1073 50.0164 45.582 49.9553 45.2165 49.9126C44.9713 49.884 44.7826 49.6892 44.7662 49.4473C44.7663 49.4469 44.7661 49.4465 44.7662 49.4459C44.756 49.2947 44.8154 49.1463 44.9279 49.0413C45.0405 48.9364 45.1946 48.8859 45.348 48.9039C45.7282 48.9482 46.2136 49.0047 46.5993 49.0495C46.7567 49.0679 46.8961 49.1562 46.9774 49.2893C47.0588 49.4222 47.073 49.5849 47.0158 49.7307C47.0158 49.7313 47.0155 49.7317 47.0155 49.732V49.732ZM41.7146 48.3992C41.8444 48.2817 41.9494 48.142 42.0252 47.9885C42.1554 47.9327 42.3034 47.9314 42.4343 47.9859C42.7858 48.1323 43.2348 48.3194 43.5914 48.468C43.737 48.5286 43.8455 48.6517 43.8856 48.8019C43.926 48.9523 43.8934 49.1129 43.7973 49.2378C43.7971 49.2382 43.7967 49.2386 43.7966 49.2389C43.6526 49.4266 43.3974 49.4945 43.1787 49.4035C42.8459 49.2649 42.3602 49.0625 42.0221 48.9217C41.8109 48.8337 41.6877 48.62 41.7146 48.3992ZM41.2958 47.4606C41.167 47.5772 41.0614 47.7168 40.985 47.8717C40.8106 47.9468 40.6046 47.9233 40.4528 47.8024C40.1725 47.5788 39.7635 47.2527 39.4789 47.0255C39.3193 46.8983 39.256 46.6925 39.3081 46.503C39.4946 46.4119 39.6569 46.2815 39.7841 46.123C39.9111 46.1161 40.0369 46.1554 40.1365 46.2347C40.4324 46.4709 40.8106 46.7723 41.1107 47.0118C41.2333 47.1095 41.3028 47.2576 41.2992 47.4131C41.2988 47.429 41.2977 47.4449 41.2958 47.4606V47.4606ZM39.2005 45.417C39.0157 45.5075 38.8529 45.6373 38.7246 45.7974C38.5477 45.8074 38.3739 45.7275 38.2708 45.5781C38.0683 45.2849 37.7725 44.8566 37.5668 44.5585C37.4287 44.3588 37.4552 44.0895 37.6296 43.9163C37.6301 43.916 37.6303 43.9156 37.6307 43.9153C37.7399 43.807 37.8924 43.7519 38.0463 43.7649C38.2 43.7781 38.3393 43.8581 38.4256 43.9832C38.6396 44.2931 38.9129 44.6888 39.13 45.0033C39.2138 45.1245 39.2391 45.2755 39.2005 45.417V45.417Z" fill="url(#paint15_linear_2334_12568)"/>
<path fill-rule="evenodd" clip-rule="evenodd" d="M41.5895 14.1468C43.0105 13.4354 43.6129 12.3764 42.6352 11.4164C43.1662 11.1946 43.8406 11.7774 44.5797 12.5012C44.7093 11.8968 44.8891 11.5173 43.8144 10.3886C44.9046 10.5207 45.6036 11.2084 46.1068 11.7319C46.3462 10.79 46.6248 10.4792 45.8083 8.53906C47.5983 8.64688 51.764 18.1017 52.5625 20.9455C52.6033 21.0909 52.6356 21.2277 52.6598 21.3571C53.5154 24.3097 53.9037 27.3506 54.1336 29.5142C54.2524 30.6321 49.073 33.9003 49.073 33.9003C49.073 33.9003 45.9123 35.0338 42.4216 34.205C39.0804 33.4117 32.3064 20.6592 32.9894 18.9993C33.3512 18.1195 36.8352 16.1017 40.3634 14.6335C40.3806 14.6211 40.3985 14.6093 40.4174 14.5981C40.4556 14.587 40.4934 14.5757 40.5307 14.5643C40.8847 14.4188 41.2387 14.2791 41.5895 14.1469L41.5895 14.1468Z" fill="url(#paint16_linear_2334_12568)"/>
<path fill-rule="evenodd" clip-rule="evenodd" d="M38.8438 17.6853C39.1336 17.8167 39.4827 17.7162 39.6437 17.4555C39.9206 17.0074 40.287 16.5818 40.5574 16.3981C40.7989 16.2342 41.1158 16.2367 41.3678 16.2776C41.6124 16.3182 41.8503 16.1801 41.921 15.9572L41.9226 15.958C42.0009 15.7116 41.8546 15.4518 41.5939 15.3727C41.0537 15.2049 40.5392 15.1243 39.9095 15.468C39.5789 15.6485 39.0146 16.2953 38.6148 16.7852C38.493 16.9197 38.4454 17.0984 38.4842 17.2706C38.5222 17.4433 38.6441 17.5886 38.8133 17.6653C38.8222 17.6747 38.8334 17.6798 38.8438 17.6853V17.6853Z" fill="#032B44"/>
<path fill-rule="evenodd" clip-rule="evenodd" d="M46.6436 28.3535C45.8456 28.2635 42.3275 29.7352 39.3807 31.6628C37.3455 32.9944 35.7439 35.2569 35.4469 34.0562C35.0504 32.4542 38.9549 29.9032 41.6081 28.5784C42.5629 28.1014 43.8501 28.036 44.022 27.8757C44.6066 27.3316 47.1958 28.0633 46.6436 28.3535V28.3535Z" fill="#FFAE06"/>
<path fill-rule="evenodd" clip-rule="evenodd" d="M37.607 18.836C38.3088 18.2737 38.7281 24.798 42.7247 26.6618C44.0567 27.283 45.0602 27.2093 45.9496 27.5241C47.1707 27.956 47.3416 28.6135 46.0506 28.3613C40.3856 27.2553 38.1991 33.2489 34.5406 33.609C33.6163 33.6998 31.9713 33.3801 32.684 33.0057C33.3975 32.6308 39.4317 30.0901 39.4166 28.2327C39.3952 25.6263 37.1896 19.2179 37.607 18.836V18.836Z" fill="#FFC606"/>
<path fill-rule="evenodd" clip-rule="evenodd" d="M32.701 23.8045L49.1848 14.4467C47.1619 17.0517 47.5515 19.4623 47.5769 20.1916C47.8188 27.153 44.5997 28.6346 39.1798 23.0395C38.1966 22.0244 37.4864 22.4421 37.8514 23.8579C39.49 30.209 38.2983 32.2334 32.701 23.8045V23.8045Z" fill="#032B44"/>
<path fill-rule="evenodd" clip-rule="evenodd" d="M47.0969 56.3992C47.1173 56.3702 47.139 56.3421 47.1621 56.315C47.3954 56.04 47.6932 55.6889 47.9297 55.4098C48.188 55.1055 48.5825 54.9545 49 55.0002C49.4175 55.0462 49.8117 55.2835 50.0689 55.6447L50.0699 55.6458C50.4566 56.1878 50.4559 56.891 50.0681 57.3481C49.8472 57.6084 49.525 57.9884 49.3006 58.2528C48.8984 58.7269 48.1911 58.8069 47.6121 58.444L47.611 58.4432C47.6082 58.4415 47.6055 58.4398 47.6028 58.438C47.4358 58.7406 47.1674 58.9694 46.8394 59.0623C46.511 59.1554 46.0317 59.2913 45.6979 59.3858C45.3016 59.4982 44.8905 59.3922 44.5772 59.1264C44.42 59.3195 44.2065 59.461 43.9544 59.5243C43.6231 59.6075 43.1395 59.729 42.803 59.8134C42.3236 59.9337 41.8094 59.7457 41.4627 59.3533C41.2476 59.6025 40.946 59.7575 40.608 59.7695C40.2667 59.7816 39.7683 59.7993 39.4216 59.8116C38.7998 59.8335 38.2261 59.3661 38.052 58.6962L38.0517 58.6948C37.943 58.2758 38.0076 57.8356 38.2281 57.495C38.4484 57.1545 38.8015 56.9492 39.1904 56.9354C39.5509 56.9225 40.0114 56.9063 40.3772 56.8934C40.7634 56.8796 41.144 57.0564 41.4171 57.3742C41.5684 57.2164 41.7598 57.1033 41.9758 57.0491C42.3257 56.9612 42.7726 56.8491 43.1276 56.76C43.515 56.6626 43.9391 56.7656 44.2783 57.039C44.2932 57.051 44.3079 57.0633 44.3223 57.0758C44.492 56.836 44.7295 56.6622 45.0021 56.5851C45.3491 56.4867 45.792 56.3611 46.1439 56.2612C46.4653 56.1702 46.806 56.2215 47.0969 56.3992V56.3992ZM44.0363 58.1502C44.054 58.3945 43.9132 58.6049 43.6956 58.6596C43.3643 58.7428 42.8808 58.8642 42.5443 58.9486C42.3186 59.0053 42.0721 58.8792 41.9561 58.6476C41.9558 58.6473 41.9555 58.6468 41.9554 58.6463C41.8829 58.5015 41.8723 58.3356 41.9261 58.1939C41.9801 58.052 42.0932 57.9494 42.2344 57.9139C42.5843 57.826 43.0313 57.7139 43.3863 57.6248C43.5312 57.5883 43.6899 57.6268 43.8166 57.729C43.9437 57.8313 44.0245 57.986 44.0361 58.1489C44.0362 58.1493 44.0361 58.1499 44.0363 58.1502V58.1502ZM40.9753 58.4428C40.9415 58.6854 40.7599 58.8617 40.5356 58.8698C40.1943 58.8819 39.6961 58.8995 39.3494 58.9118C39.1168 58.9201 38.9022 58.7452 38.837 58.4945C38.8369 58.4941 38.8367 58.4936 38.8367 58.4931C38.796 58.3364 38.8203 58.1719 38.9026 58.0445C38.985 57.9171 39.1171 57.8404 39.2626 57.8352C39.6231 57.8223 40.0837 57.8061 40.4494 57.7931C40.5988 57.7878 40.7459 57.8585 40.8484 57.985C40.9514 58.1116 40.998 58.2798 40.9754 58.4415C40.9754 58.4419 40.9752 58.4424 40.9753 58.4428V58.4428ZM46.8884 57.3598C46.8923 57.3845 46.8969 57.4092 46.9021 57.4339C46.92 57.5189 46.9453 57.6021 46.9772 57.6825C46.9744 57.9212 46.8304 58.127 46.6217 58.1861C46.2933 58.2792 45.814 58.4152 45.4804 58.5096C45.2567 58.573 45.0203 58.4505 44.9161 58.217C44.916 58.2166 44.9157 58.2163 44.9155 58.2157C44.8505 58.0698 44.8469 57.9005 44.9058 57.7545C44.9646 57.6085 45.0798 57.5008 45.2198 57.4612C45.5668 57.3629 46.0097 57.2373 46.3616 57.1374C46.5053 57.0967 46.6592 57.1321 46.7794 57.2335C46.822 57.2694 46.8586 57.3122 46.8884 57.3598V57.3598ZM47.7727 57.4581C47.7613 57.3807 47.7442 57.3047 47.722 57.2307C47.7214 57.1152 47.7592 57.0058 47.8311 56.9212C48.0643 56.6462 48.3622 56.2951 48.5987 56.0161C48.6953 55.9022 48.8428 55.8458 48.9991 55.863C49.1552 55.8801 49.3026 55.969 49.3987 56.1041C49.3992 56.1045 49.3994 56.1049 49.3997 56.1052C49.5444 56.308 49.5442 56.5708 49.3991 56.7419C49.1783 57.0022 48.856 57.3822 48.6317 57.6465C48.4812 57.8238 48.2167 57.8538 48.0001 57.718C47.9997 57.7178 47.9993 57.7176 47.9989 57.7172C47.8994 57.6548 47.8205 57.5634 47.7727 57.4581V57.4581Z" fill="url(#paint17_linear_2334_12568)"/>
<path fill-rule="evenodd" clip-rule="evenodd" d="M59.3676 53.581C61.5051 52.8487 64.665 59.4344 64.2399 66.273C63.9002 71.7431 60.9839 79.7637 55.1232 81.6041C41.8811 85.7627 44.4977 62.7823 48.6238 60.6736C51.8483 59.0254 51.9047 66.5887 51.6672 72.2669C52.355 71.5887 53.486 69.8542 53.6805 67.9935C53.8741 66.1393 53.356 63.4454 52.3466 62.7155C50.4837 61.3693 52.2488 59.2369 54.363 61.7588C52.1728 59.2768 54.7347 58.0954 56.6659 59.9552C55.0277 58.5393 56.2073 55.694 59.0845 58.9896C60.5559 57.0268 58.5759 53.8523 59.3676 53.581V53.581Z" fill="url(#paint18_linear_2334_12568)"/>
<path fill-rule="evenodd" clip-rule="evenodd" d="M66.5118 44.716L59.2698 45.7496L63.8776 62.691L67.4207 59.917L66.5118 44.716Z" fill="#EF245F"/>
<path d="M65.4099 48.4112C65.3288 47.7227 64.714 47.4754 64.0418 47.8603C63.3695 48.2454 62.8869 49.1213 62.9683 49.8098C63.0503 50.5058 63.6642 50.7454 64.3364 50.3605C65.0087 49.9756 65.4921 49.1075 65.4099 48.4112V48.4112ZM63.5322 49.4866C63.4884 49.1146 63.7467 48.6459 64.1097 48.438C64.4729 48.23 64.8021 48.3624 64.846 48.7344C64.8898 49.1061 64.6315 49.5751 64.2685 49.7831C63.9052 49.991 63.5761 49.8584 63.5322 49.4866ZM66.0904 54.1791C65.9757 53.206 65.3345 52.7368 64.6623 53.122C63.99 53.5069 63.5338 54.6046 63.6485 55.5776C63.7635 56.5507 64.4044 57.0199 65.0766 56.635C65.7489 56.2498 66.2043 55.1444 66.0904 54.1791V54.1791ZM64.2127 55.2545C64.1332 54.5821 64.4223 53.8844 64.7237 53.7118C65.025 53.5392 65.4314 53.8384 65.5107 54.5111C65.5902 55.1835 65.3011 55.8812 64.9999 56.0538C64.6984 56.2264 64.291 55.9191 64.2127 55.2545V55.2545ZM66.53 58.3958C66.5112 58.2375 66.364 58.1781 66.2094 58.2666L65.2514 58.8155L66.2933 56.5293C66.3332 56.4474 66.2852 56.3904 66.2156 56.4303L64.2452 57.5586C64.0905 57.6473 63.9753 57.857 63.9938 58.0152C64.0126 58.1735 64.1598 58.2328 64.3144 58.1441L65.2646 57.6L64.2228 59.886C64.1828 59.9679 64.2309 60.0249 64.3004 59.985L66.2786 58.8521C66.4333 58.7637 66.5485 58.5537 66.53 58.3958V58.3958ZM64.0054 53.0081L63.8878 52.0111L65.6753 52.339C65.7341 52.3476 65.8067 52.2637 65.7993 52.2004L65.5826 50.3648C65.5641 50.2065 65.4169 50.1472 65.2623 50.2359C65.1076 50.3243 64.9922 50.534 65.0109 50.6922L65.109 51.5232L63.3204 51.1875C63.2616 51.1789 63.189 51.2625 63.1975 51.3339L63.4338 53.3355C63.4523 53.4938 63.5994 53.5531 63.7541 53.4647C63.9087 53.3762 64.0242 53.1663 64.0054 53.0081V53.0081Z" fill="white"/>
<path fill-rule="evenodd" clip-rule="evenodd" d="M54.7227 46.25L61.2673 47.1306L63.8767 62.6913L58.1811 60.9972L54.7227 46.25V46.25Z" fill="#C9245F"/>
<path d="M59.3067 58.8231C60.1167 58.5784 60.4419 57.2826 60.033 55.9287C59.6241 54.5749 58.636 53.6757 57.826 53.9203C57.016 54.165 56.6909 55.4608 57.0998 56.8147C57.5086 58.1685 58.4968 59.0677 59.3067 58.8231Z" fill="#43C969"/>
<path d="M57.9513 62.3739C58.7613 62.1292 59.0864 60.8334 58.6775 59.4795C58.2686 58.1257 57.2805 57.2265 56.4705 57.4711C55.6605 57.7157 55.3354 59.0116 55.7443 60.3654C56.1532 61.7193 57.1413 62.6185 57.9513 62.3739Z" fill="#43C969"/>
<path d="M55.5431 64.116C56.3531 63.8714 56.6782 62.5756 56.2693 61.2217C55.8604 59.8679 54.8723 58.9687 54.0623 59.2133C53.2523 59.4579 52.9272 60.7538 53.3361 62.1076C53.745 63.4615 54.7331 64.3607 55.5431 64.116Z" fill="#43C969"/>
<path d="M53.7149 65.4481C54.5249 65.2034 54.8501 63.9076 54.4412 62.5537C54.0323 61.1999 53.0442 60.3007 52.2342 60.5453C51.4242 60.79 51.0991 62.0858 51.508 63.4397C51.9168 64.7935 52.905 65.6927 53.7149 65.4481Z" fill="#43C969"/>
<path fill-rule="evenodd" clip-rule="evenodd" d="M54.7145 46.2545L61.1767 47.2511L66.4893 44.6884L58.8457 43.9617L54.7145 46.2545Z" fill="#FC4077"/>
<path fill-rule="evenodd" clip-rule="evenodd" d="M57.2791 45.2836L62.3238 46.0763L63.3825 45.5417L58.1213 44.8338L57.2791 45.2836V45.2836Z" fill="#032B44"/>
<path fill-rule="evenodd" clip-rule="evenodd" d="M49.6238 64.1008L50.0204 68.0183L51.8043 68.6842L60.5141 57.7113L59.388 56.2723L49.6238 64.1008V64.1008Z" fill="#FC4077"/>
<path fill-rule="evenodd" clip-rule="evenodd" d="M61.2685 56.4487L51.3148 64.3291L51.8061 68.6855L61.6812 60.0412L61.2685 56.4487V56.4487Z" fill="#F0245F"/>
<path fill-rule="evenodd" clip-rule="evenodd" d="M58.1523 52.7413L56.9918 53.9479L57.7553 57.7244L59.3049 58.0562L58.5618 54.1592L59.7153 52.9516L58.1523 52.7413V52.7413Z" fill="#FC4077"/>
<path fill-rule="evenodd" clip-rule="evenodd" d="M59.8129 53.7183L59.2143 54.3899L59.8882 57.7405L59.3052 58.0598L58.5621 54.1628L59.7156 52.9552L59.8129 53.7183Z" fill="#F0245F"/>
<path fill-rule="evenodd" clip-rule="evenodd" d="M63.0736 45.6772C63.0736 45.6772 63.8038 39.006 67.7697 39.8582C66.2873 39.2699 62.8607 38.4134 61.3337 38.9922C58.3008 40.1415 57.557 43.8655 57.9969 44.9942C60.3788 45.5965 63.0736 45.6772 63.0736 45.6772Z" fill="#3ACF68"/>
<path fill-rule="evenodd" clip-rule="evenodd" d="M63.0745 45.6731C63.0745 45.6731 61.5061 37.8123 65.4719 38.6645C63.9885 38.0761 60.5632 37.2198 59.036 37.7986C56.0022 38.9477 57.5579 43.8614 57.9978 44.99C60.3797 45.5924 63.0745 45.6731 63.0745 45.6731Z" fill="#3AD768"/>
<path fill-rule="evenodd" clip-rule="evenodd" d="M62.5561 45.8953C62.5561 45.8953 61.9838 40.6756 59.4464 40.2351C57.1848 39.7799 54.9019 39.7406 53.3736 40.3192C55.8122 41.5158 57.0387 44.0835 57.4796 45.2123C59.8605 45.8145 62.5561 45.8953 62.5561 45.8953Z" fill="#3ADF68"/>
<path fill-rule="evenodd" clip-rule="evenodd" d="M59.3672 53.5821C61.5047 52.8498 64.6646 59.4355 64.2394 66.2741C63.8998 71.7442 60.9834 79.7648 55.1227 81.6052C48.4124 81.1933 45.4555 75.5327 51.6667 72.268C52.3922 71.6306 53.4856 69.8553 53.68 67.9946C53.8736 66.1404 53.3555 63.4465 52.3462 62.7166C50.4833 61.3704 52.2484 59.238 54.3625 61.7599C52.1723 59.2779 54.7342 58.0965 56.6655 59.9563C55.0272 58.5404 56.2068 55.6951 59.084 58.9907C60.5554 57.0279 58.5754 53.8534 59.3672 53.5821Z" fill="url(#paint19_linear_2334_12568)"/>
<path d="M30.7645 50.3151C28.9559 49.2313 27.5095 49.2625 26.9274 50.3152C26.5204 51.051 26.7615 51.8895 27.3781 52.8985L28.5965 54.9078C29.1112 55.7469 29.3002 56.2547 29.0798 56.6533C28.8141 57.1337 28.1802 57.0058 27.0774 56.3449C26.0776 55.7457 25.2676 54.8385 24.7529 54.1763L23.4035 54.9526C24.0144 55.7949 25.0505 56.824 26.3591 57.6083C28.3147 58.7802 30.0371 58.8871 30.7605 57.5789C31.2127 56.7613 30.9942 55.882 30.2465 54.6855L28.9511 52.603C28.571 51.9805 28.3773 51.5583 28.6115 51.27C28.9044 50.9097 29.227 51.0067 30.0504 51.5001C30.7415 51.9143 31.4099 52.5462 31.8918 53.1615L32.3114 52.9792L33.219 52.4256C32.6398 51.7383 31.8084 50.9407 30.7645 50.3151V50.3151Z" fill="#FBAD17"/>
<path d="M23.3255 50.6227L21.5722 49.1593L21.1577 49.3236L20.6395 50.2607L21.6783 50.8832C21.4748 51.1356 21.087 51.2151 20.5466 50.8912C19.784 50.4342 19.674 49.7367 20.0044 49.1393C20.3542 48.5068 21.0115 48.3158 21.702 48.7297C22.0563 48.942 22.3458 49.2714 22.5156 49.7162L24.1292 49.0323C23.8367 48.4047 23.2016 47.8078 22.5231 47.4012C21.0219 46.5015 19.4804 47.1955 18.8067 48.4137C18.1038 49.6846 18.5339 51.1043 19.9031 51.9247C21.2421 52.7272 22.4333 52.2792 23.0973 51.0786C23.1621 50.9615 23.25 50.788 23.3255 50.6227V50.6227Z" fill="#FBAD17"/>
<path d="M25.7554 49.7485C24.5064 49 23.046 49.2555 22.3334 50.544C21.6208 51.8324 22.1419 53.2754 23.391 54.0239C24.64 54.7725 26.1005 54.517 26.8131 53.2285C27.5256 51.94 27.0045 50.497 25.7554 49.7485ZM25.14 50.8613C25.7345 51.2176 25.9651 51.8704 25.6121 52.5088C25.259 53.1472 24.6009 53.2674 24.0064 52.9112C23.4119 52.5549 23.1813 51.9021 23.5344 51.2637C23.8874 50.6253 24.5455 50.505 25.14 50.8613Z" fill="#FBAD17"/>
<path d="M34.9008 55.3475L34.0781 56.8351L32.643 55.975L33.4657 54.4874L32.7441 53.6142L32.3247 53.8037L30.0574 57.9034L31.1984 58.5871L31.6082 58.3987L32.0794 56.9941L33.5145 57.8542L32.6335 59.4472L33.7745 60.1309L36.0418 56.0312L35.3184 55.173L34.9008 55.3475Z" fill="#FBAD17"/>
<path d="M36.5402 61.7874L37.8012 62.5431L38.205 62.3423L38.4412 57.4681L37.6609 56.5472L37.2222 56.7376L33.3276 59.8621L34.5886 60.6178L35.0169 60.4255L35.2711 60.0053L36.7063 60.8654L36.5402 61.7874V61.7874ZM36.0452 59.2995L37.1869 58.276L36.9039 59.8141L36.0452 59.2995Z" fill="#FBAD17"/>
<path fill-rule="evenodd" clip-rule="evenodd" d="M31.8563 49.9091L31.1205 49.0295L30.7065 49.2201L25.6841 58.3015L26.8339 58.9906L27.2498 58.7812L31.8563 49.9091V49.9091Z" fill="#FBAD17"/>
<path fill-rule="evenodd" clip-rule="evenodd" d="M21.5708 49.1362L22.9931 49.9885C23.7617 49.0265 25.0504 48.8913 26.1694 49.5619C26.5986 49.8191 26.9419 50.1584 27.1787 50.5453C27.2114 50.4021 27.2644 50.2628 27.3395 50.1271C27.8659 49.1751 29.0991 49.0585 30.6677 49.8463L31.1188 49.0307L32.2686 49.7198L31.8119 50.5456C32.5619 51.086 33.1748 51.696 33.6311 52.2374L32.3039 52.9734C31.9799 52.5597 31.5715 52.1384 31.1287 51.781L30.1122 53.619L30.6585 54.4974C31.0347 55.0993 31.2769 55.6209 31.3672 56.0948L32.7383 53.6155L33.8793 54.2993L33.0566 55.7869L34.4917 56.6469L35.3144 55.1593L36.4554 55.843L34.8112 58.816L37.6357 56.55L38.8547 57.2805L38.2148 62.3555L36.9537 61.5998L37.1198 60.6778L35.6846 59.8177L35.0021 60.4302L34.1882 59.9425L34.1881 59.9428L33.0471 59.259L33.9281 57.666L32.493 56.806L31.612 58.399L30.771 57.895C30.0843 58.4928 28.9924 58.4644 27.734 57.9192L27.2462 58.8012L26.0964 58.1121L26.5534 57.2858C25.3476 56.521 24.3922 55.5595 23.8156 54.7644L24.7762 54.2119C24.4492 54.1514 24.1203 54.0264 23.8049 53.8373C23.0651 53.394 22.5807 52.707 22.4567 51.9528C21.847 52.2491 21.1074 52.2115 20.3162 51.7374C18.947 50.9169 18.5169 49.4972 19.2198 48.2263C19.8935 47.0081 21.2395 46.5983 22.7407 47.4979C23.4192 47.9045 23.838 48.405 24.1305 49.0326L22.9287 49.5288C22.7589 49.084 22.4694 48.7546 22.1151 48.5423C21.4246 48.1284 20.7673 48.3194 20.4175 48.9519C20.0871 49.5493 20.1971 50.2468 20.9597 50.7038C21.5001 51.0277 21.8879 50.9482 22.0914 50.6958L21.0526 50.0733L21.5708 49.1362ZM28.4424 56.6382C28.9751 56.8352 29.3151 56.7849 29.4919 56.4652C29.6712 56.141 29.5796 55.7445 29.2621 55.1561L28.4424 56.6382ZM28.4667 53.8261L27.2585 56.0109C26.4874 55.4987 25.8417 54.8191 25.3743 54.2501C26.1213 54.2054 26.8052 53.8046 27.227 53.0419C27.3755 52.7733 27.4705 52.4979 27.5164 52.2235C27.5965 52.3814 27.6882 52.5435 27.7902 52.7104L28.4667 53.8261ZM29.3026 52.3147L30.001 51.0518C29.5034 50.798 29.2543 50.7981 29.0236 51.0819C28.8022 51.3544 28.9632 51.7467 29.3026 52.3147ZM25.5539 50.6747C26.1484 51.0309 26.379 51.6838 26.026 52.3222C25.6729 52.9606 25.0148 53.0808 24.4203 52.7245C23.8258 52.3683 23.5952 51.7154 23.9483 51.0771C24.3013 50.4387 24.9595 50.3184 25.5539 50.6747ZM36.4587 59.1119L37.6004 58.0884L37.3174 59.6265L36.4587 59.1119Z" fill="url(#paint20_linear_2334_12568)"/>
</g>
<circle cx="42.6669" cy="81.4618" r="11.7978" fill="#DEBC04"/>
<path d="M43.7062 84.7123H45.8156V86.3828H39.7563V84.7123H42.0073V78.5255H40.5491V76.8266H43.7062V84.7123Z" fill="white"/>
<defs>
<linearGradient id="paint0_linear_2334_12568" x1="34.5452" y1="56.6673" x2="42.2908" y2="45.1445" gradientUnits="userSpaceOnUse">
<stop stop-color="#FFC606"/>
<stop offset="1" stop-color="#FFC606"/>
</linearGradient>
<linearGradient id="paint1_linear_2334_12568" x1="47.4956" y1="61.2081" x2="57.2391" y2="50.8578" gradientUnits="userSpaceOnUse">
<stop stop-color="#FFC606"/>
<stop offset="1" stop-color="#FFC606"/>
</linearGradient>
<linearGradient id="paint2_linear_2334_12568" x1="41.5986" y1="50.3606" x2="48.8639" y2="62.4572" gradientUnits="userSpaceOnUse">
<stop stop-color="#FFC606"/>
<stop offset="1" stop-color="#FFC606"/>
</linearGradient>
<linearGradient id="paint3_linear_2334_12568" x1="31.4424" y1="42.2004" x2="38.7077" y2="54.297" gradientUnits="userSpaceOnUse">
<stop stop-color="#FFC606"/>
<stop offset="1" stop-color="#FFC606"/>
</linearGradient>
<linearGradient id="paint4_linear_2334_12568" x1="16.8694" y1="36.8535" x2="30.5105" y2="64.763" gradientUnits="userSpaceOnUse">
<stop stop-color="#3ADF68"/>
<stop offset="1" stop-color="#3EB860"/>
</linearGradient>
<linearGradient id="paint5_linear_2334_12568" x1="45.1167" y1="42.2713" x2="55.2941" y2="52.7267" gradientUnits="userSpaceOnUse">
<stop stop-color="#FFC606"/>
<stop offset="1" stop-color="#FFC606"/>
</linearGradient>
<linearGradient id="paint6_linear_2334_12568" x1="18.13" y1="45.1307" x2="37.8177" y2="75.3816" gradientUnits="userSpaceOnUse">
<stop stop-color="#3FE06C"/>
<stop offset="0.4" stop-color="#59E681"/>
<stop offset="1" stop-color="#3DC062"/>
</linearGradient>
<linearGradient id="paint7_linear_2334_12568" x1="20.0296" y1="40.3787" x2="21.5689" y2="45.474" gradientUnits="userSpaceOnUse">
<stop stop-color="#3ADF68"/>
<stop offset="1" stop-color="#3CCF65"/>
</linearGradient>
<linearGradient id="paint8_linear_2334_12568" x1="-2.61415" y1="9.97868" x2="-2.4882" y2="10.5003" gradientUnits="userSpaceOnUse">
<stop stop-color="#FFC606"/>
<stop offset="1" stop-color="#FFC606"/>
</linearGradient>
<linearGradient id="paint9_linear_2334_12568" x1="27.9788" y1="48.6986" x2="17.8161" y2="38.5968" gradientUnits="userSpaceOnUse">
<stop stop-color="#FFC606"/>
<stop offset="1" stop-color="#FFC606"/>
</linearGradient>
<linearGradient id="paint10_linear_2334_12568" x1="17.81" y1="37.5328" x2="14.1202" y2="33.6965" gradientUnits="userSpaceOnUse">
<stop stop-color="#3ADF68"/>
<stop offset="1" stop-color="#3CCF65"/>
</linearGradient>
<linearGradient id="paint11_linear_2334_12568" x1="32.3539" y1="41.4567" x2="18.123" y2="43.1325" gradientUnits="userSpaceOnUse">
<stop stop-color="#FFC606"/>
<stop offset="1" stop-color="#FFC606"/>
</linearGradient>
<linearGradient id="paint12_linear_2334_12568" x1="32.607" y1="45.9961" x2="18.2778" y2="46.0067" gradientUnits="userSpaceOnUse">
<stop stop-color="#FFC606"/>
<stop offset="1" stop-color="#FFC606"/>
</linearGradient>
<linearGradient id="paint13_linear_2334_12568" x1="33.1519" y1="48.9297" x2="18.8227" y2="48.9403" gradientUnits="userSpaceOnUse">
<stop stop-color="#FFC606"/>
<stop offset="1" stop-color="#FFC606"/>
</linearGradient>
<linearGradient id="paint14_linear_2334_12568" x1="-2.61535" y1="9.97666" x2="-2.4894" y2="10.4982" gradientUnits="userSpaceOnUse">
<stop stop-color="#FFC606"/>
<stop offset="1" stop-color="#FFC606"/>
</linearGradient>
<linearGradient id="paint15_linear_2334_12568" x1="-2.61513" y1="9.97815" x2="-2.48918" y2="10.4997" gradientUnits="userSpaceOnUse">
<stop stop-color="#FFC606"/>
<stop offset="1" stop-color="#FFC606"/>
</linearGradient>
<linearGradient id="paint16_linear_2334_12568" x1="44.0858" y1="10.9221" x2="48.9701" y2="34.1702" gradientUnits="userSpaceOnUse">
<stop stop-color="#70E887"/>
<stop offset="1" stop-color="#41E06E"/>
</linearGradient>
<linearGradient id="paint17_linear_2334_12568" x1="-2.6142" y1="9.97848" x2="-2.48825" y2="10.5001" gradientUnits="userSpaceOnUse">
<stop stop-color="#FFC606"/>
<stop offset="1" stop-color="#FFC606"/>
</linearGradient>
<linearGradient id="paint18_linear_2334_12568" x1="49.1318" y1="62.7145" x2="50.4089" y2="75.3718" gradientUnits="userSpaceOnUse">
<stop stop-color="#4CE376"/>
<stop offset="1" stop-color="#43C969"/>
</linearGradient>
<linearGradient id="paint19_linear_2334_12568" x1="57.535" y1="58.1318" x2="55.8205" y2="72.2121" gradientUnits="userSpaceOnUse">
<stop stop-color="#4CE376"/>
<stop offset="1" stop-color="#43C969"/>
</linearGradient>
<linearGradient id="paint20_linear_2334_12568" x1="38.0385" y1="63.5657" x2="22.2055" y2="44.8472" gradientUnits="userSpaceOnUse">
<stop stop-color="#FFC606"/>
<stop offset="0.1" stop-color="#FFF6DA"/>
<stop offset="0.28" stop-color="#FFC606"/>
<stop offset="0.61" stop-color="white"/>
<stop offset="0.77" stop-color="#FFCD26"/>
<stop offset="1" stop-color="white"/>
</linearGradient>
<clipPath id="clip0_2334_12568">
<rect x="3.90039" y="3.93359" width="77.5281" height="77.5281" rx="38.764" fill="white"/>
</clipPath>
</defs>
</svg>
