<svg width="85" height="93" viewBox="0 0 85 93" fill="none" xmlns="http://www.w3.org/2000/svg">
<circle cx="42.1742" cy="42.35" r="40.4494" fill="#005BFF" stroke="white" stroke-width="3.37079"/>
<g clip-path="url(#clip0_2334_12576)">
<g clip-path="url(#clip1_2334_12576)">
<path fill-rule="evenodd" clip-rule="evenodd" d="M85.1004 21.6699C86.2613 21.3345 88.7221 25.8122 89.0107 33.6103C89.0984 35.9837 89.1563 38.5959 88.7128 41.3145C86.9229 52.2813 79.3069 60.6809 70.4306 64.9905C61.087 69.5265 37.881 66.276 39.9409 61.7674C41.0572 59.3241 58.7412 61.3591 61.5947 58.9234C64.7446 56.2354 74.4583 48.2891 72.9519 43.0908C71.5183 38.1439 69.0555 34.4686 68.4246 33.5549C67.6504 32.4346 70.9568 31.793 73.4953 35.1722C72.6829 30.3638 69.3711 19.3254 70.0054 18.5395C71.298 16.9387 73.7174 22.1014 75.8126 27.1014C75.0787 22.4071 71.9842 15.5346 73.4846 15.264C74.8239 15.0221 78.0462 21.2231 80.7948 27.5533C79.0662 21.9053 78.7226 17.8674 79.9638 17.6567C81.3684 17.4176 83.8954 25.2182 84.9499 28.4738C85.0171 25.8671 84.0845 21.9632 85.1004 21.6699V21.6699Z" fill="url(#paint0_linear_2334_12576)"/>
<path fill-rule="evenodd" clip-rule="evenodd" d="M-3.54576 50.2221C-4.43058 50.8536 -1.927 57.6179 1.00356 63.1163C2.66045 66.225 6.45041 70.2122 10.2958 72.2097C20.1994 77.3532 32.8896 66.765 33.3577 64.5908C34.2725 60.332 22.0647 65.6849 19.1756 62.9388C14.182 58.1922 12.7366 47.0524 12.6483 45.5283C12.5754 44.275 10.2106 46.2679 10.3033 50.1959C8.43577 46.6304 5.04593 37.3998 4.26508 37.3718C2.6748 37.3148 3.72093 42.2611 4.88827 46.8723C3.02834 43.4342 1.55751 36.941 0.494323 37.858C-0.454897 38.6763 0.605627 44.846 2.02346 50.7532C0.309919 46.0058 -1.46813 43.2572 -2.34139 44.0236C-3.32921 44.891 -1.04935 51.5489 -0.0978435 54.3271C-1.42475 52.7614 -2.77144 49.6697 -3.54576 50.2221Z" fill="url(#paint1_linear_2334_12576)"/>
<path fill-rule="evenodd" clip-rule="evenodd" d="M79.4513 70.0664C79.4956 71.6957 76.5724 79.596 57.4417 81.8371C41.6914 83.6823 32.4851 75.3342 31.6745 74.4914C22.8189 65.2847 16.9412 51.3478 20.0047 30.4062C21.2538 28.5203 31.6593 40.551 34.0453 40.467C31.9403 75.175 79.2769 63.6476 79.4513 70.0664Z" fill="#3ADF68"/>
<path fill-rule="evenodd" clip-rule="evenodd" d="M26.2834 12.9675C24.2245 13.3161 20.6153 25.5111 20.0559 29.1244C18.7267 37.712 36.5038 21.398 33.3043 19.8129C30.6674 19.2852 29.0729 17.7672 30.3275 16.1445C29.6841 15.9341 28.978 16.736 28.2151 17.7201C27.9874 16.9881 27.7304 16.5404 28.8298 15.0152C27.5845 15.3097 26.8634 16.2443 26.3479 16.9523C25.9497 15.8162 25.5871 15.4653 26.2834 12.9675V12.9675Z" fill="#60E887"/>
<path fill-rule="evenodd" clip-rule="evenodd" d="M42.4713 24.3622C41.4679 22.3917 27.0777 16.7483 24.6838 18.9601C19.6015 23.6555 19.1764 34.024 19.2012 39.7099C19.2045 40.4845 21.5815 43.7221 26.2574 44.2611C29.2114 44.6017 32.7982 44.3966 34.5511 43.7529C38.3182 42.37 43.4755 26.3331 42.4713 24.3622Z" fill="url(#paint2_linear_2334_12576)"/>
<path d="M43.4235 29.5109L37.2402 27.6055L36.0761 31.3832L42.2594 33.2886L43.4235 29.5109Z" fill="black"/>
<path d="M37.5861 29.1002L36.8555 28.875L36.4688 30.1297L37.1995 30.3549L37.5861 29.1002Z" fill="white"/>
<path fill-rule="evenodd" clip-rule="evenodd" d="M31.4093 39.2768C32.1505 40.2924 40.254 42.8602 40.1257 41.4387C40.0963 41.1107 32.8701 38.3783 32.1125 37.7654C31.4309 37.2144 30.667 38.2604 31.4093 39.2768Z" fill="#FFAE06"/>
<path fill-rule="evenodd" clip-rule="evenodd" d="M37.312 24.6936C36.5044 24.1347 33.7218 33.9438 31.2533 36.2393C30.8574 36.6074 30.4637 36.8323 30.0794 36.8567C30.0252 36.8578 29.9731 36.8832 29.9394 36.9268C29.9059 36.9701 29.8933 37.026 29.9063 37.0797C30.5339 38.8223 40.8676 42.1433 41.9138 42.0313C42.8962 41.9259 43.8825 41.2944 43.0851 40.949C42.2869 40.6031 37.1296 38.113 36.2998 36.1739C35.4709 34.2352 37.7979 25.0796 37.312 24.6936V24.6936Z" fill="#FFC606"/>
<path d="M25.1437 36.3151C24.4803 35.5594 24.7744 34.2167 25.8005 33.316C26.8266 32.4153 28.1961 32.2978 28.8595 33.0535C29.5228 33.8092 29.2288 35.152 28.2027 36.0527C27.1766 36.9533 25.807 37.0709 25.1437 36.3151Z" fill="#62EA89"/>
<path d="M44.178 29.752L23.1289 23.2656L22.7481 24.5014L43.7972 30.9878L44.178 29.752Z" fill="black"/>
<path d="M36.3933 27.3516L24.4141 23.6602L23.6366 26.1831L35.6158 29.8746L36.3933 27.3516Z" fill="black"/>
<path d="M35.9361 27.2131L26.2949 24.2422L25.1308 28.0199L34.772 30.9908L35.9361 27.2131Z" fill="black"/>
<path d="M35.4286 27.0598L27.5273 24.625L25.9766 29.6574L33.8778 32.0922L35.4286 27.0598Z" fill="black"/>
<path d="M42.8292 29.3355L37.9629 27.8359L36.4121 32.8684L41.2785 34.368L42.8292 29.3355Z" fill="black"/>
<path d="M34.5248 26.7795L28.7754 25.0078L26.8114 31.3811L32.5608 33.1528L34.5248 26.7795Z" fill="black"/>
<path d="M42.2735 29.1693L38.7324 28.0781L36.7685 34.4514L40.3095 35.5426L42.2735 29.1693Z" fill="black"/>
<path d="M27.159 25.8945L25.9043 25.5078L25.5177 26.7625L26.7724 27.1492L27.159 25.8945Z" fill="white"/>
<path d="M29.6688 26.6679L28.4141 26.2812L28.0274 27.536L29.2821 27.9226L29.6688 26.6679Z" fill="white"/>
<path d="M39.0471 29.5572L38.3164 29.332L37.9298 30.5868L38.6604 30.8119L39.0471 29.5572Z" fill="white"/>
<path d="M28.0262 27.539L26.7715 27.1523L26.3848 28.4071L27.6396 28.7937L28.0262 27.539Z" fill="white"/>
<path d="M37.9299 30.5923L37.1992 30.3672L36.8126 31.6219L37.5432 31.8471L37.9299 30.5923Z" fill="white"/>
<path d="M30.536 28.3085L29.2812 27.9219L28.8946 29.1766L30.1493 29.5632L30.536 28.3085Z" fill="white"/>
<path d="M39.3928 31.0377L38.6621 30.8125L38.2755 32.0672L39.0061 32.2924L39.3928 31.0377Z" fill="white"/>
<path d="M28.8934 29.1796L27.6387 28.793L27.252 30.0477L28.5067 30.4343L28.8934 29.1796Z" fill="white"/>
<path d="M38.2756 32.0689L37.5449 31.8438L37.1583 33.0985L37.8889 33.3236L38.2756 32.0689Z" fill="white"/>
<path d="M31.4032 29.9491L30.1484 29.5625L29.7618 30.8172L31.0165 31.2039L31.4032 29.9491Z" fill="white"/>
<path d="M39.7365 32.5181L39.0059 32.293L38.6192 33.5477L39.3499 33.7728L39.7365 32.5181Z" fill="white"/>
</g>
</g>
<circle cx="42.1747" cy="81.1142" r="11.7978" fill="#B6B6B6"/>
<path d="M39.0962 86.0352V84.7044L42.3524 81.2217C42.8054 80.7498 43.1216 80.3581 43.3009 80.0466C43.4802 79.7257 43.5699 79.4143 43.5699 79.1122C43.5699 78.7253 43.4519 78.4232 43.216 78.2062C42.9894 77.9891 42.6733 77.8805 42.2674 77.8805C41.8144 77.8805 41.4605 78.008 41.2056 78.2628C40.9602 78.5082 40.8281 78.8574 40.8092 79.3104H39.0679C39.0773 78.3666 39.3699 77.6257 39.9456 77.0877C40.5214 76.5403 41.3142 76.2666 42.324 76.2666C43.2773 76.2666 44.0229 76.512 44.5609 77.0028C45.1083 77.4841 45.382 78.1495 45.382 78.999C45.382 79.5275 45.2593 80.0277 45.0139 80.4997C44.7685 80.9621 44.3533 81.4907 43.7681 82.0853L41.5029 84.4495L45.382 84.4354V86.0352H39.0962Z" fill="white"/>
<defs>
<linearGradient id="paint0_linear_2334_12576" x1="78.9576" y1="24.4067" x2="96.2126" y2="70.4211" gradientUnits="userSpaceOnUse">
<stop stop-color="#3ADF68"/>
<stop offset="1" stop-color="#3EB860"/>
</linearGradient>
<linearGradient id="paint1_linear_2334_12576" x1="32.3603" y1="75.8011" x2="3.5988" y2="42.7166" gradientUnits="userSpaceOnUse">
<stop stop-color="#3ADF68"/>
<stop offset="1" stop-color="#3EB860"/>
</linearGradient>
<linearGradient id="paint2_linear_2334_12576" x1="33.499" y1="22.9639" x2="30.5369" y2="43.1267" gradientUnits="userSpaceOnUse">
<stop stop-color="#60E887"/>
<stop offset="1" stop-color="#3ADF68"/>
</linearGradient>
<clipPath id="clip0_2334_12576">
<rect x="3.41016" y="3.58594" width="77.5281" height="77.5281" rx="38.764" fill="white"/>
</clipPath>
<clipPath id="clip1_2334_12576">
<rect width="99.7753" height="99.7753" fill="white" transform="translate(-5.01758 -4.83984)"/>
</clipPath>
</defs>
</svg>
