<svg width="85" height="93" viewBox="0 0 85 93" fill="none" xmlns="http://www.w3.org/2000/svg">
<circle cx="42.1644" cy="42.35" r="40.4494" fill="#005BFF" stroke="white" stroke-width="3.37079"/>
<g clip-path="url(#clip0_2334_12584)">
<g clip-path="url(#clip1_2334_12584)">
<path d="M52.3143 60.25C51.1947 60.2503 49.9975 62.5845 49.475 64.9188C48.8615 67.6594 49.1779 70.4 51.6409 69.3629C51.3794 66.4862 52.3317 64.4586 53.0711 63.3529V60.6555C52.8294 60.3755 52.574 60.25 52.3144 60.25H52.3143Z" fill="black"/>
<path d="M72.5691 11.8549L72.1709 12.0199L71.7484 12.1956L71.0291 12.4939L70.2555 12.8149L69.3031 13.2101L68.8306 13.4055L68.7156 13.4539L68.5186 13.5357L68.496 13.5448L68.0675 13.7219L66.9379 14.1913L66.282 14.4624L65.4857 14.7925L64.1805 15.3346L63.028 15.8116L62.9994 15.8237L62.212 16.1507L60.6234 16.8094C60.6108 16.8214 60.5996 16.8352 60.5886 16.849C58.4799 15.8859 56.4743 15.1829 55.5686 15.0987C54.2903 14.9801 53.1656 15.2972 51.6997 16.4033C50.1886 17.5432 48.559 20.5288 47.4002 23.5197C46.6991 23.0766 46.1684 22.6392 45.6397 22.2588C44.4468 21.4007 43.6931 22.6015 44.6987 23.3528C45.1195 23.667 45.948 24.3195 46.8676 24.9939C46.3534 26.5271 45.993 27.9794 45.8711 29.0901C45.8495 29.2863 45.843 29.4763 45.847 29.6617C44.9055 29.4735 44.5327 30.4685 45.634 30.8558C45.7794 30.907 45.9409 30.9659 46.1132 31.0296C46.6788 32.5211 48.0136 33.5101 48.8929 33.9833C50.7716 34.994 52.448 35.9071 53.2381 37.3389C53.964 38.6546 53.0955 41.4043 51.9739 43.4617C50.8521 45.5198 49.7104 46.8941 45.6142 50.6509C45.5589 50.7018 45.5038 50.751 45.4485 50.8013L29.763 38.288C28.7476 37.4779 26.2954 38.3383 24.758 40.2655C23.2208 42.1926 23.1802 44.4567 24.1955 45.2668L25.1087 45.9951C25.0217 46.1032 24.9366 46.2118 24.8546 46.3216C24.8531 46.3234 24.8521 46.3252 24.8506 46.3272C23.7217 47.7359 22.8906 49.3203 22.822 50.8977C22.7011 53.6787 29.2606 60.242 35.8803 61.4682C35.8803 61.4682 35.9318 61.3614 36.031 61.1694C35.6059 62.1855 35.2526 63.3184 34.9881 64.6128C34.5089 66.9565 35.7475 69.1242 37.711 70.491C40.3889 72.3548 50.2418 75.6976 60.081 72.3238C60.407 73.0504 60.5692 73.9279 60.6865 75.0318C60.7114 75.265 60.9084 75.4381 61.1378 75.4381C61.1538 75.4381 61.17 75.4373 61.1864 75.4355C61.4359 75.4088 61.6166 75.1852 61.5901 74.9357C61.4674 73.782 61.2878 72.8247 60.9391 72.012C62.435 71.4383 63.9259 70.7048 65.3861 69.7802C65.3861 69.7802 65.3631 69.7364 65.3219 69.6566C65.8325 69.881 66.283 70.0901 66.6685 70.2832C68.845 71.3727 71.7248 71.8921 72.0956 70.2437C72.4748 68.5593 70.737 64.93 67.3923 61.0175C64.6709 57.8348 62.1493 56.0542 59.7386 55.0553C58.9826 52.004 58.5256 48.8683 58.7288 46.0689C59.0612 41.4877 64.6567 31.0386 66.0168 28.4117C66.8111 26.8775 67.3541 25.7947 67.618 24.8424C67.8517 24.853 68.0017 24.6806 68.1111 24.5759L68.7639 23.3872L69.3334 22.1834L70.1721 20.4102L70.7098 19.2761L71.603 17.3879L71.6562 17.2758L71.9393 16.6747L72.2876 15.9387V15.9372L72.4769 15.5405L74.6225 11.0039L72.5691 11.8549Z" fill="white"/>
<path d="M51.721 16.41C49.173 18.3323 46.2874 25.5021 45.8924 29.0967C45.6072 31.693 47.6972 33.3352 48.9142 33.99C50.7929 35.0007 52.4693 35.9138 53.2594 37.3456C53.9852 38.6615 53.1168 41.4111 51.9954 43.4685C50.8735 45.5265 49.7316 46.9008 45.6356 50.6576C40.932 54.9717 36.5311 57.1748 35.0093 64.6193C34.5303 66.9632 35.769 69.1311 37.7323 70.4978C40.8955 72.6995 54.0697 76.9656 65.4076 69.787C65.4076 69.787 58.0391 55.8718 58.7501 46.0756C59.0827 41.4944 64.6782 31.0454 66.0381 28.4184C67.7676 25.0777 68.3094 23.8757 67.3615 21.5058C66.4133 19.1356 57.7813 15.3089 55.59 15.1055C55.4246 15.0901 55.2618 15.082 55.1004 15.082C54.0149 15.082 52.9972 15.447 51.721 16.41Z" fill="url(#paint0_linear_2334_12584)"/>
<path d="M49.2567 26.5805C49.2567 26.5805 49.8973 29.4414 47.2949 30.1611L52.1338 32.4238L56.0149 28.9236L51.5691 25.7617L49.2567 26.5805Z" fill="#FB9B08"/>
<path d="M50.2012 31.1927C50.2676 31.072 51.5196 29.3532 53.1094 31.1927L53.2372 31.7875L51.9936 32.3898L50.2867 31.83L50.2012 31.1927Z" fill="#EF2A4C"/>
<path d="M55.8732 20.8231C54.9742 21.796 53.0256 23.8505 52.214 24.5487C51.4817 25.1788 50.0629 24.8705 48.644 24.1986C47.2578 23.5421 46.4583 22.8386 45.661 22.265C44.4681 21.4069 43.6622 22.571 44.7199 23.359C45.502 23.9417 47.6866 25.6923 49.2564 26.5838C50.6271 27.3625 52.6467 28.5099 54.5493 28.8181C54.8319 28.8638 54.9421 29.2125 54.7409 29.416C54.3065 29.8558 53.685 30.4746 53.2388 30.8768C52.4911 31.5506 51.9164 31.7021 50.6166 31.2791C49.5212 30.9227 47.1368 30.0644 46.0249 29.7078C44.9705 29.3697 44.4945 30.4539 45.6553 30.862C47.504 31.5122 51.7411 33.3283 52.7951 32.6571C54.1166 31.8155 55.139 30.7596 56.1744 29.66C57.2884 28.4771 56.1847 28.0846 55.5925 27.172C54.9694 26.2116 55.2195 25.851 55.2842 25.0819C55.3575 24.2126 56.3888 22.1451 56.8507 21.3533C57.4857 20.2645 56.8184 19.8006 55.8732 20.8231Z" fill="#FFD00F"/>
<path d="M42.431 59.8051L24.2168 45.2747C23.2015 44.4646 23.2419 42.2005 24.7793 40.2734C26.3167 38.3462 28.7687 37.486 29.7841 38.2961L47.9984 52.8265C46.9831 52.0164 44.9136 52.9221 43.3761 54.8492C41.8388 56.7762 41.4156 58.995 42.431 59.8051Z" fill="#2179F9"/>
<path d="M47.9695 52.7969C48.9648 53.5908 48.5253 55.7967 46.988 57.7236C45.4506 59.651 43.3975 60.5695 42.4023 59.7755C41.4071 58.9816 41.8466 56.7757 43.3841 54.8488C44.9213 52.9216 46.9745 52.0029 47.9695 52.7969Z" fill="#1B63CC"/>
<path d="M61.1588 75.444C60.9294 75.444 60.7325 75.2709 60.7077 75.0377C60.4101 72.2399 59.8297 70.892 57.0042 69.7861C53.9359 68.5852 50.3852 65.2153 49.5355 61.0981C48.8362 57.709 45.5034 56.9295 45.362 56.898C45.1174 56.8435 44.9627 56.6012 45.0166 56.3565C45.0708 56.112 45.3118 55.9572 45.5567 56.0105C45.7217 56.0464 49.6048 56.9383 50.4254 60.9145C51.2011 64.6744 54.5645 67.8556 57.3354 68.94C60.5628 70.2031 61.2857 71.8818 61.6111 74.9417C61.6376 75.1911 61.4569 75.4149 61.2074 75.4414C61.191 75.4433 61.1748 75.444 61.1588 75.444Z" fill="white"/>
<path d="M61.128 26.3565C61.1074 25.9311 61.0374 25.5488 60.8583 25.2481C60.6837 24.9472 60.4166 24.7257 60.0986 24.5829C59.7809 24.4409 59.4163 24.3791 59.0556 24.4104C58.6937 24.4416 58.3382 24.5653 58.0105 24.814L58.0072 24.8165C57.9451 24.8636 57.8567 24.8515 57.8099 24.7894C57.7775 24.7469 57.7732 24.6916 57.7938 24.646C57.9948 24.2049 58.441 23.8764 58.9269 23.7476C59.415 23.6155 59.9489 23.6566 60.4202 23.868C60.891 24.0744 61.2997 24.4805 61.472 24.9769C61.6495 25.4728 61.5838 25.9973 61.3857 26.413C61.3536 26.4805 61.2728 26.5091 61.2054 26.477C61.1587 26.4548 61.1307 26.4096 61.1283 26.3615L61.128 26.3565Z" fill="#012354"/>
<path d="M52.8422 21.5354C52.8263 21.2068 52.772 20.9113 52.6336 20.6788C52.4987 20.4464 52.2923 20.2753 52.0467 20.1649C51.8011 20.0551 51.5195 20.0074 51.2407 20.0316C50.961 20.0557 50.6864 20.1514 50.433 20.3434L50.4305 20.3455C50.3826 20.3817 50.3143 20.3723 50.278 20.3245C50.253 20.2916 50.2497 20.2488 50.2656 20.2137C50.4208 19.8728 50.7657 19.6189 51.1412 19.5195C51.5184 19.4173 51.9309 19.4491 52.2952 19.6125C52.6589 19.772 52.9748 20.0859 53.108 20.4693C53.2451 20.8525 53.1942 21.2579 53.0411 21.579C53.0163 21.6313 52.9539 21.6534 52.9018 21.6285C52.8658 21.6114 52.8441 21.5765 52.8423 21.5392L52.8422 21.5354Z" fill="#012354"/>
<path d="M74.6441 11.0117L72.4984 15.5483L72.3091 15.945V15.9466L71.9609 16.6825L71.6777 17.2836L71.6247 17.3957L70.7313 19.2839L70.1936 20.4181L69.3547 22.1912L68.7855 23.395L68.2804 24.463C68.1926 24.6488 68.0256 24.7882 67.8246 24.8316C67.7607 24.8452 67.6943 24.8534 67.6316 24.8502C67.5908 24.8472 67.5498 24.8441 67.5059 24.8381C67.4697 24.8335 67.4334 24.8275 67.3955 24.8214C67.391 24.8199 67.3849 24.8199 67.3804 24.8184C66.8458 24.7215 66.122 24.405 65.3316 23.8962C64.8486 23.5858 64.3381 23.2012 63.8356 22.7515V22.75C63.8295 22.7469 63.8234 22.7409 63.8174 22.7348C63.7642 22.6879 63.7129 22.6409 63.6614 22.5925V22.591C63.6567 22.5864 63.6507 22.5819 63.6463 22.5773C63.5887 22.5243 63.5311 22.4713 63.4752 22.4153C63.3434 22.2881 63.2117 22.1579 63.0828 22.0216C63.0132 21.9489 62.9467 21.8763 62.8801 21.8021C62.8135 21.7294 62.7468 21.6567 62.6832 21.5825V21.581C60.8889 19.5171 60.1136 17.3215 60.6451 16.8172L62.2335 16.1586L63.0209 15.8315L63.0497 15.8194L64.202 15.3424L65.5073 14.8003L66.3037 14.4702L66.9594 14.1992L68.089 13.7297L68.5175 13.5526L68.5401 13.5435L68.7371 13.4617L68.8522 13.4133L69.3246 13.2179L70.2771 12.8227L71.0508 12.5017L71.7701 12.2034L72.1925 12.0278L72.5906 11.8627L74.6441 11.0117Z" fill="#FF4576"/>
<path d="M28.293 43.4619C27.803 43.0629 27.7529 42.3667 28.1349 41.8998C28.5451 41.3986 29.258 41.3756 29.6911 41.7425C30.1463 42.0944 30.2577 42.807 29.8551 43.3025C29.4874 43.7552 28.796 43.8714 28.293 43.4619ZM30.2933 41.0183C29.361 40.2554 28.0797 40.4795 27.4057 41.3049C26.6973 42.1721 26.8154 43.4737 27.6978 44.1922C28.5846 44.9145 29.8876 44.7672 30.5828 43.8948C31.2727 43.0662 31.2074 41.766 30.2933 41.0183Z" fill="white"/>
<path d="M40.9058 54.617C40.9206 54.6005 40.9341 54.5828 40.948 54.5657C41.6193 53.738 42.2905 52.9103 42.9615 52.0828C42.9768 52.0641 42.9925 52.0456 43.0068 52.026C43.1111 51.8825 43.1329 51.7265 43.0638 51.5634C42.9949 51.4008 42.8684 51.3035 42.6936 51.2795C42.521 51.2558 42.3765 51.3139 42.2657 51.4506C42.1252 51.6243 41.984 51.7979 41.8431 51.9714C41.6617 52.1952 41.4804 52.419 41.2986 52.6425C41.283 52.6617 41.2634 52.6778 41.2375 52.7035C41.2286 52.6728 41.2222 52.6543 41.2182 52.6354C41.1903 52.5117 41.1632 52.3876 41.1358 52.2638C40.948 51.4202 40.7604 50.5766 40.5728 49.7332C40.5522 49.6408 40.5337 49.5477 40.5098 49.4563C40.4872 49.3703 40.3985 49.3306 40.3252 49.3719C40.3051 49.3834 40.2881 49.4025 40.2731 49.421C39.5801 50.2748 38.8875 51.1292 38.195 51.9836C38.1785 52.0038 38.1628 52.0251 38.1503 52.0478C38.0416 52.2455 38.0808 52.5117 38.2972 52.6634C38.4811 52.7919 38.7474 52.7686 38.8979 52.603C38.9318 52.5657 38.9635 52.5263 38.9951 52.4874C39.2922 52.1214 39.589 51.7552 39.8862 51.3893C39.9044 51.3668 39.9259 51.3471 39.9544 51.3174C39.9638 51.3492 39.9706 51.3675 39.9748 51.3864C40.0144 51.5633 40.0537 51.7403 40.0931 51.9173C40.2807 52.7629 40.4685 53.6084 40.6562 54.4539C40.6649 54.4933 40.6717 54.5333 40.6845 54.5713C40.7188 54.6726 40.8348 54.6959 40.9058 54.617Z" fill="white"/>
<path d="M33.0337 47.3646C33.0211 47.2311 32.957 47.1246 32.8541 47.0409C32.4631 46.7235 32.0718 46.4064 31.6807 46.0889C31.6613 46.0731 31.6433 46.0554 31.6245 46.0386C31.6263 46.0329 31.628 46.0271 31.6298 46.0213C31.6544 46.0142 31.6789 46.0062 31.7037 46.0001C32.6733 45.7604 33.643 45.5209 34.6128 45.2813C34.7281 45.2529 34.8433 45.2237 34.9587 45.1953C35.0146 45.1816 35.0533 45.1496 35.0653 45.0925C35.0766 45.0382 35.057 44.9938 35.0118 44.9609C35.0053 44.9562 34.9994 44.9508 34.9932 44.9456C34.2264 44.3239 33.4598 43.7022 32.693 43.0804C32.671 43.0627 32.6494 43.0442 32.6254 43.0297C32.4652 42.9323 32.2552 42.9458 32.1024 43.062C31.9505 43.1775 31.8822 43.3765 31.9313 43.5571C31.9602 43.6646 32.0231 43.7467 32.1091 43.8159C32.4277 44.0724 32.7447 44.3307 33.0623 44.5883C33.0795 44.6022 33.0974 44.6155 33.1129 44.6311C33.1216 44.6399 33.126 44.6529 33.1354 44.6691C33.1083 44.677 33.0876 44.684 33.0665 44.6891C31.987 44.9543 30.9074 45.2193 29.8278 45.4842C29.8082 45.4891 29.7882 45.493 29.7695 45.5001C29.6878 45.5315 29.6582 45.6219 29.7078 45.6938C29.7245 45.718 29.7481 45.7386 29.7713 45.7574C30.5941 46.4252 31.4171 47.0927 32.2405 47.7597C32.2684 47.7824 32.2988 47.8028 32.3302 47.8205C32.496 47.9146 32.6634 47.9125 32.8217 47.8087C32.979 47.7056 33.0512 47.5543 33.0337 47.3646Z" fill="white"/>
<path d="M37.15 50.0309C36.8619 50.0253 36.5892 49.9515 36.3268 49.8367C36.1198 49.746 35.9275 49.6307 35.7459 49.4951C35.5018 49.3131 35.2904 49.1001 35.1128 48.8537C34.955 48.6348 34.8318 48.3982 34.7624 48.1358C34.7221 47.9829 34.7026 47.8277 34.7218 47.6693C34.7533 47.4098 34.8931 47.2374 35.1405 47.1534C35.3074 47.0966 35.4794 47.0863 35.6537 47.1002C35.9633 47.1251 36.2521 47.2217 36.5272 47.3616C36.7141 47.4567 36.8907 47.5686 37.0007 47.6634C37.389 47.9793 37.6594 48.3071 37.8386 48.7059C37.9258 48.9004 37.9835 49.1031 37.987 49.3183C37.9883 49.4031 37.9798 49.4867 37.9573 49.5692C37.9096 49.7436 37.8013 49.8657 37.639 49.9411C37.4839 50.0133 37.3189 50.0342 37.15 50.0309ZM38.6756 50.2435C38.7984 50.0543 38.8734 49.8483 38.9076 49.6269C38.9615 49.2791 38.9174 48.9399 38.809 48.6081C38.626 48.0475 38.2984 47.58 37.8754 47.1766C37.7592 47.0659 37.6367 46.9614 37.5056 46.8665C37.3012 46.7182 37.089 46.5851 36.8614 46.4764C36.4626 46.2862 36.0448 46.1676 35.6011 46.1537C35.2511 46.1425 34.9143 46.1993 34.6007 46.3621C34.333 46.5009 34.1236 46.7013 33.9756 46.9649C33.8109 47.2585 33.7559 47.5762 33.7751 47.9085C33.7982 48.308 33.9228 48.6779 34.1119 49.0277C34.3498 49.4673 34.672 49.8366 35.0575 50.1523C35.2147 50.2822 35.4379 50.4332 35.6263 50.5384C35.9753 50.7335 36.3445 50.8726 36.7401 50.9371C37.0821 50.993 37.4228 50.9922 37.7585 50.8978C38.1419 50.7898 38.4558 50.5828 38.6756 50.2435Z" fill="white"/>
<path d="M29.7774 42.1256C27.2042 43.5966 23.0015 47.2691 22.8434 50.9031C22.7225 53.6838 29.2822 60.2472 35.9018 61.4735C35.9018 61.4735 36.9604 59.2723 38.7621 56.8692L35.4483 54.1018C35.0231 53.4204 35.8562 51.8305 36.1654 50.7843C37.5008 46.2676 33.2422 50.4585 33.2422 50.4585C37.9734 43.5854 32.2577 47.0812 32.2577 47.0812C32.8923 46.258 33.3091 45.7794 33.6529 45.3609C34.9502 43.7827 33.6135 43.2278 32.5608 43.7827C31.7251 44.2235 30.3388 45.1258 30.3388 45.1258C32.7271 42.9482 33.1503 41.3397 31.9257 41.3398C31.451 41.3398 30.7287 41.5815 29.7774 42.1256Z" fill="url(#paint1_linear_2334_12584)"/>
<path d="M51.5909 55.9161C50.5731 56.8167 47.887 59.1485 47.6621 62.5736C47.4886 65.2176 48.3167 65.5394 48.8441 65.1237C48.4639 66.921 49.7391 69.0878 50.7763 67.6401C50.7763 67.6401 50.4744 70.7619 52.7304 69.7101C52.5673 70.9777 53.8618 71.3323 54.8433 70.4174C56.0789 69.2659 57.1786 68.0518 59.4549 67.326C62.7283 68.5503 65.1918 69.5381 66.6895 70.288C68.8661 71.3775 71.7458 71.8968 72.1167 70.2485C72.4957 68.564 70.7582 64.9347 67.4133 61.0223C64.1425 57.1966 61.1595 55.3959 58.3118 54.5448C57.3132 54.2462 56.4642 54.1016 55.7054 54.1016C54.1179 54.1017 52.9257 54.7348 51.5909 55.9161Z" fill="url(#paint2_linear_2334_12584)"/>
<path d="M50.7776 67.6398C50.7776 67.6398 51.4691 63.7434 55.9511 61.364C55.1868 60.8155 54.4243 60.5822 53.7046 60.582C50.2382 60.5817 47.7575 65.9907 50.7776 67.6398Z" fill="url(#paint3_radial_2334_12584)"/>
<path d="M48.8643 65.1161C48.8643 65.1161 49.5405 59.8086 54.3883 58.1121C53.4393 57.2799 52.5687 56.9336 51.796 56.9336C48.3961 56.9328 46.8863 63.6324 48.8643 65.1161Z" fill="url(#paint4_radial_2334_12584)"/>
<path d="M27.0312 48.8937C27.0312 48.8937 28.147 46.8421 30.3393 45.1459C29.8853 43.9937 29.245 43.5469 28.5751 43.5469C26.2574 43.5466 23.5838 48.8937 27.0312 48.8937Z" fill="black"/>
<path d="M29.7967 49.9067C29.7967 49.9067 30.9301 48.0535 32.2717 47.1022C31.8203 46.1514 31.2247 45.7853 30.6284 45.7852C28.6728 45.785 26.7095 49.725 29.7967 49.9067Z" fill="black"/>
<path d="M32.087 52.4713C32.087 52.4713 32.5014 51.4046 33.2422 50.4964C32.8203 48.9855 32.2398 48.4337 31.7028 48.4336C30.2813 48.4333 29.1629 52.2991 32.087 52.4713Z" fill="black"/>
<path d="M52.7125 69.6959C52.7125 69.6959 53.5655 66.1677 57.8025 64.2428C57.0854 63.1515 56.2624 62.715 55.4431 62.7148C52.1662 62.7142 48.941 69.6959 52.7125 69.6959Z" fill="url(#paint5_radial_2334_12584)"/>
<path d="M31.8173 41.3125C31.4368 41.3125 30.9378 41.4679 30.3568 41.8228C28.5101 42.7733 26.296 44.4282 24.8769 46.327C23.465 48.2167 25.3608 49.5046 27.0316 48.8962C28.7546 46.7852 30.8194 44.9989 32.1272 43.2301C32.9401 42.1308 32.6908 41.3125 31.8176 41.3125H31.8173Z" fill="url(#paint6_linear_2334_12584)"/>
<path d="M31.9871 44.0875C30.1405 45.038 28.2467 46.8393 26.8278 48.7381C25.4158 50.628 28.4412 50.5739 30.112 49.9657C31.8354 47.8547 32.2073 47.1741 33.6532 45.5166C34.5979 44.4341 34.3307 43.543 33.4344 43.543C33.0498 43.5431 32.5622 43.7362 31.9871 44.0875Z" fill="url(#paint7_radial_2334_12584)"/>
<path d="M32.9073 46.6278C31.357 47.7744 31.0061 48.3159 29.1841 50.3027C27.5898 52.0413 30.4168 53.0824 32.0878 52.4739C33.4128 50.3027 33.6071 49.9294 34.7687 48.0617C35.4999 46.8857 35.2198 46.1289 34.3714 46.1289C33.9864 46.1289 33.4848 46.2847 32.9073 46.6278Z" fill="url(#paint8_linear_2334_12584)"/>
<path d="M34.1993 49.4174C32.8755 50.8192 32.6776 51.3812 31.2337 53.6578C30.2584 55.1959 32.6179 56.097 34.4462 55.687C34.986 55.566 35.4681 54.6702 35.8187 54.4665C35.1904 53.7355 35.5123 52.5444 36.3267 50.5011C36.7935 49.33 36.4799 48.6484 35.78 48.6484C35.3626 48.6486 34.8076 48.8912 34.1993 49.4174Z" fill="url(#paint9_radial_2334_12584)"/>
<path d="M63.8359 22.7489V22.7474C63.8299 22.7444 63.8238 22.7383 63.8177 22.7323C63.7646 22.6853 63.7131 22.6384 63.6618 22.5899V22.5884C62.941 20.417 62.7289 18.0806 63.05 15.8168L64.2024 15.3398C63.6571 18.2153 64.0509 21.2574 65.332 23.8937C64.8488 23.5833 64.3385 23.1986 63.8359 22.7489Z" fill="white"/>
<path d="M69.3551 22.1911L68.7857 23.3949C67.2505 20.6314 66.6143 17.3501 66.9597 14.1991L68.0893 13.7297C67.6516 16.5839 68.0999 19.5926 69.3551 22.1911Z" fill="white"/>
<path d="M72.3085 15.9446V15.9461L71.9602 16.6821L71.677 17.2832L71.6239 17.3953C71.0653 15.8265 70.873 14.1473 71.05 12.5013L71.7693 12.203L72.1917 12.0273C71.9799 13.322 72.0193 14.6666 72.3085 15.9446Z" fill="white"/>
<path d="M34.2305 17.4153C33.71 17.8036 33.2854 18.2886 32.9839 18.8261C31.4102 18.6317 29.7683 19.2725 28.7633 20.5131C28.3107 21.0719 28.0039 21.7319 27.8508 22.4254C26.5584 22.7599 25.3758 23.6548 24.7768 24.9207C23.8386 26.9033 24.3422 29.4598 26.0021 31.1377C26.1061 31.2429 26.2488 31.2867 26.3852 31.2683C26.48 31.2559 26.5713 31.2135 26.6444 31.1411C26.8227 30.9646 26.8243 30.677 26.6479 30.4987C25.2738 29.1097 24.8322 26.9272 25.5981 25.3094C26.021 24.4153 26.831 23.7451 27.7374 23.4167C27.7298 24.1321 27.8817 24.8494 28.2006 25.5001C28.7179 26.554 29.9008 27.4649 31.0749 27.0774C32.0133 26.7676 32.5838 25.665 32.3461 24.6194C32.1544 23.7746 31.4866 23.0236 30.5605 22.6105C30.0154 22.3671 29.4258 22.2637 28.8339 22.2827C28.9709 21.847 29.1841 21.4373 29.4694 21.0849C30.2117 20.1682 31.4351 19.6508 32.6156 19.7074C32.5693 19.8696 32.5339 20.0343 32.5099 20.2001C32.4033 20.9355 32.6353 21.7519 33.087 22.2316C33.3992 22.5631 33.8072 22.7259 34.2363 22.6897C34.6672 22.6539 35.0547 22.4044 35.3044 22.0059C35.5979 21.5371 35.6618 20.9383 35.471 20.4433C35.2319 19.8228 34.6738 19.3272 33.9127 19.0468C34.1383 18.708 34.4295 18.4002 34.7737 18.1434C35.5204 17.5863 36.426 17.3365 37.259 17.4579C37.507 17.4939 37.7379 17.3224 37.7743 17.074C37.8103 16.8259 37.6383 16.5951 37.3901 16.5591C37.209 16.5326 37.0258 16.5195 36.8415 16.5195C35.9368 16.5195 35.0099 16.8336 34.2305 17.4153ZM33.7484 21.6088C33.4851 21.3292 33.3421 20.7915 33.4089 20.3305C33.4316 20.1755 33.4671 20.0215 33.5149 19.8702C34.0669 20.0548 34.4737 20.382 34.6233 20.7701C34.7106 20.9966 34.675 21.2993 34.5344 21.5236C34.4777 21.6141 34.349 21.7687 34.1604 21.7845C34.1464 21.7855 34.1323 21.7861 34.1185 21.7861C33.9819 21.7861 33.8605 21.728 33.7484 21.6088ZM29.0165 25.0997C28.7315 24.5195 28.6164 23.8585 28.6606 23.2071C29.1877 23.1574 29.715 23.2281 30.1905 23.4403C30.8567 23.7374 31.3314 24.2536 31.4603 24.8208C31.5923 25.4019 31.279 26.0532 30.7901 26.2146C30.6974 26.2452 30.6031 26.2596 30.508 26.2596C29.9238 26.2595 29.3199 25.7183 29.0165 25.0997Z" fill="url(#paint10_linear_2334_12584)"/>
<path d="M11.335 15.2682C9.78599 16.5488 9.37367 18.967 10.2704 20.7414C9.50601 21.9384 9.33809 23.5501 9.9412 24.9297C10.3967 25.9711 11.2542 26.8298 12.3063 27.3697C12.2888 28.147 12.4677 28.9162 12.8328 29.5654C13.8034 31.2914 15.9422 32.3285 18.1194 32.1621C18.2317 32.1535 18.3442 32.1417 18.4566 32.1267C18.7052 32.0934 18.8799 31.8647 18.8465 31.6161C18.8132 31.3674 18.5854 31.1938 18.3359 31.2263C16.4054 31.4837 14.4674 30.6188 13.6247 29.1202C13.3935 28.7089 13.2579 28.2345 13.2221 27.743C13.6662 27.88 14.1312 27.9633 14.6044 27.985C15.2985 28.0171 16.2903 27.9265 17.0742 27.3148C17.8831 26.6841 18.2172 25.6063 17.8689 24.7521C17.666 24.2551 17.2703 23.8799 16.7245 23.6672C16.0284 23.3958 15.163 23.4314 14.4651 23.7604C13.5513 24.1908 12.8609 25.0138 12.5213 26.0777C12.4868 26.1853 12.4566 26.2937 12.4304 26.4031C11.6953 25.9583 11.1037 25.3202 10.7736 24.5656C10.3561 23.6107 10.4138 22.4876 10.8446 21.5848C11.481 22.2951 12.3156 22.6878 13.1052 22.6413C13.1156 22.6407 13.1262 22.6399 13.1368 22.6392C13.6719 22.5983 14.1977 22.3209 14.5478 21.8928C14.8594 21.5124 14.9961 21.0567 14.933 20.6101C14.8291 19.873 14.1713 19.2387 13.3691 19.1016C12.7333 18.9932 12.0286 19.1683 11.385 19.5956C11.2184 19.7061 11.0623 19.8294 10.9173 19.9641C10.4153 18.6015 10.7831 16.9033 11.9139 15.9686C12.1071 15.8087 12.1345 15.5223 11.9746 15.3291C11.8849 15.2202 11.7551 15.1641 11.6243 15.1641C11.5223 15.1641 11.4197 15.1983 11.335 15.2682ZM11.4388 20.8824C11.4157 20.8542 11.3932 20.8256 11.3712 20.7968C11.5251 20.6283 11.6977 20.4785 11.8874 20.3527C12.1479 20.1796 12.6671 19.9033 13.2159 19.9972C13.6326 20.0683 13.984 20.3865 14.0332 20.7368C14.0702 20.9967 13.931 21.2122 13.8447 21.3176C13.6485 21.5573 13.3491 21.7161 13.0517 21.7344C13.0266 21.7358 13.0013 21.7365 12.976 21.7365C12.4509 21.7365 11.8817 21.4219 11.4388 20.8824ZM14.646 27.0775C14.1721 27.0557 13.7089 26.9609 13.2737 26.8045C13.3017 26.6528 13.3393 26.5022 13.3865 26.3542C13.6488 25.5333 14.1694 24.904 14.8523 24.5822C15.3252 24.3596 15.9302 24.3328 16.3945 24.5135C16.6091 24.5974 16.8933 24.7662 17.0274 25.0954C17.2223 25.5727 17.0022 26.2189 16.5153 26.5984C16.0172 26.9872 15.3648 27.0822 14.8467 27.0822C14.7772 27.0822 14.7099 27.0804 14.646 27.0775Z" fill="url(#paint11_linear_2334_12584)"/>
<path d="M11.3092 44.2537C11.6628 44.8808 12.248 45.4229 12.9589 45.7413C13.7385 46.0924 14.7898 46.0652 15.1315 45.4166C15.3417 45.0181 15.2 44.4242 14.8093 44.0644C14.4376 43.7221 13.849 43.5419 13.1952 43.5697C12.5195 43.5988 11.8616 43.8517 11.3092 44.2537ZM11.1276 49.832C11.3408 50.0128 11.5754 50.1671 11.8277 50.2871C12.3272 50.5267 12.811 50.5909 13.1891 50.4716C13.5767 50.3494 13.8628 49.9819 13.8273 49.6528C13.7874 49.2826 13.3581 49.0037 12.9824 48.9748C12.5727 48.9437 12.107 49.1068 11.5987 49.4592C11.4338 49.5735 11.2765 49.6981 11.1276 49.832ZM8.81239 53.894C8.64416 53.8247 8.52727 53.6575 8.53135 53.4646C8.55816 52.1487 9.05149 50.8557 9.8775 49.8345C9.09692 48.8217 8.73653 47.4819 8.99516 46.2127C9.16718 45.3674 9.60372 44.6009 10.2055 43.998C10.1199 43.7336 10.065 43.4619 10.0435 43.1871C9.87053 40.9697 11.7981 39.2038 13.6995 38.6682C15.4897 38.1641 17.6336 38.2294 19.5817 38.8473C19.8235 38.9234 19.9533 39.1787 19.8773 39.4178C19.8015 39.657 19.5461 39.7893 19.307 39.7135C17.5237 39.1478 15.5698 39.0855 13.9458 39.5428C12.3705 39.9865 10.8189 41.4445 10.9493 43.1162C10.9558 43.2009 10.967 43.2852 10.9824 43.3694C11.6288 42.9521 12.3781 42.6953 13.1562 42.6621C14.063 42.6232 14.8681 42.8838 15.4248 43.3961C16.1264 44.0422 16.3412 45.07 15.9354 45.8403C15.3403 46.9696 13.7666 47.0968 12.5873 46.5705C11.76 46.1996 11.0777 45.6011 10.627 44.8901C10.262 45.3259 9.99772 45.8415 9.88522 46.3939C9.69231 47.3415 9.9526 48.3642 10.5159 49.1607C10.6943 48.9999 10.8831 48.85 11.081 48.7125C11.765 48.2382 12.4279 48.0216 13.051 48.0688C13.9244 48.1351 14.6461 48.7741 14.7307 49.5552C14.8131 50.3174 14.2678 51.0839 13.4623 51.3379C12.6956 51.5797 11.939 51.3466 11.437 51.1074C11.0992 50.9464 10.788 50.7411 10.5077 50.5002C9.85145 51.3501 9.46169 52.4076 9.43958 53.4832C9.43443 53.734 9.22699 53.9332 8.97623 53.9281C8.91809 53.9269 8.86297 53.9149 8.81239 53.894Z" fill="url(#paint12_linear_2334_12584)"/>
<path d="M32.6953 33.7731C33.3232 34.0993 33.9908 34.4277 34.7166 34.4094C35.3147 34.3943 35.9539 34.1511 36.2896 33.629C36.4804 33.3322 36.5606 32.9904 36.5811 32.6414C36.6015 32.2945 36.5658 31.9388 36.6327 31.5959C36.7289 31.1037 37.1188 30.6529 37.6038 30.5079C37.7996 30.4493 37.951 30.2907 37.914 30.0713C37.8833 29.8889 37.6746 29.7022 37.4775 29.7611C36.8679 29.9434 36.3786 30.3336 36.0827 30.8998C35.7687 31.5009 35.8968 32.1449 35.8067 32.7885C35.7319 33.3234 35.31 33.6033 34.7978 33.6517C34.1521 33.7127 33.5211 33.3537 32.9695 33.0672C32.788 32.973 32.5475 33.1072 32.4794 33.283C32.3988 33.4912 32.5131 33.6785 32.6953 33.7731Z" fill="#FF4576"/>
<path d="M22.5591 16.7682C22.0407 16.1368 21.9846 15.166 22.334 14.4437C22.5367 14.0243 22.8441 13.7536 23.221 13.4922C23.6816 13.1729 24.1162 12.8072 24.2393 12.2312C24.3795 11.574 24.1536 10.9153 23.9027 10.3149C23.824 10.1266 23.6489 9.99346 23.4353 10.0537C23.2566 10.1041 23.0947 10.3314 23.1742 10.5213C23.3706 10.9918 23.6304 11.5716 23.4945 12.0914C23.367 12.5791 22.8521 12.8082 22.4843 13.0923C21.6813 13.7124 21.2664 14.7374 21.377 15.7455C21.441 16.3285 21.6548 16.8535 22.0275 17.3073C22.1574 17.4654 22.4298 17.4384 22.5628 17.3035C22.719 17.1453 22.6894 16.9266 22.5591 16.7682Z" fill="#FF4576"/>
</g>
</g>
<circle cx="42.1649" cy="81.1142" r="11.7978" fill="#CD7F32"/>
<path d="M42.0858 76.2666C43.0579 76.2666 43.8177 76.4884 44.3651 76.932C44.922 77.3756 45.2004 77.9844 45.2004 78.7583C45.2004 79.3152 45.0494 79.7871 44.7474 80.174C44.4454 80.5516 44.0254 80.8017 43.4874 80.9244V80.9527C44.1386 81.0376 44.6388 81.2877 44.9881 81.703C45.3467 82.1089 45.526 82.6563 45.526 83.3453C45.526 84.2513 45.2287 84.9639 44.6341 85.483C44.049 85.9927 43.2326 86.2475 42.1849 86.2475C41.1184 86.2475 40.2878 85.9927 39.6932 85.483C39.0986 84.9639 38.7919 84.2372 38.773 83.3028H40.5568C40.5946 83.7275 40.7503 84.0579 41.024 84.2938C41.3072 84.5203 41.6941 84.6336 42.1849 84.6336C43.1948 84.6336 43.6997 84.1522 43.6997 83.1895C43.6997 82.6799 43.5393 82.3165 43.2184 82.0994C42.8975 81.8823 42.3595 81.7785 41.6045 81.788H41.2222V80.3722H41.6045C42.7654 80.3722 43.3458 79.9381 43.3458 79.0698C43.3458 78.6922 43.2326 78.3997 43.006 78.192C42.7795 77.9844 42.4586 77.8805 42.0433 77.8805C41.6186 77.8805 41.2836 77.9844 41.0382 78.192C40.7928 78.3902 40.6654 78.6734 40.6559 79.0414H38.9004C38.9099 78.1731 39.1977 77.4936 39.764 77.0028C40.3303 76.512 41.1042 76.2666 42.0858 76.2666Z" fill="white"/>
<defs>
<linearGradient id="paint0_linear_2334_12584" x1="58.3517" y1="66.577" x2="44.5242" y2="49.2425" gradientUnits="userSpaceOnUse">
<stop stop-color="#3BC263"/>
<stop offset="1" stop-color="#44E071"/>
</linearGradient>
<linearGradient id="paint1_linear_2334_12584" x1="38.5065" y1="60.461" x2="35.7353" y2="55.1246" gradientUnits="userSpaceOnUse">
<stop stop-color="#49C76C"/>
<stop offset="1" stop-color="#44E071"/>
</linearGradient>
<linearGradient id="paint2_linear_2334_12584" x1="70.0384" y1="68.6161" x2="60.0293" y2="67.1546" gradientUnits="userSpaceOnUse">
<stop stop-color="#3BC263"/>
<stop offset="1" stop-color="#4AE375"/>
</linearGradient>
<radialGradient id="paint3_radial_2334_12584" cx="0" cy="0" r="1" gradientUnits="userSpaceOnUse" gradientTransform="translate(53.4332 64.7015) rotate(-153.21) scale(3.78974)">
<stop stop-color="#3BC263"/>
<stop offset="1" stop-color="#4AE375" stop-opacity="0"/>
</radialGradient>
<radialGradient id="paint4_radial_2334_12584" cx="0" cy="0" r="1" gradientUnits="userSpaceOnUse" gradientTransform="translate(53.0237 63.0934) rotate(-55.1332) scale(5.09802)">
<stop stop-color="#3BC263"/>
<stop offset="1" stop-color="#4AE375"/>
</radialGradient>
<radialGradient id="paint5_radial_2334_12584" cx="0" cy="0" r="1" gradientUnits="userSpaceOnUse" gradientTransform="translate(55.9036 67.7607) rotate(-139.741) scale(3.55454)">
<stop stop-color="#3BC263"/>
<stop offset="1" stop-color="#4AE375"/>
</radialGradient>
<linearGradient id="paint6_linear_2334_12584" x1="29.4765" y1="46.4389" x2="26.2207" y2="46.7213" gradientUnits="userSpaceOnUse">
<stop stop-color="#44CB67"/>
<stop offset="1" stop-color="#44E071"/>
</linearGradient>
<radialGradient id="paint7_radial_2334_12584" cx="0" cy="0" r="1" gradientUnits="userSpaceOnUse" gradientTransform="translate(28.2203 49.6772) rotate(-159.499) scale(8.73957 8.73957)">
<stop stop-color="#44E071"/>
<stop offset="0.17" stop-color="#44E071"/>
<stop offset="1" stop-color="#44CB67"/>
</radialGradient>
<linearGradient id="paint8_linear_2334_12584" x1="34.3447" y1="48.7247" x2="31.8131" y2="49.414" gradientUnits="userSpaceOnUse">
<stop stop-color="#44CB67"/>
<stop offset="1" stop-color="#44E071"/>
</linearGradient>
<radialGradient id="paint9_radial_2334_12584" cx="0" cy="0" r="1" gradientUnits="userSpaceOnUse" gradientTransform="translate(33.1971 54.0727) rotate(167.894) scale(6.90602)">
<stop stop-color="#44E071"/>
<stop offset="0.43" stop-color="#44E071"/>
<stop offset="1" stop-color="#44CB67"/>
</radialGradient>
<linearGradient id="paint10_linear_2334_12584" x1="27.7168" y1="31.8668" x2="33.3119" y2="22.023" gradientUnits="userSpaceOnUse">
<stop stop-color="#2179F8"/>
<stop offset="1" stop-color="#FF4576"/>
</linearGradient>
<linearGradient id="paint11_linear_2334_12584" x1="18.1772" y1="31.1117" x2="13.8448" y2="19.3751" gradientUnits="userSpaceOnUse">
<stop stop-color="#2179F9"/>
<stop offset="1" stop-color="#FF4576"/>
</linearGradient>
<linearGradient id="paint12_linear_2334_12584" x1="19.9217" y1="37.0214" x2="11.1106" y2="50.7832" gradientUnits="userSpaceOnUse">
<stop stop-color="#2179F9"/>
<stop offset="1" stop-color="#FF4576"/>
</linearGradient>
<clipPath id="clip0_2334_12584">
<rect x="3.40039" y="3.58594" width="77.5281" height="77.5281" rx="38.764" fill="white"/>
</clipPath>
<clipPath id="clip1_2334_12584">
<rect width="77.5281" height="77.5281" fill="white" transform="translate(3.40039 3.58594)"/>
</clipPath>
</defs>
</svg>
