<svg width="34" height="34" viewBox="0 0 34 34" fill="none" xmlns="http://www.w3.org/2000/svg">
<circle cx="17.0375" cy="16.9438" r="16.8539" fill="#005BFF"/>
<g clip-path="url(#clip0_2334_12606)">
<path fill-rule="evenodd" clip-rule="evenodd" d="M3.60748 16.7246C3.23623 16.7558 3.10018 18.1754 3.24254 20.2574C3.32303 21.4346 3.95459 23.2278 4.88874 24.4576C7.2948 27.6246 12.0743 27.5634 12.5344 27.017C13.4348 25.9466 9.94329 25.6353 9.03474 23.3001C8.16824 21.0728 9.22851 18.5841 9.41881 18.1302C9.57533 17.7569 8.53925 17.928 8.00614 19.0748C7.92424 17.7303 8.17064 14.4955 7.92697 14.3545C7.43047 14.0673 7.05392 15.6696 6.76368 17.1959C6.66596 15.8895 7.12934 13.7695 6.66058 13.8525C6.24213 13.9265 5.69489 15.8835 5.29863 17.8257C5.43492 16.1671 5.26449 15.0729 4.8776 15.145C4.43974 15.2264 4.20961 17.5316 4.11362 18.4936C3.91682 17.8169 3.93231 16.6973 3.60748 16.7246V16.7246Z" fill="url(#paint0_linear_2334_12606)"/>
<path fill-rule="evenodd" clip-rule="evenodd" d="M27.6769 34.6442C27.5367 35.9018 26.848 40.0376 22.9364 40.9289C9.20857 44.057 9.05009 26.2273 12.0496 22.0285C15.4985 17.2008 16.9157 18.547 18.0747 13.4314C18.7972 13.1418 22.9943 9.44906 23.6615 9.90635C22.7376 20.9752 17.3861 23.9042 20.9985 27.6995C21.4651 28.1898 23.4412 32.7822 25.4787 34.3226C26.0421 34.454 26.3363 33.9712 26.2932 33.6286C26.7177 34.1603 26.6408 34.0843 26.8792 34.7639C27.1902 34.4281 27.4299 34.3806 27.7029 34.4051C27.6979 34.4878 27.6892 34.5673 27.6769 34.6442V34.6442Z" fill="url(#paint1_linear_2334_12606)"/>
<path fill-rule="evenodd" clip-rule="evenodd" d="M19.4216 4.3464C20.1146 4.22042 20.4971 3.82209 20.2073 3.22807C20.4827 3.20988 20.7035 3.60024 20.9329 4.0691C21.0819 3.80109 21.2205 3.64919 20.8984 2.93133C21.3759 3.17488 21.5923 3.61953 21.7439 3.95349C21.9934 3.54232 22.1667 3.43946 22.0832 2.3757C22.8836 2.72348 23.6358 6.17673 23.7474 7.99641C23.8573 9.78798 23.5955 12.4302 22.3504 13.3832C21.1053 14.3362 17.3913 15.6015 16.2769 13.7143C15.4196 12.2625 14.4947 5.89739 15.0533 5.21577C15.3478 4.85651 16.8464 4.52092 18.7093 4.38726C18.7136 4.38612 18.7177 4.38518 18.722 4.38424L18.7393 4.38508C18.9679 4.36897 19.1963 4.35598 19.4216 4.3464V4.3464Z" fill="url(#paint2_linear_2334_12606)"/>
<path d="M20.0018 9.54014C19.2373 9.59791 18.5129 8.84902 18.3837 7.86743C18.2547 6.88585 18.7698 6.04343 19.5344 5.98578C20.2989 5.928 21.0233 6.6769 21.1525 7.65848C21.2815 8.63994 20.7664 9.48248 20.0018 9.54014Z" fill="white"/>
<path fill-rule="evenodd" clip-rule="evenodd" d="M13.9361 11.5803C13.9361 11.5803 15.9137 11.681 16.0842 11.9639C16.2547 12.2468 16.8965 13.6834 16.6225 13.9219C16.3486 14.1604 15.5688 14.2672 15.5255 14.3951C15.4822 14.523 16.6642 14.3976 16.6642 14.3976L18.8446 13.9017L19.4199 13.4981L19.506 12.0413L17.9331 11.0984L14.9104 11.1541L13.9361 11.5803Z" fill="#FFC606"/>
<path d="M20.0222 9.06408C19.468 9.10875 18.9419 8.53855 18.8472 7.7903C18.7524 7.04217 19.1249 6.39943 19.6791 6.35463C20.2332 6.30996 20.7593 6.88028 20.854 7.62841C20.9488 8.37654 20.5764 9.0194 20.0222 9.06408Z" fill="#032B44"/>
<path fill-rule="evenodd" clip-rule="evenodd" d="M14.6253 11.4463C14.6253 11.4463 16.3022 11.5666 16.4727 11.8495C16.6431 12.1324 17.3201 13.7034 17.0461 13.942C16.7721 14.1805 15.9923 14.2873 15.949 14.4152C15.9057 14.5431 17.0437 14.233 17.0437 14.233L19.6306 13.5468L20.1137 12.8065L20.3664 12.1482L19.7376 10.3173L15.334 11.1741L14.6253 11.4463V11.4463Z" fill="#FF9A06"/>
<path fill-rule="evenodd" clip-rule="evenodd" d="M18.8486 12.7254C19.3426 12.4646 19.8405 12.4238 19.9597 12.6344C20.0789 12.8449 19.7746 13.2277 19.2805 13.4885C18.7865 13.7493 18.6566 13.9703 18.5374 13.7598C18.4182 13.5492 18.3546 12.9862 18.8486 12.7254V12.7254Z" fill="#E92A44"/>
<path fill-rule="evenodd" clip-rule="evenodd" d="M17.3026 6.03604C17.8735 5.84273 18.2272 9.99086 19.651 9.80491C20.8347 9.65031 20.5654 12.6007 19.8762 13.4779C19.3161 14.1908 14.5193 14.6653 15.6879 14.2802C16.8343 13.9024 18.8211 13.7235 19.4021 13.1166C20.1469 12.3387 19.9617 10.4591 19.6024 10.4081C18.9427 11.3179 13.6915 11.874 13.3554 11.7121C12.9473 11.5157 12.4161 10.984 12.8033 10.9616C13.191 10.9392 16.0166 10.9123 16.6253 10.2227C17.2334 9.53314 17.0438 6.1237 17.3026 6.03604V6.03604Z" fill="#FFC606"/>
<path fill-rule="evenodd" clip-rule="evenodd" d="M17.3011 6.05583C17.7986 5.92431 17.8675 10.299 17.5404 10.4322C16.12 11.011 12.415 10.9838 12.8022 10.9615C13.1899 10.939 16.0155 10.9121 16.6242 10.2225C17.2323 9.53299 17.0423 6.14349 17.3011 6.05583Z" fill="#FFE03C"/>
<path d="M16.2091 9.8282C16.0503 9.84761 15.8934 9.7855 15.7514 9.661C15.4661 9.41088 15.2409 8.90908 15.1809 8.31057C15.0911 7.4141 15.4057 6.64022 15.8837 6.58203C16.3617 6.52372 16.8221 7.20319 16.912 8.09966C17.0018 8.99603 16.6871 9.77 16.2091 9.8282Z" fill="white"/>
<path d="M16.3068 9.35926C15.9421 9.39926 15.5922 8.92296 15.5255 8.29526C15.4588 7.66766 15.7004 7.12643 16.0652 7.08633C16.43 7.04633 16.7798 7.52273 16.8465 8.15033C16.9133 8.77793 16.6716 9.31927 16.3068 9.35926Z" fill="#032B44"/>
<path fill-rule="evenodd" clip-rule="evenodd" d="M19.0719 37.2626C18.8068 37.0976 19.5743 36.2993 19.8816 35.6996C19.1593 36.3385 17.4284 37.8694 17.0408 37.6792C16.6983 37.5112 17.3075 36.6255 18.5307 35.5072C16.9186 36.6821 15.1818 37.7817 14.814 37.5971C14.4019 37.3904 16.185 36.1256 16.9927 35.1282C15.7419 36.0635 14.3742 37.0045 14.191 36.5152C14.1011 36.275 16.4719 34.0831 17.3173 33.0673C16.1382 33.5909 15.2358 33.1251 15.6066 32.945C16.0576 32.726 18.543 31.5347 19.3884 29.4363C20.2747 27.2363 17.8328 25.0266 19.2393 24.7668C19.9576 24.6346 23.6294 27.3081 23.319 30.9593C23.1984 32.377 22.4675 34.0289 21.734 34.9233C20.4366 36.5052 19.375 37.4512 19.0719 37.2626" fill="url(#paint3_linear_2334_12606)"/>
</g>
<defs>
<linearGradient id="paint0_linear_2334_12606" x1="11.3763" y1="29.2481" x2="9.86496" y2="14.3727" gradientUnits="userSpaceOnUse">
<stop stop-color="#3ADF68"/>
<stop offset="1" stop-color="#3EB860"/>
</linearGradient>
<linearGradient id="paint1_linear_2334_12606" x1="19.9486" y1="13.5093" x2="21.3999" y2="41.4401" gradientUnits="userSpaceOnUse">
<stop stop-color="#3FE06C"/>
<stop offset="0.4" stop-color="#59E681"/>
<stop offset="1" stop-color="#3DC062"/>
</linearGradient>
<linearGradient id="paint2_linear_2334_12606" x1="19.6409" y1="3.1934" x2="19.3971" y2="14.7256" gradientUnits="userSpaceOnUse">
<stop stop-color="#60E887"/>
<stop offset="1" stop-color="#3EB860"/>
</linearGradient>
<linearGradient id="paint3_linear_2334_12606" x1="19.1178" y1="25.0593" x2="17.6691" y2="36.0469" gradientUnits="userSpaceOnUse">
<stop stop-color="#3ADF68"/>
<stop offset="1" stop-color="#3EB860"/>
</linearGradient>
<clipPath id="clip0_2334_12606">
<rect x="0.183594" y="0.0898438" width="33.7079" height="33.7079" rx="16.8539" fill="white"/>
</clipPath>
</defs>
</svg>
