<svg width="34" height="35" viewBox="0 0 34 35" fill="none" xmlns="http://www.w3.org/2000/svg">
<circle cx="17.0375" cy="17.2485" r="16.8539" fill="#005BFF"/>
<g clip-path="url(#clip0_2334_12617)">
<path fill-rule="evenodd" clip-rule="evenodd" d="M22.8029 12.4023L21.5169 13.5908L22.1873 16.3638L23.5737 15.4369L22.8029 12.4023V12.4023Z" fill="#F91155"/>
<path fill-rule="evenodd" clip-rule="evenodd" d="M25.8536 15.5008C25.8199 15.6607 25.7725 15.8195 25.7099 15.9736C27.5638 15.4888 27.6665 16.0309 26.1836 16.7948C28.3004 16.5844 27.1091 17.2446 26.7526 17.9423C28.0404 17.6373 27.8007 18.1981 26.5303 19.4642C25.8492 20.143 24.7224 21.5617 22.6584 22.1535C20.6599 22.7264 14.153 23.434 13.8481 22.5819C13.4595 21.4953 19.1274 20.9749 20.756 19.8177C21.957 18.9643 21.9558 16.183 21.7384 15.4797C21.5253 14.7901 21.8915 14.8722 22.1907 15.2288C22.3182 15.3808 22.3995 15.7754 22.5188 16.1468L22.5939 16.362C22.8046 16.9033 23.1438 17.2665 23.9169 16.4867C23.963 16.4401 24.0076 16.3936 24.0505 16.3469L24.5437 16.3418L25.8536 15.5008V15.5008Z" fill="url(#paint0_linear_2334_12617)"/>
<path fill-rule="evenodd" clip-rule="evenodd" d="M24.7135 15.4388C25.3765 14.25 25.1603 13.3057 25.3332 13.3177C25.7175 13.3444 26.0634 14.4024 25.8644 15.4382L24.7135 15.4388V15.4388Z" fill="url(#paint1_linear_2334_12617)"/>
<path fill-rule="evenodd" clip-rule="evenodd" d="M12.7021 13.7559C12.1438 13.5322 8.95422 10.9375 8.43862 11.2908C9.15246 19.8436 11.8893 20.8622 10.4963 25.0394C10.3604 25.4467 9.27148 26.8985 7.97408 28.3942C10.8446 29.9589 16.2764 29.3455 18.2972 28.5236C19.1317 25.1129 18.5033 22.1868 17.4109 20.6575C14.746 16.9271 13.5976 17.7087 12.7021 13.7559V13.7559Z" fill="url(#paint2_linear_2334_12617)"/>
<path fill-rule="evenodd" clip-rule="evenodd" d="M27.2488 15.8543C27.0823 15.6275 26.1754 15.775 25.2186 16.2606C24.2617 16.7464 23.6144 17.3878 23.7809 17.6146C23.9474 17.8414 24.8657 17.5703 25.8227 17.0845C26.7797 16.5987 27.4152 16.081 27.2488 15.8543V15.8543Z" fill="#3ADF68"/>
<path fill-rule="evenodd" clip-rule="evenodd" d="M27.5046 16.7214C27.3382 16.4947 26.4313 16.6421 25.4745 17.1278C24.5175 17.6136 23.8702 18.2549 24.0368 18.4818C24.2032 18.7086 25.1216 18.4375 26.0786 17.9517C27.0355 17.4659 27.6711 16.9482 27.5046 16.7214V16.7214Z" fill="#3ADF68"/>
<path fill-rule="evenodd" clip-rule="evenodd" d="M27.6667 17.8347C27.5003 17.6079 26.5934 17.7554 25.6366 18.2411C24.6796 18.7268 24.0323 19.3682 24.1989 19.5951C24.3653 19.8219 25.2837 19.5508 26.2407 19.065C27.1976 18.5792 27.8332 18.0615 27.6667 17.8347V17.8347Z" fill="#3ADF68"/>
<path fill-rule="evenodd" clip-rule="evenodd" d="M7.51542 9.50928C7.55792 9.74737 7.61169 9.98545 7.67423 10.2217C7.71491 10.3864 7.75386 10.529 7.78955 10.6434C7.80742 10.7007 7.82615 10.7537 7.84569 10.8026C8.02362 11.3513 8.28936 12.779 9.13079 13.518C9.91889 14.2101 11.2699 14.2356 11.8671 14.1606C12.9043 14.0303 13.7114 13.368 14.1656 12.8928C15.1182 11.8964 14.5897 6.24019 13.9819 5.7843C13.6599 5.54261 12.0216 5.55168 10.493 5.76912C10.4844 5.76825 10.4756 5.7678 10.4667 5.76776C10.4512 5.77185 10.4358 5.7758 10.4205 5.77959C10.2674 5.80208 10.1159 5.82662 9.96716 5.85322C9.32426 5.8973 8.88001 5.64185 8.99373 5.08678C8.76348 5.11922 8.66704 5.47333 8.58062 5.89222C8.39969 5.70093 8.2527 5.60173 8.36106 4.96507C8.02153 5.24425 7.94053 5.64157 7.88867 5.93787C7.59401 5.64777 7.42911 5.59438 7.26601 4.71875C6.8089 5.0477 7.16167 7.77299 7.51542 9.50928Z" fill="url(#paint3_linear_2334_12617)"/>
<path d="M10.4459 12.0894C10.127 11.9566 10.0145 11.4981 10.1947 11.0651C10.3749 10.6321 10.7795 10.3887 11.0984 10.5214C11.4173 10.6541 11.5297 11.1127 11.3495 11.5457C11.1693 11.9787 10.7647 12.2221 10.4459 12.0894Z" fill="#62EA89"/>
<path d="M11.0898 9.92982C10.4536 10.0362 9.82794 9.4651 9.69241 8.65431C9.55699 7.84351 9.96298 7.10013 10.5993 6.99387C11.2355 6.88752 11.8612 7.45859 11.9967 8.26938C12.1321 9.08009 11.7261 9.82356 11.0898 9.92982Z" fill="white"/>
<path d="M11.3873 9.56498C11.0394 9.62748 10.6943 9.27359 10.6166 8.77441C10.5388 8.2753 10.7578 7.82 11.1057 7.75742C11.4536 7.69492 11.7987 8.0489 11.8764 8.548C11.9542 9.0471 11.7352 9.50248 11.3873 9.56498Z" fill="#032B44"/>
<path d="M14.1731 9.60335C13.8273 9.67781 13.4196 9.10565 13.2627 8.32543C13.1057 7.54523 13.2587 6.85234 13.6046 6.77797C13.9504 6.70351 14.358 7.27568 14.515 8.05588C14.672 8.83609 14.5189 9.52898 14.1731 9.60335Z" fill="white"/>
<path d="M14.1473 9.37155C13.9008 9.41732 13.6381 9.04012 13.5607 8.52917C13.4833 8.01822 13.6204 7.56692 13.8669 7.52126C14.1134 7.4755 14.376 7.85269 14.4534 8.36364C14.5308 8.87459 14.3938 9.3259 14.1473 9.37155V9.37155Z" fill="#032B44"/>
<path fill-rule="evenodd" clip-rule="evenodd" d="M15.7777 12.0752C16.4174 11.9692 16.4544 10.704 16.0911 10.5908C15.6522 10.454 14.4268 10.8089 13.8249 10.2922C13.2234 9.77545 12.6096 6.757 12.3815 6.70736C12.0162 6.65271 13.0555 9.47662 12.2776 10.7569C12.1731 10.9289 11.383 11.9226 11.6701 11.9276C12.5041 11.9421 15.0924 12.1888 15.7777 12.0752Z" fill="#FFC606"/>
<path d="M15.6717 11.8225C15.498 11.7792 15.4141 11.5161 15.4843 11.2349C15.5544 10.9538 15.7521 10.761 15.9257 10.8044C16.0994 10.8477 16.1834 11.1107 16.1132 11.3919C16.0431 11.673 15.8454 11.8659 15.6717 11.8225Z" fill="#FFAE06"/>
<path fill-rule="evenodd" clip-rule="evenodd" d="M24.5424 16.3445L22.5927 16.3647C22.5656 16.2953 22.5407 16.2229 22.5176 16.1495L23.5758 15.442L24.7142 15.4414L25.9468 15.4594L24.5424 16.3445V16.3445Z" fill="#CA033E"/>
<path d="M24.8043 16.9531H22.207V19.8247H24.8043V16.9531Z" fill="#FFC700"/>
<path d="M24.2379 25.5156H21.6406V28.4914H24.2379V25.5156Z" fill="#FFC700"/>
<path d="M23.2507 19.8242H21.4395V22.6958H23.2507V19.8242Z" fill="#8C00FF"/>
<path d="M24.6755 22.6953H21.8848V25.5141H24.6755V22.6953Z" fill="#DD5E22"/>
<path fill-rule="evenodd" clip-rule="evenodd" d="M22.8022 12.4097L25.2793 12.6913L25.9498 15.4644L23.5747 15.4474L22.8022 12.4097Z" fill="#FF4A7F"/>
<path d="M24.761 16.9531H26.1055V19.8247H24.761V16.9531Z" fill="#FFDB5D"/>
<path d="M24.1907 25.5156H25.5352V28.4914H24.1907V25.5156Z" fill="#FFDB5D"/>
<path d="M23.1873 19.8242H25.3301V22.6958H23.1873V19.8242Z" fill="#A63AFF"/>
<path d="M24.6111 22.6953H26.2305V25.5141H24.6111V22.6953Z" fill="#FF915D"/>
<path fill-rule="evenodd" clip-rule="evenodd" d="M22.2239 25.4031C22.2415 25.7197 20.7637 26.4046 18.4666 26.5043C17.7675 26.5346 17.0013 26.5422 16.2375 26.4433C10.755 25.7332 11.1085 20.6419 12.1103 20.712C13.3361 20.7979 14.1122 22.8031 16.8095 22.1381C18.3545 21.7573 19.597 21.0496 19.9074 20.8747C20.2881 20.66 20.2467 21.5624 19.0842 22.2656C20.5446 22.0306 23.9971 21.0956 24.1827 21.2669C24.5606 21.6162 22.8857 22.2915 21.2806 22.8778C22.7022 22.6646 24.9232 21.8001 24.8984 22.2096C24.8763 22.5752 22.8426 23.4729 20.8039 24.2414C22.5728 23.7537 23.7756 23.649 23.7513 23.9878C23.7239 24.3713 21.2711 25.0831 20.2475 25.3801C21.004 25.3916 22.2086 25.1261 22.2239 25.4031V25.4031Z" fill="url(#paint4_linear_2334_12617)"/>
</g>
<defs>
<linearGradient id="paint0_linear_2334_12617" x1="17.1823" y1="23.8756" x2="25.2175" y2="14.9623" gradientUnits="userSpaceOnUse">
<stop stop-color="#3ADF68"/>
<stop offset="1" stop-color="#3EB860"/>
</linearGradient>
<linearGradient id="paint1_linear_2334_12617" x1="17.1804" y1="23.8757" x2="25.2156" y2="14.9624" gradientUnits="userSpaceOnUse">
<stop stop-color="#3ADF68"/>
<stop offset="1" stop-color="#3EB860"/>
</linearGradient>
<linearGradient id="paint2_linear_2334_12617" x1="7.48835" y1="12.7499" x2="9.73759" y2="33.5745" gradientUnits="userSpaceOnUse">
<stop stop-color="#3ADF68"/>
<stop offset="1" stop-color="#3EE06B"/>
</linearGradient>
<linearGradient id="paint3_linear_2334_12617" x1="9.65896" y1="5.18065" x2="12.5628" y2="14.8927" gradientUnits="userSpaceOnUse">
<stop stop-color="#60E887"/>
<stop offset="1" stop-color="#45E271"/>
</linearGradient>
<linearGradient id="paint4_linear_2334_12617" x1="13.1237" y1="20.4474" x2="23.7756" y2="25.0013" gradientUnits="userSpaceOnUse">
<stop stop-color="#3ADF68"/>
<stop offset="1" stop-color="#3EB860"/>
</linearGradient>
<clipPath id="clip0_2334_12617">
<rect width="29.0181" height="29.0181" fill="white" transform="translate(2.5293 2.73828)"/>
</clipPath>
</defs>
</svg>
