<svg width="34" height="35" viewBox="0 0 34 35" fill="none" xmlns="http://www.w3.org/2000/svg">
<circle cx="17.0375" cy="17.5492" r="16.8539" fill="#005BFF"/>
<path fill-rule="evenodd" clip-rule="evenodd" d="M6.95569 19.7171C6.65724 19.6226 6.46595 20.4271 7.44443 21.1026C7.97361 21.4678 8.65762 21.7056 9.34568 21.9061C14.2845 23.3454 17.5573 19.4016 16.679 19.0886C15.6043 18.7058 12.6382 19.6178 10.6192 18.06C9.46285 17.1678 8.56266 14.778 8.37018 14.5162C8.13425 14.1952 7.93647 16.3025 8.63777 17.3228C7.49405 16.5842 6.57188 16.8409 7.04846 17.5219C6.63434 17.1799 6.45102 18.0956 6.94505 18.5569C6.5373 18.2974 6.50742 19.1625 6.95569 19.7171Z" fill="url(#paint0_linear_2334_12628)"/>
<path fill-rule="evenodd" clip-rule="evenodd" d="M7.10266 16.9121C7.43467 16.7576 8.29921 17.022 8.98602 17.5649C9.67287 18.1079 9.9239 18.7253 9.59176 18.8798C9.25974 19.0343 8.46735 18.6693 7.78049 18.1262C7.09364 17.5832 6.77064 17.0666 7.10266 16.9121V16.9121Z" fill="url(#paint1_linear_2334_12628)"/>
<path fill-rule="evenodd" clip-rule="evenodd" d="M6.80401 17.4653C7.09699 17.3205 7.88745 17.6227 8.52917 18.2019C9.17092 18.7812 9.42281 19.4198 9.12971 19.5646C8.83673 19.7094 8.10717 19.3074 7.46539 18.7281C6.82364 18.1488 6.51103 17.6102 6.80401 17.4653V17.4653Z" fill="url(#paint2_linear_2334_12628)"/>
<path fill-rule="evenodd" clip-rule="evenodd" d="M6.7669 18.5005C7.05988 18.3557 7.85034 18.6579 8.49206 19.237C9.13381 19.8163 9.3857 20.4549 9.0926 20.5998C8.79962 20.7446 8.07006 20.3426 7.42828 19.7632C6.78653 19.1839 6.47392 18.6453 6.7669 18.5005V18.5005Z" fill="url(#paint3_linear_2334_12628)"/>
<path fill-rule="evenodd" clip-rule="evenodd" d="M6.85674 19.7153C7.14972 19.5705 7.94018 19.8727 8.5819 20.4519C9.22366 21.0312 9.47554 21.6698 9.18244 21.8146C8.88946 21.9594 8.15991 21.5574 7.51813 20.9781C6.87637 20.3988 6.56376 19.8602 6.85674 19.7153V19.7153Z" fill="url(#paint4_linear_2334_12628)"/>
<path fill-rule="evenodd" clip-rule="evenodd" d="M10.9698 26.5749C10.4159 27.076 9.25883 27.1852 9.15969 26.9129C8.8657 26.1053 9.33185 23.2527 9.656 22.7202C9.72681 22.6038 10.0003 22.3514 10.0388 22.4535C10.1762 22.8175 10.6865 22.5091 10.754 22.7428C10.7973 22.8929 10.665 24.8995 11.1004 25.5647C11.5715 25.4293 11.9719 25.404 12.3086 25.44C13.4046 25.557 13.8779 26.2966 13.8779 26.2966C13.9641 26.4206 13.9638 26.5761 13.8773 26.6437C13.7907 26.7112 13.6505 26.6654 13.5642 26.5413C13.5642 26.5413 13.1955 26.0779 12.4392 26.0771C12.0411 26.0766 11.5567 26.2134 10.9698 26.5749V26.5749Z" fill="#FFC700"/>
<path fill-rule="evenodd" clip-rule="evenodd" d="M15.5916 26.0416L11.5352 23.4108L12.1792 18.1009L17.9387 15.9648L15.5916 26.0416V26.0416ZM14.1607 18.4454C14.7964 18.5853 15.1123 19.6088 14.8656 20.7295C14.619 21.8503 13.9026 22.6466 13.2669 22.5067C12.6313 22.3668 12.3154 21.3433 12.562 20.2226C12.8087 19.1018 13.525 18.3055 14.1607 18.4454Z" fill="#E2AB55"/>
<path fill-rule="evenodd" clip-rule="evenodd" d="M23.8232 26.8195C24.0501 26.8724 23.8854 28.0397 22.5104 28.5806C21.5158 28.9719 19.5095 28.7228 18.37 28.9824C8.84199 31.1535 15.0074 16.8814 18.1533 11.6008C18.6547 11.3999 21.5502 9.36854 22.0134 9.68593C21.2873 12.89 19.836 16.7677 19.1737 19.8403C21.8234 20.9961 20.9167 23.1037 22.5429 23.5783C23.0246 23.7189 22.9972 25.006 23.8232 26.8195V26.8195Z" fill="url(#paint5_linear_2334_12628)"/>
<path fill-rule="evenodd" clip-rule="evenodd" d="M21.4593 11.832C21.3027 12.3864 21.1356 12.9501 20.9644 13.5169C20.3652 13.9143 19.6442 14.2397 18.9518 14.4005C18.0968 14.5991 17.2945 14.5328 16.7693 14.1519C16.9081 13.8745 17.0461 13.6053 17.1823 13.3457C17.1915 13.3538 17.2003 13.3624 17.2089 13.3714C17.3502 13.5193 17.5531 13.5901 17.7834 13.6191C18.0757 13.6559 18.4088 13.6222 18.7525 13.5423C19.8269 13.2928 21.0122 12.6 21.4123 11.8992C21.4261 11.875 21.4419 11.8526 21.4593 11.832ZM14.4434 19.6472C14.6747 18.9691 14.9302 18.2897 15.2 17.6222C15.1234 18.6425 15.3095 20.1565 15.8595 21.4138C16.2789 22.3726 16.9083 23.1914 17.8446 23.4535C18.3354 23.5909 18.8977 23.5744 19.5432 23.3648C19.9666 23.2273 19.5492 23.6316 19.3172 23.8375C19.2119 23.925 19.1773 23.9557 19.1864 23.9491C19.1954 23.9426 19.2481 23.8989 19.3172 23.8375C19.3589 23.8029 19.4117 23.7594 19.4773 23.7057C18.7018 24.3402 19.548 24.2165 19.8143 24.1775C19.9256 24.1612 19.9356 24.1598 19.6842 24.2345C18.8901 24.4705 18.1995 24.4677 17.6071 24.3019C16.4232 23.9704 15.5826 22.9793 15.0523 21.7669C14.7587 21.0956 14.5607 20.359 14.4434 19.6472Z" fill="#005BFF"/>
<path fill-rule="evenodd" clip-rule="evenodd" d="M21.0943 13.0938C21.079 13.1449 21.0637 13.196 21.0484 13.2472C21.0445 13.2437 21.0411 13.2398 21.0381 13.2355L20.7792 12.8725C20.7772 12.8696 20.776 12.8663 20.7757 12.8628C20.7755 12.8593 20.7763 12.8558 20.7779 12.8528C20.7795 12.8497 20.782 12.8472 20.7851 12.8455C20.7881 12.8438 20.7916 12.843 20.795 12.8432L21.1626 12.8644C21.1501 12.9067 21.1375 12.949 21.1248 12.9914L21.0168 12.9852L21.0943 13.0938ZM16.8368 14.0229C16.8397 14.0257 16.8428 14.0284 16.8458 14.031C16.8891 14.068 16.9428 14.0904 16.9996 14.0953C17.0563 14.1001 17.1133 14.0872 17.1628 14.0583C17.2122 14.0293 17.2517 13.9858 17.2757 13.9336C17.3024 13.8757 17.3086 13.8104 17.2931 13.7488C17.2775 13.6873 17.2414 13.6331 17.1906 13.5955C17.1577 13.5711 17.12 13.5546 17.0802 13.5468C17.0587 13.5883 17.0371 13.63 17.0156 13.6719C17.0371 13.6702 17.0588 13.6733 17.0791 13.6811C17.1078 13.6921 17.1322 13.7119 17.149 13.7376C17.1658 13.7634 17.1741 13.7938 17.1727 13.8247C17.1713 13.8556 17.1604 13.8854 17.1413 13.9098C17.1213 13.9356 17.0935 13.954 17.0621 13.9623C17.0308 13.9707 16.9977 13.9684 16.9679 13.9559C16.9398 13.944 16.9161 13.9237 16.9002 13.8976C16.8791 13.9392 16.8579 13.981 16.8368 14.0229ZM14.8658 18.4824C14.8835 18.4358 14.9013 18.3892 14.9191 18.3427C14.9262 18.3417 14.9334 18.3419 14.9404 18.3433C14.9498 18.3451 14.9587 18.3491 14.9665 18.3548C14.9742 18.3605 14.9806 18.3678 14.9851 18.3762C14.9895 18.3847 14.9921 18.394 14.9925 18.4035L15.0085 18.8048C15.0086 18.8083 15.0078 18.8117 15.006 18.8147C15.0043 18.8177 15.0018 18.8201 14.9987 18.8218C14.9957 18.8234 14.9922 18.8242 14.9888 18.824C14.9853 18.8238 14.982 18.8227 14.9791 18.8207L14.7881 18.6893C14.8035 18.6479 14.819 18.6066 14.8346 18.5652L14.8701 18.5896L14.8658 18.4824ZM14.5371 19.384C14.5905 19.2315 14.645 19.079 14.7006 18.9267C14.7173 18.9197 14.7349 18.915 14.7532 18.9126C14.9054 18.8928 15.0508 19.0474 15.0781 19.2577C15.1054 19.468 15.0041 19.6545 14.852 19.6743C14.7134 19.6922 14.5803 19.5657 14.5371 19.384ZM21.23 12.6361C21.2147 12.688 21.1994 12.74 21.184 12.792L21.1134 12.693C21.1045 12.6809 21.0999 12.6662 21.1005 12.6512C21.101 12.6363 21.1066 12.6221 21.1164 12.6109C21.1228 12.6037 21.1308 12.5981 21.1396 12.5945C21.1485 12.5909 21.1582 12.5894 21.1678 12.59C21.1774 12.5906 21.1868 12.5933 21.1952 12.5981C21.2036 12.6028 21.211 12.6093 21.2166 12.6172L21.23 12.6361ZM18.2053 23.7672C18.216 23.7566 18.2298 23.7501 18.2445 23.7486C18.2541 23.7478 18.2637 23.7491 18.2727 23.7525C18.2816 23.756 18.2897 23.7614 18.2963 23.7684C18.3029 23.7755 18.3079 23.7839 18.3108 23.7931C18.3138 23.8023 18.3146 23.8121 18.3133 23.8217L18.2537 24.2652C18.2533 24.2686 18.2518 24.2719 18.2496 24.2746C18.2474 24.2773 18.2445 24.2793 18.2412 24.2804C18.2379 24.2815 18.2344 24.2817 18.231 24.2808C18.2276 24.28 18.2245 24.2782 18.2221 24.2757L17.9159 23.9536L17.8869 24.1694C17.8856 24.179 17.8822 24.1882 17.8769 24.1964C17.8717 24.2045 17.8647 24.2113 17.8565 24.2163C17.8482 24.2214 17.839 24.2245 17.8294 24.2254C17.8199 24.2264 17.8102 24.2251 17.8012 24.2218C17.7874 24.2165 17.7757 24.2065 17.7683 24.1936C17.7608 24.1806 17.758 24.1655 17.7602 24.1507L17.8196 23.7088C17.8201 23.7053 17.8215 23.702 17.8237 23.6994C17.826 23.6966 17.8289 23.6947 17.8322 23.6935C17.8355 23.6925 17.839 23.6923 17.8424 23.6932C17.8457 23.694 17.8488 23.6958 17.8512 23.6983L18.1575 24.0204L18.1862 23.8064C18.188 23.7915 18.1947 23.7776 18.2053 23.7672ZM18.5267 23.7494C18.5721 23.7151 18.6271 23.6958 18.6839 23.6943C18.7471 23.6925 18.8091 23.7127 18.8592 23.7517C18.9095 23.7906 18.9449 23.8457 18.9596 23.9078C18.9729 23.9636 18.9688 24.0222 18.9478 24.0755C18.9267 24.1288 18.8899 24.1742 18.8422 24.2054C18.7945 24.2365 18.7384 24.2521 18.6816 24.2498C18.6248 24.2474 18.57 24.2274 18.5248 24.1924C18.4796 24.1574 18.4463 24.1092 18.4293 24.0543C18.4123 23.9995 18.4125 23.9408 18.43 23.8862C18.4474 23.8316 18.4812 23.7838 18.5267 23.7494ZM18.9091 23.6868C18.9161 23.6803 18.9245 23.6754 18.9336 23.6726L19.3175 23.5546C19.3208 23.5537 19.3243 23.5536 19.3276 23.5545C19.331 23.5554 19.334 23.5572 19.3364 23.5597C19.3387 23.5623 19.3404 23.5654 19.3411 23.5688C19.3418 23.5722 19.3415 23.5757 19.3404 23.579L19.1839 24.0155L19.3919 23.9516C19.4011 23.9488 19.4107 23.9481 19.4202 23.9496C19.4296 23.951 19.4386 23.9546 19.4466 23.96C19.4545 23.9654 19.4612 23.9725 19.4661 23.9808C19.4709 23.9891 19.4739 23.9984 19.4748 24.008C19.478 24.039 19.4571 24.0672 19.4277 24.0763L19.0108 24.2044C19.0075 24.2054 19.004 24.2054 19.0008 24.2045C18.9975 24.2036 18.9945 24.2018 18.9921 24.1993C18.9898 24.1968 18.9882 24.1937 18.9875 24.1904C18.9868 24.187 18.987 24.1835 18.9882 24.1803L19.1448 23.7434L18.974 23.7959C18.9446 23.8049 18.9114 23.7932 18.8967 23.7658C18.892 23.7574 18.8893 23.748 18.8886 23.7384C18.888 23.7288 18.8896 23.7191 18.8931 23.7102C18.8966 23.7013 18.9021 23.6933 18.9091 23.6868ZM18.6415 24.111C18.6703 24.1219 18.7016 24.1234 18.7312 24.1152C18.7623 24.1067 18.7898 24.088 18.8093 24.0621C18.8289 24.0362 18.8394 24.0045 18.8393 23.972C18.8391 23.941 18.8294 23.9108 18.8114 23.8856C18.7934 23.8605 18.7681 23.8416 18.739 23.8317C18.7099 23.8218 18.6785 23.8213 18.6491 23.8304C18.6198 23.8395 18.594 23.8576 18.5755 23.8822C18.5569 23.9068 18.5465 23.9367 18.5456 23.9677C18.5448 23.9987 18.5536 24.0292 18.5708 24.0549C18.5879 24.0806 18.6127 24.1002 18.6415 24.111ZM16.9743 23.595C17.0404 23.4565 17.2491 23.4183 17.4405 23.5097C17.4876 23.5322 17.5293 23.5604 17.5643 23.5923C17.6718 23.6899 17.7173 23.8214 17.6674 23.9258C17.6013 24.0643 17.3926 24.1025 17.2012 24.0112C17.0098 23.9198 16.9082 23.7335 16.9743 23.595ZM19.3647 23.8172C19.2964 23.6798 19.395 23.4919 19.585 23.3976C19.6317 23.3744 19.6797 23.3589 19.7264 23.351C19.8694 23.3266 20.0011 23.372 20.0525 23.4756C20.1208 23.613 20.0221 23.8008 19.8322 23.8952C19.6423 23.9896 19.4329 23.9547 19.3647 23.8172ZM17.5519 23.8707C17.5821 23.8076 17.5169 23.6898 17.3847 23.6267C17.2525 23.5636 17.12 23.587 17.0898 23.6501C17.0597 23.7133 17.1248 23.831 17.2571 23.8941C17.3893 23.9573 17.5218 23.9338 17.5519 23.8707ZM19.9379 23.5325C19.9068 23.4698 19.7739 23.4485 19.6427 23.5137C19.5114 23.5789 19.4482 23.6977 19.4793 23.7603C19.5104 23.8229 19.6433 23.8443 19.7745 23.7791C19.9057 23.7139 19.969 23.5951 19.9379 23.5325ZM16.749 23.0839C16.7583 23.086 16.7671 23.09 16.7746 23.0959L17.0906 23.3437C17.0934 23.3458 17.0954 23.3487 17.0966 23.3519C17.0977 23.3551 17.098 23.3587 17.0972 23.362C17.0965 23.3655 17.0949 23.3686 17.0925 23.3711C17.0901 23.3737 17.0871 23.3754 17.0837 23.3763L16.636 23.4972L16.8073 23.6315C16.8148 23.6374 16.8209 23.6449 16.8251 23.6535C16.8293 23.6621 16.8315 23.6715 16.8316 23.6811C16.8317 23.6907 16.8297 23.7003 16.8256 23.709C16.8216 23.7177 16.8157 23.7255 16.8084 23.7317C16.7847 23.752 16.7496 23.751 16.7254 23.732L16.3821 23.463C16.3795 23.4609 16.3774 23.458 16.3763 23.4548C16.3751 23.4516 16.3749 23.4481 16.3756 23.4447C16.3763 23.4414 16.378 23.4383 16.3803 23.4358C16.3827 23.4333 16.3857 23.4315 16.389 23.4306L16.8371 23.3097L16.6965 23.1995C16.6722 23.1805 16.6629 23.1466 16.677 23.1188C16.6812 23.1102 16.6874 23.1026 16.6949 23.0966C16.7024 23.0906 16.7112 23.0863 16.7206 23.0842C16.7299 23.082 16.7396 23.0819 16.749 23.0839ZM16.4051 22.7217C16.4592 22.7392 16.5065 22.7733 16.5403 22.819C16.5779 22.8698 16.5968 22.9321 16.5936 22.9956C16.5905 23.059 16.5656 23.1196 16.5231 23.1673C16.4849 23.2101 16.4345 23.2403 16.3788 23.2536C16.323 23.2669 16.2648 23.2626 16.2119 23.2413C16.159 23.2202 16.1142 23.183 16.0835 23.1351C16.0529 23.0872 16.038 23.0308 16.0408 22.9738C16.0436 22.9167 16.064 22.8617 16.0993 22.8164C16.1345 22.7711 16.1828 22.7376 16.2376 22.7206C16.2923 22.7037 16.3508 22.7041 16.4051 22.7217ZM16.1743 23.0228C16.1819 23.0526 16.1987 23.0791 16.2222 23.0988C16.2471 23.1194 16.2781 23.1313 16.3105 23.1324C16.3429 23.1336 16.3749 23.1241 16.4015 23.1053C16.4269 23.0875 16.4461 23.0622 16.4564 23.0331C16.4667 23.0039 16.4677 22.9723 16.4591 22.9428C16.4506 22.9133 16.433 22.8873 16.4088 22.8684C16.3845 22.8495 16.3549 22.8388 16.3242 22.8377C16.2933 22.8366 16.2628 22.8451 16.2369 22.8622C16.2111 22.8792 16.1911 22.9038 16.1799 22.9326C16.1686 22.9615 16.1667 22.993 16.1743 23.0228ZM16.165 22.4256C16.1799 22.4266 16.194 22.4325 16.205 22.4425C16.2119 22.4492 16.2173 22.4572 16.2207 22.4663C16.2241 22.4752 16.2254 22.4849 16.2245 22.4945C16.2237 22.5041 16.2207 22.5134 16.2158 22.5217C16.2108 22.53 16.2041 22.5372 16.196 22.5426L15.8251 22.7928C15.8222 22.7947 15.8188 22.7958 15.8153 22.796C15.8118 22.7961 15.8083 22.7953 15.8053 22.7935C15.8023 22.7918 15.7999 22.7892 15.7983 22.7862C15.7966 22.7831 15.796 22.7797 15.7963 22.7762L15.8333 22.3333L15.6528 22.455C15.6448 22.4605 15.6356 22.4641 15.6261 22.4655C15.6165 22.467 15.6067 22.4663 15.5975 22.4635C15.5883 22.4607 15.5799 22.4558 15.5728 22.4493C15.5657 22.4428 15.5602 22.4348 15.5567 22.4259C15.5515 22.4119 15.5512 22.3967 15.556 22.3825C15.5607 22.3683 15.5701 22.3561 15.5827 22.348L15.9523 22.0986C15.9552 22.0967 15.9586 22.0956 15.962 22.0954C15.9655 22.0953 15.969 22.0962 15.972 22.0979C15.975 22.0996 15.9774 22.1022 15.979 22.1052C15.9807 22.1083 15.9814 22.1118 15.9811 22.1153L15.944 22.5582L16.123 22.4374C16.1353 22.4289 16.1501 22.4247 16.165 22.4256ZM15.3738 21.487C15.5105 21.4173 15.6994 21.514 15.7958 21.7029C15.8921 21.8918 15.8595 22.1015 15.7228 22.1712C15.5861 22.241 15.3972 22.1443 15.3008 21.9554C15.2044 21.7665 15.2371 21.5568 15.3738 21.487ZM15.6646 22.0572C15.7269 22.0254 15.7468 21.8923 15.6803 21.7618C15.6136 21.6313 15.4942 21.5693 15.4319 21.6011C15.3696 21.6329 15.3497 21.7659 15.4163 21.8965C15.4829 22.027 15.6023 22.089 15.6646 22.0572ZM15.4245 20.9079C15.4315 20.9144 15.4369 20.9224 15.4404 20.9313L15.5847 21.3061C15.586 21.3093 15.5863 21.3128 15.5856 21.3162C15.5849 21.3196 15.5833 21.3227 15.581 21.3253C15.5786 21.3278 15.5756 21.3296 15.5723 21.3306C15.5689 21.3315 15.5654 21.3315 15.562 21.3306L15.1157 21.2048L15.194 21.4079C15.1973 21.4168 15.1987 21.4264 15.1979 21.436C15.1971 21.4455 15.1942 21.4547 15.1894 21.463C15.1845 21.4713 15.1779 21.4784 15.1699 21.4839C15.162 21.4893 15.1529 21.493 15.1434 21.4945C15.1128 21.4999 15.0831 21.481 15.072 21.4523L14.9153 21.0453C14.9141 21.0421 14.9138 21.0386 14.9144 21.0353C14.9151 21.0319 14.9166 21.0288 14.919 21.0263C14.9213 21.0238 14.9243 21.022 14.9276 21.021C14.9309 21.0201 14.9345 21.0201 14.9377 21.021L15.3844 21.1469L15.3203 20.9802C15.3092 20.9514 15.3185 20.9176 15.3448 20.901C15.3529 20.8957 15.3621 20.8923 15.3716 20.8911C15.3812 20.8898 15.3909 20.8906 15.4 20.8936C15.4092 20.8964 15.4176 20.9014 15.4245 20.9079ZM15.2621 20.3898C15.3031 20.4295 15.3306 20.4807 15.3409 20.5366C15.3524 20.5988 15.342 20.6631 15.3113 20.7187C15.2806 20.7743 15.2317 20.8179 15.1726 20.8421C15.1195 20.8638 15.0609 20.8688 15.005 20.8562C14.9492 20.8437 14.8986 20.8143 14.8605 20.772C14.8223 20.7298 14.7982 20.6767 14.7918 20.6202C14.7853 20.5637 14.7966 20.5065 14.8242 20.4565C14.8518 20.4064 14.8942 20.366 14.9458 20.3408C14.9973 20.3155 15.0554 20.3067 15.1121 20.3154C15.1687 20.3242 15.2211 20.3502 15.2621 20.3898ZM14.9226 20.5592C14.9163 20.5892 14.9197 20.6205 14.9323 20.6485C14.9456 20.6779 14.9682 20.7022 14.9969 20.7174C15.0255 20.7327 15.0584 20.7382 15.0906 20.733C15.1212 20.7281 15.1495 20.7138 15.1715 20.6922C15.1936 20.6705 15.2083 20.6426 15.2136 20.6123C15.2189 20.582 15.2145 20.5509 15.2011 20.5233C15.1876 20.4958 15.1657 20.4731 15.1385 20.4586C15.1113 20.444 15.0801 20.4384 15.0494 20.4423C15.0187 20.4462 14.9899 20.4596 14.9672 20.4806C14.9444 20.5015 14.9288 20.529 14.9226 20.5592ZM15.1723 20.0832C15.1858 20.0895 15.1967 20.1003 15.2032 20.1137C15.2072 20.1224 15.2092 20.1319 15.209 20.1415C15.2088 20.1511 15.2065 20.1606 15.2021 20.1692C15.1978 20.1778 15.1915 20.1853 15.1839 20.1912C15.1762 20.1971 15.1673 20.2013 15.1578 20.2033L14.7206 20.2984C14.7172 20.2991 14.7136 20.2989 14.7103 20.2977C14.707 20.2965 14.7041 20.2945 14.702 20.2918C14.6999 20.289 14.6985 20.2858 14.6982 20.2823C14.6978 20.2789 14.6984 20.2754 14.7 20.2723L14.8984 19.8746L14.6856 19.9208C14.6761 19.9229 14.6663 19.9229 14.6569 19.9207C14.6475 19.9185 14.6387 19.9142 14.6311 19.9082C14.6236 19.9022 14.6175 19.8946 14.6134 19.8859C14.6093 19.8773 14.6071 19.8678 14.6071 19.8582C14.6075 19.8433 14.6129 19.829 14.6225 19.8176C14.6321 19.8062 14.6454 19.7984 14.6601 19.7954L15.0958 19.7007C15.0992 19.6999 15.1027 19.7002 15.106 19.7013C15.1093 19.7025 15.1122 19.7045 15.1144 19.7073C15.1165 19.71 15.1178 19.7133 15.1182 19.7167C15.1185 19.7202 15.1179 19.7236 15.1164 19.7268L14.9179 20.1244L15.1289 20.0786C15.1435 20.0752 15.1588 20.0768 15.1723 20.0832ZM14.8355 19.5474C14.9049 19.5383 14.9684 19.4197 14.9495 19.2744C14.9307 19.1291 14.839 19.0306 14.7697 19.0395C14.7003 19.0486 14.6368 19.1672 14.6557 19.3125C14.6745 19.4578 14.7661 19.5563 14.8355 19.5474ZM17.7717 14.0803C17.7627 13.9271 17.927 13.7928 18.1387 13.7804C18.3505 13.7679 18.5294 13.882 18.5384 14.0352C18.5474 14.1883 18.3831 14.3226 18.1714 14.3351C17.9596 14.3475 17.7807 14.2334 17.7717 14.0803ZM17.3713 13.7314C17.3806 13.7291 17.3903 13.7288 17.3997 13.7306L17.7935 13.8092C17.7968 13.8099 17.8 13.8115 17.8025 13.8139C17.805 13.8163 17.8067 13.8193 17.8076 13.8226C17.8085 13.826 17.8085 13.8295 17.8075 13.8328C17.8065 13.8362 17.8046 13.8391 17.8021 13.8415L17.4569 14.1512L17.6704 14.1938C17.6797 14.1957 17.6886 14.1997 17.6962 14.2055C17.7038 14.2112 17.7101 14.2186 17.7145 14.2272C17.7189 14.2357 17.7214 14.2451 17.7217 14.2547C17.7221 14.2644 17.7203 14.274 17.7165 14.2828C17.7046 14.3116 17.6728 14.3266 17.6426 14.3206L17.2149 14.2352C17.2116 14.2345 17.2085 14.2329 17.206 14.2305C17.2035 14.2282 17.2018 14.2252 17.2009 14.2219C17.2 14.2186 17.2001 14.2151 17.2011 14.2117C17.202 14.2084 17.2039 14.2055 17.2065 14.2032L17.5519 13.8932L17.3766 13.8583C17.3464 13.8522 17.3228 13.8262 17.3228 13.7951C17.3228 13.7854 17.3248 13.7759 17.3289 13.7672C17.3328 13.7584 17.3388 13.7506 17.3461 13.7445C17.3535 13.7383 17.3621 13.7338 17.3713 13.7314ZM18.8997 13.7133C18.906 13.6997 18.9166 13.6887 18.9299 13.6821C18.9386 13.678 18.9481 13.6759 18.9577 13.676C18.9673 13.6761 18.9768 13.6783 18.9854 13.6826C18.994 13.6868 19.0016 13.693 19.0076 13.7006C19.0136 13.7082 19.0179 13.717 19.02 13.7265L19.1197 14.1627C19.1205 14.1661 19.1203 14.1697 19.1192 14.173C19.118 14.1763 19.116 14.1792 19.1133 14.1814C19.1106 14.1835 19.1073 14.1849 19.1039 14.1853C19.1004 14.1857 19.0969 14.1851 19.0938 14.1836L18.694 13.9894L18.7426 14.2017C18.7447 14.2111 18.7448 14.2209 18.7427 14.2304C18.7406 14.2398 18.7365 14.2487 18.7305 14.2563C18.7246 14.2638 18.717 14.27 18.7084 14.2742C18.6998 14.2785 18.6903 14.2807 18.6807 14.2808C18.6659 14.2806 18.6515 14.2754 18.64 14.2659C18.6285 14.2563 18.6205 14.2432 18.6174 14.2285L18.5181 13.7939C18.5173 13.7905 18.5175 13.7869 18.5186 13.7836C18.5197 13.7803 18.5217 13.7774 18.5245 13.7752C18.5271 13.773 18.5304 13.7717 18.5339 13.7712C18.5373 13.7709 18.5408 13.7714 18.544 13.773L18.9437 13.9672L18.8956 13.7567C18.892 13.7422 18.8935 13.7268 18.8997 13.7133ZM18.4106 14.0427C18.4065 13.9728 18.2926 13.9012 18.1464 13.9098C18 13.9184 17.8954 14.0029 17.8995 14.0728C17.9036 14.1426 18.0175 14.2142 18.1637 14.2056C18.31 14.197 18.4147 14.1125 18.4106 14.0427ZM19.1646 13.6256C19.2025 13.583 19.2526 13.5532 19.308 13.5405C19.3695 13.5264 19.4342 13.5341 19.4911 13.5623C19.548 13.5905 19.5936 13.6376 19.6203 13.6956C19.6443 13.7478 19.6518 13.806 19.6416 13.8624C19.6315 13.9188 19.6043 13.9705 19.5637 14.0105C19.5231 14.0505 19.4712 14.0767 19.415 14.0856C19.3588 14.0945 19.3012 14.0857 19.25 14.0603C19.1988 14.0348 19.1566 13.9941 19.1292 13.9437C19.1017 13.8933 19.0904 13.8356 19.0967 13.7787C19.1031 13.7217 19.1268 13.6683 19.1646 13.6256ZM19.3484 13.9575C19.3787 13.9625 19.4098 13.9577 19.4372 13.944C19.4661 13.9295 19.4893 13.9058 19.5033 13.8765C19.5174 13.8473 19.5214 13.8141 19.5149 13.7822C19.5087 13.7519 19.4932 13.7242 19.4706 13.7031C19.448 13.682 19.4195 13.6684 19.389 13.6645C19.3585 13.6605 19.3276 13.6662 19.3006 13.6809C19.2737 13.6956 19.252 13.7183 19.2386 13.7462C19.2253 13.774 19.2209 13.8053 19.2262 13.8359C19.2315 13.8664 19.2461 13.8945 19.268 13.9164C19.2899 13.9382 19.318 13.9526 19.3484 13.9575ZM19.6477 13.4491C19.6539 13.4417 19.6616 13.4359 19.6703 13.432L20.0365 13.2672C20.0396 13.2658 20.0431 13.2653 20.0465 13.2658C20.05 13.2663 20.0531 13.2677 20.0558 13.2699C20.0585 13.2721 20.0605 13.275 20.0617 13.2783C20.0628 13.2816 20.063 13.2851 20.0622 13.2885L19.9611 13.7411L20.1597 13.6518C20.1684 13.6479 20.1779 13.646 20.1874 13.6463C20.197 13.6466 20.2064 13.649 20.215 13.6534C20.2235 13.6577 20.231 13.664 20.2369 13.6716C20.2427 13.6792 20.2469 13.6881 20.2489 13.6975C20.256 13.7278 20.2387 13.7585 20.2107 13.7711L19.8129 13.95C19.8098 13.9514 19.8064 13.9519 19.803 13.9514C19.7996 13.9509 19.7964 13.9495 19.7938 13.9473C19.7911 13.9451 19.7891 13.9423 19.788 13.939C19.7869 13.9357 19.7867 13.9323 19.7874 13.9289L19.8886 13.4759L19.7257 13.5492C19.6976 13.5619 19.6632 13.5544 19.6452 13.529C19.6395 13.5212 19.6356 13.5123 19.6338 13.5028C19.632 13.4934 19.6323 13.4836 19.6347 13.4743C19.6371 13.465 19.6415 13.4564 19.6477 13.4491ZM20.2076 13.4756C20.1312 13.3426 20.2183 13.1491 20.4023 13.0434C20.5862 12.9378 20.7972 12.96 20.8736 13.093C20.9501 13.2261 20.8629 13.4196 20.679 13.5252C20.4951 13.6309 20.2841 13.6087 20.2076 13.4756ZM20.7626 13.1568C20.7278 13.0961 20.5939 13.0829 20.4668 13.1559C20.3398 13.2288 20.2838 13.3512 20.3186 13.4118C20.3535 13.4725 20.4874 13.4858 20.6144 13.4128C20.7415 13.3398 20.7974 13.2174 20.7626 13.1568Z" fill="white"/>
<path fill-rule="evenodd" clip-rule="evenodd" d="M19.8015 5.28598C20.3084 5.22259 20.6177 4.95449 20.4495 4.53641C20.6334 4.52673 20.7593 4.78981 20.8867 5.10522C21.0001 4.92757 21.1003 4.82735 20.9246 4.34447C21.229 4.51174 21.3491 4.81104 21.432 5.03554C21.6198 4.76307 21.7405 4.69607 21.7418 3.98438C22.1449 4.17269 22.2613 6.36364 22.2351 7.7797C22.2362 7.97324 22.2285 8.16833 22.2137 8.36322C22.2056 8.49873 22.1958 8.61643 22.1844 8.71148C22.1787 8.75913 22.1717 8.80357 22.1635 8.84478C22.0477 9.73103 21.8135 10.587 21.6249 11.2554C21.5206 11.6251 19.5386 12.1146 19.5386 12.1146C19.5386 12.1146 18.4671 12.1126 17.5429 11.4478C16.6583 10.8114 16.2581 6.29411 16.6659 5.84384C16.8819 5.6052 18.1587 5.36256 19.3801 5.30017C19.3867 5.29815 19.3934 5.29646 19.4004 5.29509C19.413 5.29594 19.4256 5.29669 19.4381 5.2973C19.5603 5.29162 19.6817 5.28781 19.8015 5.28598V5.28598Z" fill="url(#paint6_linear_2334_12628)"/>
<path d="M20.3219 10.2524C20.5512 10.0997 20.5729 9.72282 20.3705 9.41066C20.1681 9.0985 19.8181 8.96923 19.5889 9.12194C19.3597 9.27465 19.3379 9.65149 19.5403 9.96365C19.7428 10.2758 20.0927 10.4051 20.3219 10.2524Z" fill="#76F299"/>
<path d="M17.0628 8.87255C17.3427 8.87823 17.5781 8.36731 17.5883 7.73135C17.5986 7.09545 17.38 6.57527 17.1 6.56968C16.8201 6.56394 16.5849 7.07491 16.5746 7.71082C16.5643 8.34677 16.7829 8.86691 17.0628 8.87255V8.87255ZM19.5112 8.65923C20.0218 8.6457 20.427 8.10235 20.4162 7.44573C20.4053 6.7891 19.9825 6.26789 19.4718 6.28151C18.9612 6.29509 18.556 6.83839 18.5669 7.49501C18.5778 8.1516 19.0005 8.6729 19.5112 8.65923Z" fill="white"/>
<path d="M17.2138 8.36985C17.4123 8.3682 17.5627 8.0323 17.5497 7.61967C17.5366 7.20709 17.3651 6.874 17.1666 6.87574C16.9682 6.87743 16.8178 7.21334 16.8309 7.62592C16.8439 8.0385 17.0153 8.37163 17.2138 8.36985ZM19.4693 8.13661C19.7491 8.13261 19.967 7.8024 19.9559 7.39898C19.9449 6.99565 19.709 6.67187 19.4292 6.67582C19.1493 6.67981 18.9315 7.01007 18.9425 7.41345C18.9536 7.81677 19.1894 8.1406 19.4693 8.13661V8.13661Z" fill="#032B44"/>
<path fill-rule="evenodd" clip-rule="evenodd" d="M16.1728 11.047C15.6595 11.0613 15.4491 10.0746 15.7157 9.93035C16.0378 9.75612 17.0428 9.84778 17.4373 9.3507C17.8314 8.85369 17.8762 6.39243 18.0467 6.31874C18.3233 6.22019 17.9193 8.59369 18.7087 9.47937C18.8147 9.59833 19.5724 10.2574 19.3496 10.3051C18.7024 10.4436 16.7226 11.0316 16.1728 11.047Z" fill="#FFC606"/>
<path d="M16.2161 10.838C16.3452 10.7775 16.3727 10.5583 16.2778 10.3485C16.1828 10.1386 16.0013 10.0176 15.8723 10.078C15.7433 10.1385 15.7156 10.3576 15.8106 10.5674C15.9056 10.7773 16.0871 10.8984 16.2161 10.838Z" fill="#FFAE06"/>
<path fill-rule="evenodd" clip-rule="evenodd" d="M19.0269 6.03536L18.1152 6.19531L19.0269 6.03536Z" fill="white" fill-opacity="0.53"/>
<path d="M18.7391 25.7497L11.5352 23.4023V28.0364L18.7391 30.3838V25.7497Z" fill="#EECC8C"/>
<path fill-rule="evenodd" clip-rule="evenodd" d="M26.9175 23.9891C27.3287 24.4247 27.8134 23.7261 26.6462 22.3295C26.2909 21.9044 25.8861 21.4527 25.4181 21.0611C23.5445 19.4933 21.6068 19.9653 20.2903 20.661C17.5554 22.1066 19.7717 22.574 21.0519 22.5798C21.8329 22.5834 22.6283 22.8517 23.1182 23.7674C23.7133 24.8796 23.949 25.9953 24.0091 26.273C24.0826 26.6137 24.6066 26.0922 24.411 25.0258C25.0491 26.0082 26.4581 27.2319 25.9552 25.9713C26.5858 26.9191 27.1501 26.5557 26.5257 24.9415C27.1758 26.2435 27.2848 24.7507 26.9175 23.9891Z" fill="url(#paint7_linear_2334_12628)"/>
<path fill-rule="evenodd" clip-rule="evenodd" d="M24.4978 23.6016L18.7383 25.7376V30.384L24.4978 28.2479V23.6016ZM21.7581 26.3695C22.0674 26.3971 22.2811 26.839 22.2352 27.3559C22.1892 27.8727 21.9008 28.27 21.5915 28.2425C21.2822 28.215 21.0684 27.773 21.1144 27.2562C21.1604 26.7393 21.4488 26.3421 21.7581 26.3695V26.3695Z" fill="#E2AB55"/>
<path fill-rule="evenodd" clip-rule="evenodd" d="M18.7392 29.0484C17.934 28.8225 17.283 28.1697 17.283 27.5863C17.283 27.0029 17.934 26.7089 18.7392 26.9269V27.422C18.1848 27.2728 17.7718 27.4555 17.7718 27.721C17.7718 27.9864 18.1848 28.3969 18.7392 28.5533V29.0484ZM18.7392 26.9222L18.7494 26.9189C19.5592 26.6632 20.2157 26.9309 20.2157 27.5167C20.2157 28.1026 19.5592 28.7848 18.7494 29.0406L18.7392 29.0437V28.5486C18.7426 28.5475 18.7459 28.5465 18.7494 28.5454C19.3088 28.3688 19.7269 27.9382 19.7269 27.6711C19.7269 27.404 19.3088 27.2374 18.7494 27.4141C18.7459 27.4151 18.7426 27.4162 18.7392 27.4173V26.9222V26.9222ZM15.5391 26.0922C15.5027 26.0822 15.4667 26.0806 15.4338 26.0874C15.401 26.0943 15.372 26.1094 15.3491 26.1317C15.3262 26.154 15.3098 26.1829 15.3013 26.2163C15.2928 26.2498 15.2923 26.2869 15.2998 26.325C15.3229 26.448 15.4308 26.5575 15.5483 26.5899L16.2305 26.7779L15.1689 27.9041C15.161 27.9124 15.1562 27.9236 15.155 27.9363C15.1538 27.949 15.1562 27.9629 15.162 27.9762C15.1677 27.9896 15.1766 28.002 15.1877 28.012C15.1987 28.022 15.2114 28.0292 15.2244 28.0328L16.8897 28.4918C17.0072 28.5242 17.1152 28.4742 17.1382 28.3639C17.1457 28.33 17.1452 28.2926 17.1367 28.2544C17.1282 28.2163 17.1119 28.1784 17.089 28.1435C17.0661 28.1086 17.0372 28.0775 17.0043 28.0525C16.9714 28.0276 16.9355 28.0093 16.899 27.9992L16.0678 27.7701L17.1286 26.6448C17.1366 26.6363 17.1414 26.6251 17.1427 26.6122C17.1439 26.5994 17.1415 26.5854 17.1356 26.5719C17.1298 26.5584 17.1208 26.5459 17.1097 26.5358C17.0985 26.5257 17.0856 26.5185 17.0725 26.5148L15.5391 26.0922V26.0922ZM21.1189 27.2188L21.0541 27.1873V28.0188C21.0542 28.0558 21.046 28.0949 21.0302 28.1333C21.0144 28.1717 20.9914 28.2084 20.9628 28.2406C20.9343 28.2728 20.9009 28.2998 20.8652 28.3195C20.8295 28.3393 20.7924 28.3512 20.7566 28.3546C20.7015 28.3588 20.6524 28.3424 20.6177 28.3082C20.5829 28.274 20.5644 28.224 20.5653 28.1665V26.4643C20.5653 26.4509 20.569 26.4367 20.576 26.4231C20.583 26.4095 20.5931 26.3972 20.605 26.3877C20.6169 26.3781 20.6302 26.3715 20.6434 26.3689C20.6566 26.3661 20.669 26.3674 20.6794 26.3724L21.2949 26.6727C21.2063 26.819 21.1424 27.0081 21.1189 27.2188V27.2188ZM22.0022 26.4904V26.1934C22.0013 26.1365 22.0197 26.0748 22.0545 26.0186C22.0893 25.9625 22.1383 25.9152 22.1934 25.8845C22.2292 25.8653 22.2664 25.8538 22.302 25.851C22.3377 25.8482 22.371 25.8541 22.3996 25.8683C22.4281 25.8825 22.4512 25.9046 22.467 25.933C22.4828 25.9614 22.491 25.9954 22.4909 26.0324V27.7408C22.4909 27.7541 22.4873 27.7684 22.4802 27.782C22.4732 27.7955 22.4632 27.8078 22.4512 27.8174C22.4394 27.827 22.4261 27.8335 22.4129 27.8362C22.3998 27.8389 22.3873 27.8376 22.3769 27.8326L22.156 27.7249C22.1963 27.6128 22.2243 27.4875 22.2361 27.3542C22.2686 26.9888 22.1713 26.6609 22.0022 26.4904V26.4904ZM14.0418 25.6375C13.8259 25.555 13.6082 25.5402 13.4187 25.595C13.2292 25.6497 13.0772 25.7715 12.9836 25.9435C12.89 26.1155 12.8593 26.3293 12.8958 26.5555C12.9323 26.7817 13.0342 27.0092 13.1875 27.2067C13.3407 27.4042 13.5379 27.5621 13.7518 27.6585C13.9657 27.755 14.1858 27.7854 14.382 27.7455C14.5782 27.7057 14.7407 27.5974 14.8472 27.4358C14.9538 27.2741 14.9991 27.067 14.9771 26.8428C14.9528 26.5936 14.8465 26.3378 14.6762 26.1182C14.5058 25.8987 14.2818 25.7289 14.0418 25.6375V25.6375ZM14.0077 27.2451C13.8916 27.2288 13.7735 27.1749 13.6701 27.0908C13.5666 27.0068 13.483 26.8968 13.4309 26.7765C13.3789 26.6561 13.3611 26.5314 13.38 26.4198C13.3989 26.3083 13.4535 26.2154 13.5362 26.1545C13.6189 26.0935 13.7255 26.0673 13.8411 26.0798C13.9567 26.0922 14.0754 26.1425 14.1806 26.2237C14.2857 26.3049 14.372 26.4129 14.4273 26.5324C14.4826 26.652 14.5042 26.7771 14.489 26.8902C14.473 27.0092 14.4172 27.1085 14.3302 27.1726C14.2432 27.2368 14.1299 27.2622 14.0077 27.2451V27.2451Z" fill="#032B44"/>
<path fill-rule="evenodd" clip-rule="evenodd" d="M21.6604 26.9123L21.6844 26.9239L21.7586 26.9603L21.8082 26.9851L21.8845 27.0238L21.987 27.0769L22.0894 27.131L22.1901 27.1854L22.2877 27.2391L22.3809 27.2915L22.468 27.3417L22.5317 27.3793L22.5839 27.4109L22.6185 27.4323L22.6647 27.4616L22.7122 27.4927L22.7555 27.522L22.8117 27.561L22.8562 27.593L22.901 27.6261L22.9459 27.6601L22.9951 27.6984L23.0514 27.7436L23.0968 27.7812L23.1425 27.8199L23.1882 27.8598L23.2399 27.906L23.2852 27.9475L23.3095 27.9702L23.3418 28.0008L23.3881 28.0457L23.4345 28.0918L23.4677 28.1254L23.489 28.1473L23.5347 28.1951L23.5805 28.2441L23.6265 28.2944L23.6734 28.347C23.696 28.3726 23.7186 28.3987 23.7412 28.4253L23.787 28.4795L23.8328 28.5351L23.8788 28.5921L23.9253 28.651C23.9789 28.7197 24.0324 28.791 24.086 28.8652C24.7497 28.2978 25.1228 27.4384 25.6283 26.7528C25.7355 26.6075 26.1129 26.8863 26.1826 26.8953C26.3563 26.9179 26.4632 26.7137 26.5423 26.9488C26.5726 27.0389 26.6221 27.1323 26.6083 27.2265C26.4271 28.4592 25.8085 29.754 25.1087 30.7753C25.0318 30.8875 24.9417 30.9935 24.8356 31.0788C24.6609 31.2191 24.2742 30.9461 24.1852 30.8883C23.8404 30.6642 23.533 30.3538 23.4106 29.95L23.401 29.9281L23.3812 29.8836L23.3608 29.8384C23.341 29.7949 23.3211 29.7523 23.3012 29.7104L23.2729 29.6518L23.2422 29.5892L23.2109 29.527L23.1793 29.4658L23.1477 29.4059L23.1155 29.3464L23.0832 29.2879L23.0501 29.2297L23.0136 29.1669L22.9918 29.1304L22.9591 29.0764L22.9261 29.0234L22.8923 28.9704L22.8558 28.9147L22.8337 28.8817L22.8005 28.8332L22.7671 28.7855L22.7329 28.738L22.6959 28.688L22.6736 28.6585L22.6401 28.6151L22.6064 28.5726L22.5721 28.5305L22.5345 28.4856L22.5008 28.4465L22.467 28.4083L22.4215 28.3586L22.3832 28.3181L22.3493 28.2833L22.304 28.2383L22.265 28.201L22.2197 28.1592L22.1858 28.1288L22.1404 28.0897L22.09 28.0481L22.0466 28.0139L22.0234 27.9968L21.9955 27.9771L21.9461 27.9435L21.8949 27.9098L21.8628 27.889L21.8307 27.8684L21.7971 27.8471L21.7604 27.8241L21.6912 27.781L21.6443 27.7522L21.5997 27.725L21.5512 27.6956L21.4978 27.6635L21.4544 27.6376L21.41 27.6113C21.4098 27.6119 21.4094 27.6118 21.4094 27.6112L21.4094 27.611L21.1094 27.4417L21.1146 27.2567C21.1319 27.0627 21.1833 26.8855 21.2572 26.7413C21.3492 26.7691 21.4948 26.8325 21.6604 26.9123V26.9123Z" fill="#FFC700"/>
<path fill-rule="evenodd" clip-rule="evenodd" d="M24.4904 23.6068L18.7309 25.7428L17.6855 19.4017L23.445 17.2656L24.4904 23.6068ZM21.0009 19.7058C21.8664 19.5388 22.7216 20.1934 22.9095 21.1667C23.0974 22.1401 22.5473 23.066 21.6817 23.2331C20.8162 23.4001 19.961 22.7455 19.7731 21.7722C19.5852 20.7988 20.1354 19.8729 21.0009 19.7058Z" fill="#EECC8C"/>
<path fill-rule="evenodd" clip-rule="evenodd" d="M21.6014 24.6811L21.7123 25.8221L22.5816 25.4222L22.478 24.356L21.6014 24.6811Z" fill="#005BFF"/>
<path fill-rule="evenodd" clip-rule="evenodd" d="M22.3621 25.1834C22.3743 25.1872 22.3836 25.1963 22.3884 25.2091C22.3913 25.2175 22.3921 25.2273 22.3909 25.2375C22.3897 25.2478 22.3864 25.2584 22.3813 25.2685C22.3761 25.2787 22.3693 25.2881 22.3613 25.2961C22.3533 25.304 22.3443 25.3104 22.335 25.3147L21.9046 25.5126C21.9013 25.5142 21.8979 25.5147 21.8949 25.5142C21.8918 25.5137 21.8893 25.5121 21.8875 25.5097C21.8857 25.5073 21.8848 25.5041 21.8849 25.5005C21.8849 25.4969 21.8859 25.493 21.8877 25.4894L22.1219 25.0214L21.9125 25.1177C21.9032 25.122 21.8938 25.1241 21.885 25.1239C21.8762 25.1236 21.8682 25.121 21.8616 25.1163C21.855 25.1115 21.85 25.1047 21.847 25.0964C21.844 25.0881 21.8429 25.0785 21.8441 25.0682C21.846 25.0523 21.8528 25.0358 21.8633 25.0215C21.8738 25.0072 21.8873 24.996 21.9018 24.9895L22.3306 24.7923C22.3339 24.7908 22.3373 24.7902 22.3403 24.7907C22.3434 24.7912 22.3459 24.7928 22.3477 24.7952C22.3495 24.7977 22.3504 24.8009 22.3504 24.8045C22.3503 24.8081 22.3494 24.812 22.3475 24.8156L22.1133 25.2836L22.3209 25.1881C22.3353 25.1812 22.3498 25.1795 22.3621 25.1834ZM21.7891 24.609C21.8268 24.7827 21.951 24.8717 22.0844 24.8103C22.2067 24.7541 22.2984 24.5891 22.3146 24.4141L22.188 24.461C22.1742 24.5682 22.1239 24.6591 22.072 24.6829C22.0161 24.7086 21.9474 24.6616 21.9177 24.5613L21.7891 24.609Z" fill="white"/>
<path fill-rule="evenodd" clip-rule="evenodd" d="M20.1585 18.4811L21.0471 18.1516L21.4008 19.6823C21.2693 19.6705 21.1351 19.6766 21.0006 19.7026C20.8147 19.7384 20.6433 19.8094 20.4906 19.9082L20.1585 18.4811ZM22.4791 24.3493L21.6001 24.6753L21.2681 23.2488C21.4038 23.2622 21.5425 23.2566 21.6814 23.2298C21.8608 23.1952 22.0267 23.1279 22.1753 23.0344L22.4791 24.3493Z" fill="#005BFF"/>
<path fill-rule="evenodd" clip-rule="evenodd" d="M21.9542 24.0316C22.0987 23.9403 22.2548 24.0342 22.303 24.2414C22.3157 24.2961 22.3197 24.3533 22.3159 24.4095L22.1898 24.4563C22.1939 24.412 22.1917 24.3647 22.181 24.3185C22.1477 24.1754 22.0492 24.115 21.9833 24.1566C21.9175 24.1982 21.8688 24.3516 21.9021 24.4948C21.9073 24.5171 21.914 24.5374 21.922 24.5556L21.7889 24.605C21.7856 24.5943 21.7826 24.5833 21.78 24.5719C21.7318 24.3647 21.8098 24.1229 21.9542 24.0316ZM20.3595 18.4062C20.3593 18.4087 20.3594 18.411 20.3599 18.4131L20.459 18.839C20.466 18.8691 20.4921 18.8843 20.5222 18.872C20.5315 18.8683 20.5407 18.8624 20.549 18.8546C20.5573 18.8469 20.5646 18.8375 20.5702 18.8272C20.5759 18.8168 20.5799 18.8058 20.5819 18.795C20.5838 18.7841 20.5837 18.7736 20.5816 18.7643L20.5321 18.5516L20.9448 18.6021C20.9478 18.6025 20.9512 18.6017 20.9546 18.6C20.9579 18.5983 20.961 18.5956 20.9636 18.5922C20.9662 18.5889 20.9681 18.585 20.9692 18.5811C20.9702 18.5771 20.9704 18.5733 20.9696 18.5699L20.8861 18.2109L20.7572 18.2587L20.7974 18.4316L20.4165 18.3851L20.3595 18.4062ZM22.0879 23.4044C22.0938 23.4103 22.098 23.4183 22.1002 23.4276L22.1915 23.8198C22.1923 23.8231 22.1921 23.827 22.1911 23.831C22.19 23.8349 22.1881 23.8388 22.1855 23.8421C22.1829 23.8455 22.1797 23.8482 22.1764 23.8499C22.1731 23.8517 22.1697 23.8524 22.1666 23.852L21.754 23.8015L21.8035 24.0141C21.8056 24.0235 21.8057 24.034 21.8037 24.0449C21.8018 24.0558 21.7978 24.0668 21.7921 24.0771C21.7864 24.0874 21.7791 24.0968 21.7708 24.1045C21.7625 24.1123 21.7534 24.1182 21.7441 24.1219C21.7139 24.1342 21.6879 24.119 21.6809 24.0889L21.5817 23.663C21.581 23.6596 21.5811 23.6558 21.5822 23.6519C21.5832 23.648 21.5851 23.6442 21.5877 23.6408C21.5903 23.6375 21.5934 23.6349 21.5967 23.6331C21.5999 23.6314 21.6033 23.6307 21.6064 23.6311L22.0193 23.6816L21.9787 23.5071C21.9717 23.477 21.9849 23.437 22.0123 23.4129C22.0208 23.4053 22.03 23.3997 22.0393 23.3963C22.0486 23.3929 22.0578 23.3919 22.0662 23.3933C22.0747 23.3947 22.0821 23.3985 22.0879 23.4044ZM21.1114 19.685L21.1805 19.4949C21.182 19.491 21.1825 19.487 21.182 19.4834C21.1816 19.4798 21.1803 19.4768 21.1781 19.4746C21.176 19.4725 21.1732 19.4713 21.1699 19.4713C21.1667 19.4713 21.1633 19.4724 21.16 19.4745L20.7404 19.7397C20.7262 19.7484 20.7136 19.7618 20.7045 19.7777C20.7009 19.7841 20.6979 19.7907 20.6957 19.7973C20.7923 19.7548 20.8946 19.7225 21.0017 19.7018C21.0383 19.6948 21.0749 19.6892 21.1114 19.685ZM22.0211 23.1187C21.9791 23.1385 21.9359 23.1563 21.8917 23.172C21.884 23.2026 21.8696 23.2329 21.85 23.2595C21.8275 23.2899 21.7994 23.314 21.7696 23.3284C21.7382 23.3435 21.7066 23.3471 21.6798 23.3386C21.6528 23.3301 21.6321 23.3099 21.6208 23.2813C21.6159 23.2689 21.6129 23.2553 21.6117 23.2409C21.5698 23.2468 21.528 23.2509 21.4863 23.2531C21.4855 23.266 21.4855 23.2787 21.4862 23.2912C21.4897 23.3517 21.5103 23.4033 21.5452 23.4389C21.58 23.4744 21.6274 23.4921 21.6808 23.4896C21.7342 23.4871 21.7911 23.4645 21.8435 23.4249C21.9019 23.3809 21.9514 23.3184 21.9838 23.2479C22.0034 23.2053 22.016 23.1613 22.0211 23.1187ZM20.7324 18.7816C20.8768 18.6903 21.0329 18.7843 21.0811 18.9914C21.1293 19.1986 21.0513 19.4405 20.9069 19.5318C20.7625 19.6231 20.6063 19.5292 20.5581 19.322C20.5099 19.1149 20.5879 18.8729 20.7324 18.7816ZM20.8778 19.4068C20.9437 19.3652 20.9924 19.2117 20.9591 19.0686C20.9258 18.9255 20.8273 18.8651 20.7614 18.9067C20.6956 18.9483 20.6469 19.1018 20.6802 19.2449C20.7135 19.388 20.812 19.4484 20.8778 19.4068Z" fill="white"/>
<path fill-rule="evenodd" clip-rule="evenodd" d="M26.9284 23.9974C27.3396 24.4329 27.8242 23.7343 26.657 22.3377C26.3018 21.9127 25.897 21.4609 25.429 21.0693C24.3 20.1246 23.1344 19.8968 22.1063 20.0315C21.4282 20.1203 20.8099 20.3668 20.3012 20.6692C19.2863 21.2728 20.1892 22.5327 21.0627 22.5881C21.2117 22.5975 21.3611 22.6132 21.509 22.639C22.1354 22.7478 22.7327 23.0347 23.1291 23.7756C23.7242 24.8878 23.9599 26.0035 24.0199 26.2813C24.0934 26.6219 24.6175 26.1004 24.4218 25.034C25.06 26.0164 26.469 27.2401 25.9661 25.9796C26.5967 26.9274 27.1609 26.564 26.5366 24.9497C27.1867 26.2517 27.2957 24.7589 26.9284 23.9974V23.9974Z" fill="url(#paint8_linear_2334_12628)"/>
<defs>
<linearGradient id="paint0_linear_2334_12628" x1="13.7639" y1="19.4429" x2="5.59129" y2="18.383" gradientUnits="userSpaceOnUse">
<stop stop-color="#3ADF68"/>
<stop offset="1" stop-color="#3EB860"/>
</linearGradient>
<linearGradient id="paint1_linear_2334_12628" x1="7.12046" y1="17.3715" x2="8.84492" y2="17.464" gradientUnits="userSpaceOnUse">
<stop stop-color="#3DBE61"/>
<stop offset="1" stop-color="#3ADF68"/>
</linearGradient>
<linearGradient id="paint2_linear_2334_12628" x1="6.99166" y1="18.1578" x2="8.06621" y2="17.7164" gradientUnits="userSpaceOnUse">
<stop stop-color="#3DBE61"/>
<stop offset="1" stop-color="#3ADF68"/>
</linearGradient>
<linearGradient id="paint3_linear_2334_12628" x1="8.05942" y1="18.8712" x2="7.14746" y2="19.2301" gradientUnits="userSpaceOnUse">
<stop stop-color="#3ADF68"/>
<stop offset="1" stop-color="#3DBF61"/>
</linearGradient>
<linearGradient id="paint4_linear_2334_12628" x1="8.09571" y1="19.89" x2="7.19164" y2="20.425" gradientUnits="userSpaceOnUse">
<stop stop-color="#3ADF68"/>
<stop offset="1" stop-color="#3DC062"/>
</linearGradient>
<linearGradient id="paint5_linear_2334_12628" x1="19.4535" y1="11.6552" x2="20.4607" y2="31.0409" gradientUnits="userSpaceOnUse">
<stop stop-color="#3FE06C"/>
<stop offset="0.4" stop-color="#59E681"/>
<stop offset="1" stop-color="#3DC062"/>
</linearGradient>
<linearGradient id="paint6_linear_2334_12628" x1="19.1846" y1="5.33986" x2="19.1591" y2="12.3877" gradientUnits="userSpaceOnUse">
<stop stop-color="#60E887"/>
<stop offset="1" stop-color="#40E06D"/>
</linearGradient>
<linearGradient id="paint7_linear_2334_12628" x1="21.1401" y1="21.5961" x2="27.2433" y2="25.0113" gradientUnits="userSpaceOnUse">
<stop stop-color="#3ADF68"/>
<stop offset="1" stop-color="#3EB860"/>
</linearGradient>
<linearGradient id="paint8_linear_2334_12628" x1="21.1509" y1="21.6043" x2="27.2541" y2="25.0195" gradientUnits="userSpaceOnUse">
<stop stop-color="#3ADF68"/>
<stop offset="1" stop-color="#3EB860"/>
</linearGradient>
</defs>
</svg>
