<svg width="34" height="34" viewBox="0 0 34 34" fill="none" xmlns="http://www.w3.org/2000/svg">
<circle cx="17.0375" cy="16.8539" r="16.8539" fill="#005BFF"/>
<path d="M20.0964 25.7734H19.1641V30.0187H20.0964V25.7734Z" fill="#124D6E"/>
<path d="M17.043 30.4714H22.8857C23.1286 30.4714 23.3255 30.2745 23.3255 30.0317V30.01C23.3255 29.7672 23.1286 29.5703 22.8857 29.5703H17.043V30.4714Z" fill="#124D6E"/>
<path d="M14.4276 23.9084L14.957 24.4805L10.6943 28.425L10.1649 27.8529L14.4276 23.9084Z" fill="#44CF6A"/>
<path d="M18.4175 25.7733L19.1133 26.125L16.8775 30.548L16.1817 30.1962L18.4175 25.7733Z" fill="#44CF6A"/>
<path d="M10.3765 27.6551C11.2237 26.5326 11.1369 25.3464 10.381 24.6326C9.62511 23.9188 8.45951 23.9222 7.38736 24.8322L7.05924 25.1434C6.95801 25.2506 6.95382 25.4109 7.04973 25.5014L9.90134 28.1943L11.2525 29.4057C11.3826 29.5224 11.5934 29.5022 11.7274 29.3604C11.8658 29.2139 11.869 28.9941 11.7347 28.8735L10.3765 27.6551Z" fill="url(#paint0_linear_2334_12639)"/>
<path d="M17.1635 30.6888C17.7025 29.3888 17.2859 28.2368 16.3288 27.7024C15.3717 27.1679 14.2023 27.4342 13.3783 28.5752L13.1352 28.9566C13.0634 29.0853 13.1036 29.2445 13.2252 29.3124L16.8361 31.3287L18.0621 31.9803C18.2251 32.0661 18.4312 31.9985 18.5263 31.8283C18.6246 31.6523 18.5669 31.4344 18.3985 31.3457L17.1635 30.6888Z" fill="url(#paint1_linear_2334_12639)"/>
<path d="M22.4612 30.4766C22.0904 30.4766 21.7897 30.7773 21.7897 31.1482C21.7897 31.519 22.0904 31.8197 22.4612 31.8197C22.8321 31.8197 23.1328 31.519 23.1328 31.1482C23.1328 30.7773 22.8321 30.4766 22.4612 30.4766Z" fill="#012354"/>
<path d="M19.5343 21.8087H23.6397C24.5237 21.8087 25.2403 21.0921 25.2403 20.2081V13.6085C25.2403 12.7245 24.5237 12.0078 23.6397 12.0078H19.5343C18.6502 12.0078 17.9336 12.7245 17.9336 13.6085V20.2081C17.9336 21.0921 18.6502 21.8087 19.5343 21.8087Z" fill="#124D6E"/>
<path d="M17.5059 26.156H24.7756C25.1005 26.156 25.3639 25.8927 25.3639 25.5678V25.0726C25.3639 24.7478 25.1005 24.4844 24.7756 24.4844H17.5059V26.156Z" fill="#124D6E"/>
<path d="M25.5165 20.7386C25.5165 17.9486 22.7163 15.6875 19.2616 15.6875C15.8075 15.6875 13.0067 17.9486 13.0067 20.7386C13.0067 21.3522 13.1422 21.9404 13.3901 22.484C13.4401 22.5935 13.4962 22.7005 13.555 22.8063L12.707 23.6834C13.4737 24.4872 14.1644 25.1461 15.3153 26.0443L16.1843 25.1372C16.5033 25.283 16.8396 25.4069 17.1902 25.5063L16.7119 26.5947C17.8409 27.1023 18.6079 27.4657 19.789 27.7419L20.6084 25.6727C23.4156 25.1751 25.5165 23.1552 25.5165 20.7386Z" fill="url(#paint2_linear_2334_12639)"/>
<path d="M17.2383 5.91703C17.2383 7.11496 16.4319 8.08594 15.4372 8.08594C14.4424 8.08594 13.6361 7.11496 13.6361 5.91703C13.6361 4.71917 14.4424 3.74819 15.4372 3.74819C16.4319 3.74819 17.2383 4.71917 17.2383 5.91703Z" fill="#2179F9"/>
<path d="M28.3095 20.957L25.0775 21.5425L14.3305 21.0088L14.1172 15.0357C14.1172 15.0357 16.2502 13.7558 16.837 13.1425C17.4238 12.5292 17.941 11.4102 17.9124 10.822C17.9069 10.7082 17.892 10.608 17.8687 10.5194C17.7638 10.2605 17.6037 10.0308 16.9883 9.93675C16.3593 9.8407 15.5156 9.15647 15.2819 8.25899C14.8082 6.4462 14.8238 5.16094 15.0685 4.12165C15.1496 3.77684 15.2729 3.47147 15.4794 3.26361C15.4944 3.24871 15.5095 3.23368 15.5251 3.21932C15.4692 3.32567 15.4195 3.43675 15.3766 3.55262L15.4304 3.48923C15.6525 3.24113 15.9538 3.09121 16.345 3.07558C16.4226 2.98898 16.5058 2.91202 16.5951 2.84318C17.419 2.81524 19.3619 2.84863 19.3619 2.84863C19.4825 2.84863 19.6004 2.86293 19.7135 2.89093C19.8368 2.9202 19.9541 2.96516 20.0645 3.0231C20.5047 3.25417 20.8244 3.69569 20.889 4.2157C20.8898 4.21909 20.8898 4.22322 20.8904 4.22661C20.8986 4.29818 20.9068 4.36496 20.9143 4.42901C21.0063 5.23863 21.0029 5.48593 20.9313 6.55522C20.8557 7.69262 20.6329 8.54653 20.6397 9.62054C20.6472 10.8343 21.1037 11.9158 21.1037 11.9158L24.4104 15.3287C24.4104 15.3287 26.4466 17.5278 27.3707 18.8486C28.2594 20.1202 28.3095 20.957 28.3095 20.957Z" fill="#4BE274"/>
<path d="M28.3095 20.9571L25.0775 21.5426L14.3305 21.0089L14.1172 15.0358C14.1172 15.0358 16.2502 13.7559 16.837 13.1426C17.4238 12.5293 17.941 11.4103 17.9124 10.8221C17.9069 10.7083 17.892 10.6081 17.8687 10.5195C17.7638 10.2606 17.6037 10.0309 16.9883 9.93685C16.3593 9.8408 15.5156 9.15657 15.2819 8.25909C14.8082 6.4463 14.7169 5.1651 14.9615 4.12581C15.0426 3.78106 15.2123 3.40619 15.4181 3.19766C15.5258 3.08931 15.6505 3.01575 15.784 2.9646C15.7622 2.99799 15.7411 3.03277 15.7214 3.06816C15.6962 3.11046 15.6724 3.15337 15.6491 3.19766C15.8488 3.01302 16.0056 2.91957 16.2202 2.87666C16.2359 2.87327 16.2516 2.87055 16.2673 2.86848C16.2884 2.86509 16.3102 2.86236 16.332 2.85964C16.3531 2.85691 16.375 2.85491 16.3974 2.85279C16.4186 2.85146 16.441 2.85006 16.4635 2.84873C16.4758 2.84806 16.5017 2.84733 16.533 2.846C16.5392 2.84534 16.546 2.84534 16.5521 2.84534C16.5548 2.8446 16.5569 2.8446 16.5597 2.8446C16.5712 2.84401 16.5827 2.84401 16.5951 2.84327C16.6046 2.84261 16.6149 2.84261 16.6251 2.84261C16.6346 2.84261 16.6441 2.84261 16.6537 2.84188C16.6864 2.84055 16.7136 2.83988 16.7287 2.83915C17.6111 2.81873 19.3619 2.84873 19.3619 2.84873C19.4825 2.84873 19.5997 2.86303 19.7129 2.8903L19.7135 2.89103C19.8368 2.9203 19.9541 2.96526 20.0645 3.0232C20.5047 3.25427 20.8244 3.69579 20.889 4.2158C20.8898 4.21919 20.8898 4.22332 20.8904 4.22671C20.8986 4.29828 20.9068 4.36506 20.9143 4.42911C21.0063 5.23873 21.0029 5.48603 20.9313 6.55532C20.8557 7.69271 20.6329 8.54663 20.6397 9.62064C20.6472 10.8344 21.1037 11.9159 21.1037 11.9159L24.4104 15.3288C24.4104 15.3288 26.4466 17.5279 27.3707 18.8487C28.2594 20.1203 28.3095 20.9571 28.3095 20.9571Z" fill="#4BE274"/>
<path d="M16.4654 2.84859C16.088 2.86802 15.6979 2.91777 15.4202 3.19786C15.214 3.40592 15.0447 3.78099 14.9635 4.12581C14.7189 5.16503 14.8101 6.4461 15.2838 8.25895C15.5176 9.15643 16.3612 9.84067 16.9902 9.93671C17.6056 10.0308 17.7657 10.2604 17.8708 10.5194C17.8939 10.608 17.9089 10.7081 17.9143 10.822C17.9429 11.4101 17.4257 12.5291 16.839 13.1424C16.2521 13.7558 14.1191 15.0356 14.1191 15.0356L14.3325 21.0088L25.0795 21.5424L28.3247 20.9789C28.3247 20.9789 28.5265 20.5623 27.3727 18.8485C26.4725 17.5114 24.4123 15.3286 24.4123 15.3286L21.1057 11.9158C21.1057 11.9158 20.6491 10.8342 20.6417 9.62057C20.6348 8.54649 20.8577 7.69258 20.9334 6.55518C21.0102 5.40209 21.0083 5.20447 20.8924 4.22657C20.8917 4.22318 20.8917 4.21913 20.891 4.2156C20.8263 3.69566 20.5067 3.25413 20.0665 3.02306C19.8552 2.91125 19.616 2.84859 19.3638 2.84859C19.3638 2.84859 18.3974 2.83203 17.5385 2.83203C17.1092 2.83203 16.7067 2.83616 16.4654 2.84859Z" fill="url(#paint3_linear_2334_12639)"/>
<path d="M9.67343 6.45524C9.57326 7.25282 9.65208 7.81673 9.78983 9.15081C9.1916 8.68714 8.22534 8.75744 9.0609 11.1063C9.0609 11.1063 8.10375 10.9161 8.61924 12.6851C8.95654 13.8421 9.46218 15.0626 10.8166 16.0007L15.0699 15.0027C15.0699 15.0027 13.1203 13.0034 12.3676 11.7671C11.4816 10.3117 10.8036 8.09216 10.6689 6.50027C10.6199 5.92226 10.4298 5.69531 10.2278 5.69531C9.98638 5.69525 9.72804 6.01917 9.67343 6.45524Z" fill="url(#paint4_linear_2334_12639)"/>
<path d="M19.0522 12.916L17.1781 12.2569L14.1188 14.6093L14.0176 21.4313H25.9275L23.0344 19.6227L25.9677 16.4938L21.4407 11.9258L19.0522 12.916Z" fill="url(#paint5_linear_2334_12639)"/>
<path d="M17.4879 11.7924L19.0496 12.561L18.0763 14.0143L16.1305 12.8062L17.4879 11.7924Z" fill="white"/>
<path d="M19.0499 12.5612L21.1764 11.4949L22.3699 12.5612L20.2766 13.908L19.0499 12.5612Z" fill="white"/>
<path d="M16.159 21.4324H6.65596C6.14799 21.4324 5.73633 21.0207 5.73633 20.5128V14.8259C5.73633 14.3179 6.14799 13.9062 6.65596 13.9062H16.159C16.6669 13.9062 17.0786 14.3179 17.0786 14.8259V20.5128C17.0786 21.0207 16.6669 21.4324 16.159 21.4324Z" fill="url(#paint6_linear_2334_12639)"/>
<path d="M18.0781 14.012L19.0515 12.5586L20.2782 13.9053L19.6507 14.7977L18.7594 14.8249L18.0781 14.012Z" fill="#012354"/>
<path d="M18.7595 14.8221L18.3883 21.5803L21.4131 21.3583L19.6507 14.7948L18.7595 14.8221Z" fill="#012354"/>
<path d="M6.5779 21.4336H27.498V22.1891H6.5779V21.4336Z" fill="#012354"/>
<path d="M22.0299 23.5635C21.5888 23.5322 21.4772 24.2471 21.9217 24.3686C22.2876 24.4686 22.9425 24.0096 22.9425 24.0096V24.0095C22.9425 24.0095 22.9023 23.2108 22.5987 22.9836C22.2298 22.7075 21.7342 23.2347 22.0299 23.5635Z" fill="white"/>
<path d="M16.3986 2.85533C16.1886 2.86764 15.9774 2.89418 15.7852 2.96714C16.2636 2.21267 17.0119 1.76562 18.0668 1.76562C20.3389 1.76562 20.8568 3.27444 21.0483 4.40911L20.9154 4.43159L20.8411 4.4439L20.4438 4.51134C20.3661 4.05545 20.2503 3.6132 20.0165 3.25129C19.932 3.12039 19.8332 3.00053 19.7146 2.89351L19.714 2.89278C19.363 2.5773 18.8458 2.37896 18.0668 2.37896C17.5564 2.37896 17.1652 2.44853 16.7297 2.8417C16.7148 2.84243 16.6875 2.84303 16.6548 2.84442" fill="#2179F9"/>
<path d="M22.4922 6.28129C22.4922 7.52824 21.7619 8.53906 20.8612 8.53906C19.9603 8.53906 19.23 7.52824 19.23 6.28129C19.23 5.03435 19.9603 4.02352 20.8612 4.02352C21.7619 4.02352 22.4922 5.03435 22.4922 6.28129Z" fill="#2179F9"/>
<path d="M17.1598 10.1091C17.125 10.1091 17.1031 10.1082 17.0957 10.1077L17.1135 9.7675C17.188 9.77063 18.9735 9.83488 20.1297 7.88281L20.423 8.05648C19.2692 10.0045 17.521 10.1091 17.1598 10.1091Z" fill="#2179F9"/>
<path d="M17.8535 9.90672C17.8535 10.1912 17.4903 10.4219 17.0425 10.4219C16.5946 10.4219 16.2314 10.1912 16.2314 9.90672C16.2314 9.62224 16.5946 9.39163 17.0425 9.39163C17.4903 9.39163 17.8535 9.62224 17.8535 9.90672Z" fill="#2179F9"/>
<path d="M18.0859 7.03673C17.6428 6.93664 17.3072 6.35969 17.288 5.66501C17.2667 4.88928 17.6413 4.28329 18.141 4.28516C18.185 4.28535 18.2292 4.29048 18.2726 4.30019C18.7157 4.40038 19.0512 4.97714 19.0704 5.67192C19.0918 6.44756 18.7172 7.05373 18.2174 7.05177C18.1735 7.05158 18.1293 7.04644 18.0859 7.03673Z" fill="white"/>
<path d="M15.7402 7.11095C15.2971 7.01086 14.9615 6.43391 14.9423 5.73923C14.921 4.96349 15.2956 4.35751 15.7953 4.35938C15.8393 4.35957 15.8835 4.3647 15.9269 4.37441C16.37 4.4746 16.7055 5.05136 16.7247 5.74614C16.7461 6.52178 16.3715 7.12795 15.8717 7.12598C15.8278 7.1258 15.7835 7.12066 15.7402 7.11095Z" fill="white"/>
<path d="M16.6757 4.86005C16.6757 4.86005 16.626 7.02157 16.3316 7.49017C16.0373 7.95883 15.5803 8.13875 15.0038 8.22289C14.5236 8.29286 14.0628 8.26346 13.7462 8.32313C13.5578 8.35865 13.5514 8.52952 13.7246 8.61532C13.9689 8.73638 14.7838 8.90952 15.4705 8.72281C15.4705 8.72281 15.1393 8.95468 14.9309 9.30528C14.7537 9.60326 14.9329 9.74394 15.232 9.56874C15.8652 9.19786 15.9495 9.10042 16.4357 8.86063C16.9357 8.61393 17.3867 8.46866 17.7401 8.45875C18.3001 8.44305 18.2156 8.06971 17.9067 8.04969C17.7101 8.03698 17.295 7.93794 17.19 7.34277C17.0208 6.38277 17.0177 4.87761 17.0177 4.87761C17.0223 4.59412 16.6891 4.59758 16.6757 4.86005Z" fill="#FFC108"/>
<path d="M15.4731 8.71918C15.4731 8.71918 15.1419 8.95105 14.9335 9.30165C14.7563 9.59963 14.9355 9.74031 15.2346 9.56511C15.8678 9.19423 15.9521 9.09678 16.4383 8.857C16.9383 8.6103 17.3893 8.46503 17.7427 8.45512C16.8095 8.31876 15.8621 8.64089 15.4731 8.71918Z" fill="#FFB70F"/>
<path d="M18.6355 6.04585C18.7149 6.52536 18.5375 6.95411 18.2392 7.0035C17.9406 7.05294 17.6344 6.70428 17.555 6.22478C17.4756 5.74513 17.653 5.31639 17.9516 5.26695C18.2499 5.21755 18.5561 5.56621 18.6355 6.04585Z" fill="#012354"/>
<path d="M16.3224 6.12439C16.4011 6.59936 16.2253 7.02404 15.9298 7.07297C15.6341 7.12194 15.3308 6.77658 15.2521 6.30162C15.1735 5.82651 15.3492 5.40183 15.645 5.35286C15.9405 5.30393 16.2438 5.64929 16.3224 6.12439Z" fill="#012354"/>
<path d="M17.9648 2.24919C18.066 2.21573 18.1782 2.20123 18.2946 2.20915C18.4107 2.2172 18.5337 2.24999 18.6468 2.31504C18.6769 2.32927 18.702 2.34943 18.7296 2.36818L18.7705 2.39765C18.784 2.40776 18.7952 2.41953 18.8078 2.43064C18.8321 2.45332 18.8573 2.4766 18.8811 2.50108C18.9023 2.52635 18.9235 2.55243 18.9447 2.5791C18.9552 2.59247 18.9664 2.60597 18.9762 2.61967L19.0027 2.66158L19.0553 2.74811C19.086 2.80645 19.112 2.86611 19.1398 2.9279L18.4627 3.03672C18.4678 2.99874 18.4753 2.95724 18.4793 2.91673L18.4813 2.85813L18.4824 2.8274C18.4819 2.81782 18.4807 2.80878 18.4799 2.7992L18.4745 2.7398L18.4615 2.68313C18.459 2.67362 18.4575 2.66278 18.454 2.6538L18.443 2.62646C18.4352 2.60823 18.4292 2.58695 18.4179 2.57045C18.3804 2.49616 18.3195 2.42785 18.241 2.37211C18.1627 2.31637 18.0683 2.27273 17.9648 2.24919Z" fill="#46E071"/>
<path d="M18.9849 1.95703C19.0223 2.14321 19.0758 2.32286 19.1395 2.49434C19.1712 2.58001 19.2059 2.66348 19.244 2.74376C19.2809 2.82438 19.3233 2.90101 19.3659 2.97437L18.6934 3.1088C18.7028 3.0037 18.7145 2.9012 18.7329 2.8011C18.7502 2.70106 18.7718 2.60335 18.7969 2.50757C18.8467 2.31634 18.9085 2.1319 18.9849 1.95703Z" fill="#46E071"/>
<path d="M20.2101 2.03095C20.0995 2.05795 19.9987 2.10677 19.9153 2.16777C19.8319 2.22923 19.7687 2.30492 19.7318 2.38587C19.7203 2.40389 19.7151 2.42711 19.7077 2.44693L19.6974 2.47673C19.6942 2.48664 19.6932 2.49828 19.6911 2.50865C19.6877 2.53007 19.6831 2.54976 19.6805 2.57025L19.6785 2.63443C19.6784 2.64494 19.6771 2.65452 19.6778 2.6653L19.6811 2.69835L19.6871 2.76174C19.6947 2.80557 19.7056 2.84994 19.7137 2.89125L19.0293 2.84788C19.0516 2.77957 19.0723 2.71365 19.0978 2.6486L19.1438 2.55116L19.167 2.5038C19.1754 2.48817 19.1861 2.4726 19.1957 2.45724C19.2153 2.42658 19.2352 2.39658 19.255 2.36744C19.2773 2.33878 19.3022 2.3115 19.3256 2.2847C19.3379 2.27153 19.3487 2.25789 19.3621 2.24572L19.403 2.2104C19.4307 2.18765 19.4556 2.16371 19.4867 2.14602C19.6022 2.0666 19.7317 2.02263 19.8553 2.0072C19.9792 1.99217 20.0996 2.00095 20.2101 2.03095Z" fill="#4BE274"/>
<path d="M12.3057 17.9895C12.2185 17.9895 11.9785 17.9037 11.8593 17.8181C11.7112 17.7115 11.5716 17.5166 11.5362 17.3332C11.4996 17.144 11.5689 16.9521 11.6696 16.8239C11.7635 16.7042 11.8776 16.6445 11.8776 16.6445C11.8007 16.4388 11.6388 16.3807 11.5298 16.3611C11.4336 16.3438 11.3438 16.3439 11.254 16.3929C11.186 16.43 11.1171 16.4336 11.054 16.4125C10.9591 16.3807 10.9796 16.3696 10.8847 16.3537C10.746 16.3305 10.6128 16.3733 10.4897 16.5006C10.3666 16.6279 10.3255 16.9071 10.305 17.1177C10.2845 17.3283 10.222 17.3895 10.1511 17.4997C10.0716 17.6234 9.93568 17.8278 9.94585 18.1119C9.95616 18.3959 10.036 18.5638 10.1922 18.7094C10.6282 19.1159 11.1309 18.849 11.1309 18.849C11.5413 19.0473 11.9491 18.9151 12.1922 18.5453C12.358 18.2929 12.3057 17.9895 12.3057 17.9895Z" fill="white"/>
<path d="M12.3023 15.6016C11.5482 15.6016 11.4199 16.2529 11.4199 16.2529C12.2818 16.2186 12.3023 15.6016 12.3023 15.6016Z" fill="white"/>
<path d="M19.4969 26.3734C19.4264 26.746 19.9361 27.3622 19.9361 27.3622L20.308 26.4171C20.3042 25.9749 19.5826 25.9206 19.4969 26.3734Z" fill="white"/>
<path d="M18.4069 23.4838L18.4068 23.4839C18.0762 23.1903 17.5522 23.6894 17.8308 24.0565C18.0594 24.3578 18.8551 24.3932 18.8589 24.3934H18.859C18.859 24.3934 19.3136 23.7354 19.2113 23.3704C19.0869 22.9267 18.3726 23.0429 18.4069 23.4838Z" fill="white"/>
<path d="M14.2742 23.6115V23.6116C13.8485 23.7311 13.9851 24.4417 14.4445 24.4057C14.821 24.3763 15.2799 23.7283 15.2837 23.7228H15.2838C15.2838 23.7228 14.976 22.9847 14.6135 22.8734C14.173 22.7384 13.8848 23.402 14.2742 23.6115Z" fill="white"/>
<path d="M10.5127 11.3253C9.96155 10.2053 9.78987 9.15113 9.78987 9.15113C9.53705 8.94979 9.33678 8.92578 9.19304 8.92578C8.31771 8.92598 9.39804 11.3253 10.5127 11.3253Z" fill="url(#paint7_radial_2334_12639)"/>
<path d="M9.79099 12.8364C9.28435 11.8575 9.05893 11.1057 9.05893 11.1057C9.03053 11.1029 9.00326 11.1016 8.97725 11.1016C8.06028 11.1016 8.58528 12.7716 9.79099 12.8364Z" fill="url(#paint8_radial_2334_12639)"/>
<path d="M16.9365 19.9968C16.4106 20.463 16.0146 20.807 15.7282 21.3106C15.4358 21.8243 15.9209 22.0723 16.5168 21.6294C17.0102 21.2627 17.5753 20.8883 18.3527 20.5582C18.3527 20.5582 17.8749 20.9148 17.5548 21.3929C17.2275 21.8816 17.6858 22.087 18.1835 21.8026C18.616 21.5555 19.8253 21.0266 19.8253 21.0266C19.8253 21.0266 19.6116 21.1749 19.4636 21.336C19.1235 21.706 19.4149 22.0353 19.9564 21.795C20.9831 21.3394 21.5454 21.4187 23.0547 21.4311C24.6677 21.4444 24.8679 21.4325 25.9674 21.4311C26.1064 21.431 26.2542 21.4335 26.4054 21.4359C27.2423 21.4495 28.1832 21.4631 28.3108 21.0315C28.4769 20.4693 27.8113 20.1534 27.4279 19.9004C27.0574 19.6557 26.1471 19.2846 25.7498 19.1089C24.8165 18.6962 23.3974 18.3098 21.7489 18.2895C21.7284 18.2892 21.7076 18.2891 21.687 18.2891C19.8605 18.289 17.7476 19.2774 16.9365 19.9968Z" fill="url(#paint9_linear_2334_12639)"/>
<path d="M23.1504 31.1448C23.1504 31.5157 22.8497 31.8164 22.4789 31.8164C22.108 31.8164 21.8073 31.5157 21.8073 31.1448C21.8073 30.7739 22.108 30.4732 22.4789 30.4732C22.8497 30.4732 23.1504 30.7739 23.1504 31.1448Z" fill="#124D6E"/>
<defs>
<linearGradient id="paint0_linear_2334_12639" x1="8.54608" y1="24.326" x2="13.4563" y2="31.7928" gradientUnits="userSpaceOnUse">
<stop stop-color="#2179F9"/>
<stop offset="1" stop-color="#0047AE"/>
</linearGradient>
<linearGradient id="paint1_linear_2334_12639" x1="13.4051" y1="27.7843" x2="21.947" y2="34.4931" gradientUnits="userSpaceOnUse">
<stop stop-color="#2179F9"/>
<stop offset="1" stop-color="#0047AE"/>
</linearGradient>
<linearGradient id="paint2_linear_2334_12639" x1="19.3831" y1="25.3719" x2="19.7053" y2="17.6814" gradientUnits="userSpaceOnUse">
<stop stop-color="#FF4576"/>
<stop offset="1" stop-color="#D00037"/>
</linearGradient>
<linearGradient id="paint3_linear_2334_12639" x1="25.9753" y1="17.0403" x2="24.323" y2="18.7208" gradientUnits="userSpaceOnUse">
<stop stop-color="#45DF70"/>
<stop offset="1" stop-color="#41CB67"/>
</linearGradient>
<linearGradient id="paint4_linear_2334_12639" x1="10.5419" y1="12.1655" x2="13.4613" y2="14.0527" gradientUnits="userSpaceOnUse">
<stop stop-color="#45DF70"/>
<stop offset="1" stop-color="#3EC967"/>
</linearGradient>
<linearGradient id="paint5_linear_2334_12639" x1="17.5169" y1="12.5221" x2="22.4362" y2="19.0235" gradientUnits="userSpaceOnUse">
<stop stop-color="#E8E8E8"/>
<stop offset="1" stop-color="white"/>
</linearGradient>
<linearGradient id="paint6_linear_2334_12639" x1="6.91171" y1="14.3533" x2="15.7174" y2="20.048" gradientUnits="userSpaceOnUse">
<stop stop-color="#B6B6B6"/>
<stop offset="1" stop-color="#A0A0A0"/>
</linearGradient>
<radialGradient id="paint7_radial_2334_12639" cx="0" cy="0" r="1" gradientUnits="userSpaceOnUse" gradientTransform="translate(9.9539 9.44566) rotate(139.915) scale(0.859914)">
<stop stop-color="#43CC68"/>
<stop offset="1" stop-color="#45DF70"/>
</radialGradient>
<radialGradient id="paint8_radial_2334_12639" cx="0" cy="0" r="1" gradientUnits="userSpaceOnUse" gradientTransform="translate(9.26632 11.3058) rotate(139.713) scale(0.839254)">
<stop stop-color="#43CA66"/>
<stop offset="1" stop-color="#45DF70"/>
</radialGradient>
<linearGradient id="paint9_linear_2334_12639" x1="20.6676" y1="19.7831" x2="20.7472" y2="22.0795" gradientUnits="userSpaceOnUse">
<stop stop-color="#49E274"/>
<stop offset="1" stop-color="#3BC263"/>
</linearGradient>
</defs>
</svg>
