<svg width="34" height="35" viewBox="0 0 34 35" fill="none" xmlns="http://www.w3.org/2000/svg">
<circle cx="17.0375" cy="17.1586" r="16.8539" fill="#005BFF"/>
<path fill-rule="evenodd" clip-rule="evenodd" d="M28.9413 15.7149C28.9395 15.9186 27.7645 15.9321 26.8523 17.0621C25.8655 18.2846 23.8074 20.4941 22.2654 19.6384C20.1027 18.4384 18.9531 15.8147 18.9038 15.5528C18.737 14.6661 20.7118 17.2807 22.9978 17.2054C24.57 17.1536 24.4541 14.3202 24.4206 15.1707C24.3176 14.4758 24.1767 14.1226 24.4814 14.5317C24.658 14.7687 25.0248 14.5015 25.423 14.229C25.4921 14.1818 26.2282 14.2585 26.1721 14.4903C26.7948 13.6619 28.1205 12.8816 28.1804 13.1892C28.2253 13.4203 27.1855 13.9539 26.73 15.2271C27.4453 14.5475 28.7639 14.1089 28.7239 14.4199C28.6924 14.6648 27.3412 15.2911 27.1405 15.9237C27.6223 15.5653 28.9443 15.3584 28.9413 15.7149Z" fill="url(#paint0_linear_2334_12652)"/>
<path fill-rule="evenodd" clip-rule="evenodd" d="M5.13297 15.7149C5.13472 15.9186 6.30976 15.9321 7.22193 17.0621C8.20873 18.2846 10.2668 20.4941 11.8089 19.6384C13.9715 18.4384 15.1211 15.8147 15.1704 15.5528C15.3372 14.6661 13.3624 17.2807 11.0764 17.2054C9.50421 17.1536 9.62016 14.3202 9.65358 15.1707C9.75665 14.4758 9.89757 14.1226 9.59281 14.5317C9.4162 14.7687 9.04942 14.5015 8.6512 14.229C8.58216 14.1818 7.84599 14.2585 7.90215 14.4903C7.27938 13.6618 5.95372 12.8816 5.89381 13.1892C5.84888 13.4203 6.88869 13.9539 7.34419 15.2271C6.62895 14.5475 5.31028 14.1089 5.35028 14.4199C5.38185 14.6648 6.73299 15.2911 6.93367 15.9237C6.45192 15.5653 5.12991 15.3584 5.13297 15.7149Z" fill="url(#paint1_linear_2334_12652)"/>
<path fill-rule="evenodd" clip-rule="evenodd" d="M15.2461 6.38562C16.1554 5.73716 18.0374 5.57285 19.1251 6.38562C19.1251 13.8299 20.0328 17.4581 20.923 20.4016C23.9472 30.4012 20.2968 25.8384 17.0902 25.8384C14.3918 25.8384 9.83693 30.6096 13.3759 20.4016C14.2466 17.8901 15.3569 13.0804 15.2461 6.38562Z" fill="url(#paint2_radial_2334_12652)"/>
<path fill-rule="evenodd" clip-rule="evenodd" d="M17.0901 8.53516C18.2869 8.53516 18.3251 9.73068 19.4876 9.31513C18.494 14.2474 21.9628 19.1951 23.0466 24.0232C23.7664 27.231 20.3776 29.3428 17.0901 29.3428C13.8026 29.3428 10.5073 27.2505 11.1339 24.0232C12.0821 19.1395 15.5803 14.6814 14.9049 9.31513C15.7742 8.81867 16.0185 8.53516 17.0901 8.53516Z" fill="url(#paint3_linear_2334_12652)"/>
<path d="M17.1004 26.5514C19.8719 26.5514 22.1187 25.0822 22.1187 23.2698C22.1187 21.4575 19.8719 19.9883 17.1004 19.9883C14.3288 19.9883 12.082 21.4575 12.082 23.2698C12.082 25.0822 14.3288 26.5514 17.1004 26.5514Z" fill="url(#paint4_linear_2334_12652)"/>
<path fill-rule="evenodd" clip-rule="evenodd" d="M19.3039 29.2651C19.3466 29.4913 19.1975 29.7095 18.9714 29.7522C18.745 29.7949 18.5268 29.6459 18.4841 29.4195C18.4841 29.4195 18.3915 28.8529 18.3887 28.2581C18.3867 27.7722 18.4469 27.2731 18.6165 26.9947C18.8681 26.582 19.415 26.3541 20.2853 27.3639C20.382 27.4653 20.3783 27.626 20.2769 27.7228C20.1755 27.8194 20.0147 27.8156 19.9182 27.7143C19.5785 27.3923 19.3647 27.2442 19.2067 27.2591C19.1966 27.2601 19.2089 27.278 19.2035 27.2868C19.1855 27.3158 19.1775 27.3529 19.1666 27.3925C19.1337 27.5118 19.1272 27.6588 19.1257 27.8156C19.1202 28.4652 19.3039 29.2651 19.3039 29.2651Z" fill="#FFC700"/>
<path fill-rule="evenodd" clip-rule="evenodd" d="M17.1384 3.42091C17.2899 2.87252 17.7468 2.36342 18.3717 3.02474C17.8442 2.85322 17.8039 3.57265 18.1913 3.71765C18.6398 3.88416 20.2851 4.27309 20.7342 4.66022C20.9178 4.81996 21.1689 7.59182 20.4276 9.87869C19.7911 11.8408 17.7027 12.0426 16.9364 12.0468C16.1702 12.0509 14.3488 11.6956 13.7715 9.91433C13.0477 7.68164 13.2346 4.9238 13.4202 4.69942C13.669 4.39844 15.3533 3.92902 15.7439 3.76891C16.057 3.6392 15.8959 3.10615 15.506 3.25532C15.7035 2.84293 16.5 2.93399 16.4721 3.46809C16.7401 3.26778 16.6842 2.7859 16.2362 2.82098C16.5274 2.50342 17.2169 2.81846 17.1384 3.42091Z" fill="url(#paint5_linear_2334_12652)"/>
<path fill-rule="evenodd" clip-rule="evenodd" d="M17.1383 3.42038C17.2898 2.87175 17.7468 2.36433 18.3716 3.02661C17.8441 2.85357 17.8038 3.57183 18.1912 3.71684C18.6396 3.88523 20.2849 4.27316 20.734 4.66076C20.9177 4.81931 21.1687 7.59369 20.4275 9.87855C19.7911 11.841 17.7027 12.0433 16.9364 12.0474C16.1701 12.0515 14.3487 11.6949 13.7715 9.9142C13.0477 7.68115 13.2346 4.92471 13.4203 4.69997C13.669 4.39822 15.3532 3.93045 15.7437 3.76886C16.0569 3.63923 15.8958 3.10694 15.5061 3.25667C15.7034 2.84364 16.5 2.93518 16.4719 3.46792C16.7401 3.26809 16.6841 2.78709 16.2362 2.82105C16.5272 2.50333 17.2167 2.81861 17.1383 3.42038Z" fill="url(#paint6_linear_2334_12652)"/>
<path fill-rule="evenodd" clip-rule="evenodd" d="M15.2175 9.27587C15.444 9.37046 15.6907 9.44803 15.9667 9.51418C16.0745 9.54177 16.1834 9.56376 16.2973 9.58006C16.4428 9.6018 16.5906 9.61794 16.7434 9.62839C16.8415 9.63352 16.9412 9.63296 17.041 9.63244C17.1154 9.63204 17.1897 9.62599 17.2641 9.61994C17.4359 9.60212 17.6071 9.57866 17.7794 9.54394C17.9264 9.51498 18.0699 9.48599 18.2145 9.44578C18.4341 9.39388 18.6434 9.33081 18.8538 9.26205C18.8808 9.25625 18.8987 9.22797 18.8935 9.19982C18.8883 9.17167 18.8622 9.15489 18.8352 9.16066C18.4904 9.1794 18.1477 8.82167 17.7943 8.8179C17.5627 8.8135 17.3338 8.80909 17.1072 8.80469C17.0306 8.80509 16.955 8.80549 16.8795 8.81153C16.764 8.81214 16.6508 8.81838 16.5381 8.82463C16.3409 8.83132 16.1521 8.84361 15.9667 8.84461C15.7075 8.85162 15.4657 9.20687 15.2418 9.17992C15.2153 9.17439 15.1883 9.19149 15.1812 9.21968C15.1745 9.24227 15.191 9.27034 15.2175 9.27587Z" fill="#FFAE06"/>
<path fill-rule="evenodd" clip-rule="evenodd" d="M17.0123 4.64063C17.535 4.63462 17.8882 8.85359 19.8022 8.82327C20.3953 8.81394 20.5365 8.9656 20.0032 9.22009C19.5262 9.44771 18.0853 8.99787 16.9389 9.00436C15.7864 9.01089 14.5612 9.52167 14.04 9.22169C13.5727 8.95278 13.5643 8.83845 13.9755 8.82415C14.0251 8.82255 14.0808 8.82223 14.1426 8.82327C16.3927 8.86316 16.5196 4.64632 17.0123 4.64063Z" fill="#FFC606"/>
<path d="M17.0122 4.64063C17.4936 4.63511 17.8312 8.21285 19.3766 8.75495C19.6373 8.7946 19.8022 8.82327 19.8022 8.82327C19.6508 8.82567 19.5093 8.80149 19.3766 8.75495C18.7934 8.66633 17.7305 8.52305 16.9589 8.52381C16.2549 8.52453 15.306 8.64567 14.7093 8.73361C14.5369 8.79488 14.3486 8.82692 14.1426 8.82327C14.1426 8.82327 14.3685 8.78387 14.7093 8.73361C16.419 8.12611 16.5647 4.6458 17.0122 4.64063Z" fill="url(#paint7_radial_2334_12652)"/>
<path fill-rule="evenodd" clip-rule="evenodd" d="M19.6901 6.54409C19.7334 6.59933 19.7232 6.67932 19.6681 6.72221C19.6128 6.76548 19.533 6.75565 19.4901 6.70009C19.4901 6.70009 19.3372 6.53813 19.1376 6.41618C19.0303 6.3509 18.9076 6.30076 18.7889 6.31432C18.7306 6.32096 18.6794 6.35573 18.6259 6.41306C18.603 6.43709 18.5803 6.4649 18.5563 6.49692C18.5119 6.55648 18.464 6.62509 18.4149 6.71237C18.3859 6.7646 18.352 6.81437 18.3205 6.87672C18.3025 6.94446 18.2329 6.9846 18.1654 6.96626C18.0975 6.94823 18.0575 6.87854 18.0755 6.81079C18.0846 6.68764 18.0995 6.58489 18.1243 6.49078C18.1462 6.40834 18.1785 6.33917 18.2118 6.27811C18.2448 6.21821 18.2834 6.16874 18.3227 6.12731C18.4598 5.98299 18.6135 5.92528 18.7632 5.92268C18.9284 5.9198 19.0945 5.98106 19.2381 6.0809C19.4993 6.26262 19.6901 6.54409 19.6901 6.54409Z" fill="#012354"/>
<path fill-rule="evenodd" clip-rule="evenodd" d="M24.4363 13.4728C24.5377 13.3809 24.6946 13.3886 24.7863 13.4899C24.8781 13.5911 24.8707 13.748 24.7693 13.8399C24.7693 13.8399 24.5956 14.0788 24.5103 14.353C24.4875 14.4255 24.4966 14.5007 24.5101 14.5729C24.5141 14.5929 24.5434 14.5955 24.5576 14.6126C24.6483 14.7324 24.7759 14.8086 24.8937 14.8587C24.9137 14.8673 24.9267 14.8876 24.9467 14.8913C24.9649 14.8947 24.9638 14.9355 24.9829 14.9324C25.0025 14.9293 25.0201 14.9553 25.0411 14.9481C25.1177 14.9222 25.201 14.933 25.2863 14.8643C25.3526 14.7449 25.5035 14.7015 25.6233 14.768C25.7427 14.8342 25.7857 14.9853 25.7195 15.1047C25.6975 15.297 25.6205 15.4077 25.5478 15.5337C25.5034 15.6104 25.434 15.6464 25.3746 15.6998C25.3173 15.7519 25.2486 15.7708 25.1819 15.802C25.038 15.8697 24.8785 15.866 24.7188 15.8434C24.5515 15.8197 24.3839 15.7379 24.2361 15.6205C24.0665 15.4862 23.9161 15.3049 23.8074 15.0948C23.6642 14.7891 23.6474 14.4852 23.7865 14.208C23.9945 13.7944 24.4363 13.4728 24.4363 13.4728Z" fill="#38D865"/>
<path fill-rule="evenodd" clip-rule="evenodd" d="M9.3049 13.8399C9.2035 13.748 9.19615 13.5911 9.28789 13.4899C9.37963 13.3886 9.53655 13.3809 9.63795 13.4728C9.63795 13.4728 10.0797 13.7944 10.2877 14.208C10.4269 14.4852 10.41 14.7891 10.2668 15.0948C10.1581 15.3049 10.0077 15.4862 9.8381 15.6205C9.69028 15.7379 9.52272 15.8197 9.35542 15.8434C9.19577 15.866 9.03619 15.8697 8.89235 15.802C8.8256 15.7708 8.75692 15.7519 8.69965 15.6998C8.64025 15.6464 8.57079 15.6104 8.52639 15.5337C8.45371 15.4077 8.37677 15.297 8.35474 15.1047C8.28849 14.9853 8.33153 14.8342 8.45093 14.768C8.57069 14.7015 8.72164 14.7449 8.78789 14.8643C8.87318 14.933 8.95647 14.9222 9.03316 14.9481C9.0541 14.9553 9.07171 14.9293 9.09132 14.9324C9.11044 14.9355 9.10932 14.8947 9.12756 14.8913C9.14748 14.8876 9.16049 14.8673 9.18049 14.8587C9.29833 14.8086 9.42594 14.7324 9.51657 14.6126C9.53086 14.5955 9.56014 14.5929 9.56412 14.5729C9.57764 14.5007 9.58676 14.4255 9.56396 14.353C9.47865 14.0788 9.3049 13.8399 9.3049 13.8399Z" fill="#38D865"/>
<path fill-rule="evenodd" clip-rule="evenodd" d="M25.8969 13.2508C25.8366 13.2713 25.7626 13.3074 25.7114 13.3274C25.4803 13.4183 25.266 13.5437 25.266 13.5437C25.1642 13.6178 25.0213 13.5953 24.9471 13.4932C24.873 13.3911 24.8958 13.2483 24.9976 13.1742C24.9976 13.1742 25.3677 12.8653 25.6932 12.7224C25.8953 12.6335 26.091 12.6349 26.2303 12.6831C26.3729 12.734 26.6438 13.0149 26.5692 13.5582C26.5377 13.7865 26.4397 14.0808 26.2026 14.4171C26.1053 14.5556 25.9771 14.6968 25.825 14.849L25.7184 14.7478C25.6315 14.8393 25.487 14.8432 25.3956 14.7568C25.3039 14.6701 25.3 14.5252 25.2798 14.3328C25.3674 14.2334 25.4386 14.1361 25.5057 14.0479C25.6282 13.8868 25.7207 13.7487 25.7816 13.623C25.8624 13.4575 25.9058 13.3365 25.8969 13.2508Z" fill="#3ADE68"/>
<path fill-rule="evenodd" clip-rule="evenodd" d="M8.17741 13.2509C8.16849 13.3365 8.21192 13.4575 8.29269 13.623C8.35357 13.7487 8.44605 13.8868 8.56857 14.0479C8.63563 14.1361 8.70687 14.2334 8.79452 14.3328L8.6877 14.4339C8.77432 14.5253 8.77035 14.6701 8.67871 14.7568C8.5873 14.8432 8.44273 14.8393 8.24927 14.849C8.09721 14.6968 7.96899 14.5556 7.87168 14.4171C7.63455 14.0809 7.53657 13.7866 7.50506 13.5582C7.43043 13.0149 7.7014 12.734 7.84394 12.6831C7.98325 12.6349 8.17893 12.6335 8.3811 12.7225C8.70659 12.8654 9.07665 13.1742 9.07665 13.1742C9.17849 13.2483 9.20133 13.3912 9.12715 13.4932C9.05298 13.5953 8.9101 13.6178 8.80827 13.5437C8.80827 13.5437 8.59402 13.4183 8.3629 13.3275C8.31164 13.3074 8.23773 13.2713 8.17741 13.2509Z" fill="#3ADE68"/>
<path fill-rule="evenodd" clip-rule="evenodd" d="M14.5333 6.70009C14.4904 6.75565 14.4106 6.76548 14.3554 6.72221C14.3003 6.67932 14.2901 6.59933 14.3333 6.54409C14.3333 6.54409 14.5241 6.26262 14.7854 6.0809C14.9289 5.98106 15.095 5.9198 15.2602 5.92268C15.4099 5.92528 15.5637 5.98299 15.7008 6.12731C15.7401 6.16874 15.7786 6.21821 15.8116 6.27811C15.845 6.33917 15.8772 6.40834 15.8992 6.49078C15.924 6.58489 15.9388 6.68764 15.948 6.81079C15.9659 6.87854 15.9259 6.94823 15.858 6.96626C15.7905 6.9846 15.7209 6.94446 15.7029 6.87672C15.6714 6.81437 15.6375 6.7646 15.6085 6.71237C15.5594 6.62509 15.5115 6.55648 15.4671 6.49692C15.4431 6.4649 15.4205 6.43709 15.3975 6.41306C15.3441 6.35573 15.2928 6.32096 15.2346 6.31432C15.1159 6.30076 14.9931 6.3509 14.8859 6.41618C14.6862 6.53813 14.5333 6.70009 14.5333 6.70009Z" fill="#012354"/>
<path fill-rule="evenodd" clip-rule="evenodd" d="M19.1999 29.5928C18.8535 30.0913 18.0667 29.3525 16.7839 29.3292C15.9599 29.3142 14.8002 29.6602 14.7413 29.5025C14.6824 29.3447 15.0167 28.6711 15.8685 28.1359C15.5468 27.5271 14.819 27.7577 14.7364 27.5383C14.6751 27.3755 15.4656 26.9513 16.1986 26.988C16.3645 26.5493 15.8258 26.4258 15.838 26.2547C15.8502 26.0837 17.3263 26.1794 18.2584 27.3434C19.2011 28.5205 19.3281 29.4084 19.1999 29.5928Z" fill="url(#paint8_linear_2334_12652)"/>
<path fill-rule="evenodd" clip-rule="evenodd" d="M15.3628 30.0435C16.0393 30.0224 15.8265 28.838 16.5841 27.6244C17.0707 26.8449 18.0987 25.9708 17.987 25.82C17.8753 25.669 17.0424 25.5723 16.0246 26.0436C15.6508 25.3729 16.3085 24.8326 16.1536 24.6221C16.0386 24.4658 15.1618 24.9472 14.7507 25.6548C14.2397 25.5435 14.4516 24.9648 14.2843 24.8722C14.1169 24.7797 13.3096 26.218 13.8316 27.7966C14.3595 29.3931 15.1124 30.0513 15.3628 30.0435Z" fill="url(#paint9_linear_2334_12652)"/>
<defs>
<linearGradient id="paint0_linear_2334_12652" x1="26.563" y1="14.3242" x2="20.7174" y2="21.3982" gradientUnits="userSpaceOnUse">
<stop stop-color="#3ADF68"/>
<stop offset="1" stop-color="#3EB860"/>
</linearGradient>
<linearGradient id="paint1_linear_2334_12652" x1="7.51119" y1="14.3242" x2="13.3569" y2="21.3982" gradientUnits="userSpaceOnUse">
<stop stop-color="#3ADF68"/>
<stop offset="1" stop-color="#3EB860"/>
</linearGradient>
<radialGradient id="paint2_radial_2334_12652" cx="0" cy="0" r="1" gradientUnits="userSpaceOnUse" gradientTransform="translate(17.1327 6.05637) rotate(89.9836) scale(26.149 26.0608)">
<stop stop-color="#34CF60"/>
<stop offset="0.91" stop-color="#3ADF68"/>
<stop offset="1" stop-color="#35D161"/>
</radialGradient>
<linearGradient id="paint3_linear_2334_12652" x1="16.9729" y1="11.5942" x2="16.9729" y2="21.7062" gradientUnits="userSpaceOnUse">
<stop stop-color="#36CF61"/>
<stop offset="1" stop-color="#38D865"/>
</linearGradient>
<linearGradient id="paint4_linear_2334_12652" x1="17.1004" y1="19.9883" x2="17.1194" y2="22.7095" gradientUnits="userSpaceOnUse">
<stop stop-color="#6AE98E"/>
<stop offset="1" stop-color="#38D865"/>
</linearGradient>
<linearGradient id="paint5_linear_2334_12652" x1="-200.425" y1="-284.875" x2="-200.401" y2="-280.265" gradientUnits="userSpaceOnUse">
<stop stop-color="#60E887"/>
<stop offset="1" stop-color="#3DC262"/>
</linearGradient>
<linearGradient id="paint6_linear_2334_12652" x1="17.9944" y1="3.53055" x2="17.9944" y2="12.0474" gradientUnits="userSpaceOnUse">
<stop stop-color="#6AE88D"/>
<stop offset="1" stop-color="#38D865"/>
</linearGradient>
<radialGradient id="paint7_radial_2334_12652" cx="0" cy="0" r="1" gradientUnits="userSpaceOnUse" gradientTransform="translate(17.0765 8.69901) rotate(-92.9357) scale(1.56385 2.10849)">
<stop stop-color="#FFE03C"/>
<stop offset="1" stop-color="#FFE03C" stop-opacity="0"/>
</radialGradient>
<linearGradient id="paint8_linear_2334_12652" x1="16.9721" y1="27.6354" x2="19.3996" y2="29.6687" gradientUnits="userSpaceOnUse">
<stop stop-color="#FFC700"/>
<stop offset="1" stop-color="#FFAD06"/>
</linearGradient>
<linearGradient id="paint9_linear_2334_12652" x1="15.2924" y1="25.2854" x2="15.3124" y2="30.2763" gradientUnits="userSpaceOnUse">
<stop stop-color="#FFC606"/>
<stop offset="1" stop-color="#FFAD06"/>
</linearGradient>
</defs>
</svg>
