<svg width="34" height="35" viewBox="0 0 34 35" fill="none" xmlns="http://www.w3.org/2000/svg">
<circle cx="17.0375" cy="17.4594" r="16.8539" fill="#005BFF"/>
<circle cx="17.0395" cy="17.4594" r="16.8539" fill="#005BFF"/>
<g clip-path="url(#clip0_2334_12663)">
<path d="M14.594 12.6343L14.4802 12.5679C15.1697 11.386 13.9746 10.4252 13.9625 10.4157L14.0439 10.3122C14.0569 10.3225 15.3405 11.3546 14.594 12.6343Z" fill="#FFD00F"/>
<path d="M20.6091 4.01705C20.6091 4.01705 20.7869 3.42947 20.0049 2.76361C20.0049 2.76361 20.1925 3.32222 19.7636 3.6618C19.7636 3.6618 19.7546 3.20154 19.3591 2.92662C19.3591 2.92662 19.4043 3.55113 19.0136 3.81059C18.926 3.78643 18.8378 3.76615 18.7491 3.75127C17.4667 3.53487 16.0365 3.18844 15.1963 3.34928C14.4508 3.49201 13.6668 3.89124 13.1965 4.95488C12.9101 5.60277 12.4287 7.66395 12.3809 8.65807C12.3051 10.2295 12.5686 11.1141 12.9015 11.6192C13.5183 12.555 14.34 12.769 15.0622 13.2969C15.7594 13.8064 15.6655 14.9541 15.5987 15.7899C15.5594 16.2828 7.96555 20.9354 7.96555 20.9354L7.01758 29.0047C7.01758 29.0047 8.42587 29.4297 12.944 27.4008C12.944 27.4008 22.7692 22.2961 21.8193 21.4482C20.8069 20.5446 20.13 19.7322 19.6563 18.3825C19.2042 17.0946 19.3524 14.3247 19.701 12.8188C19.9164 11.8879 20.626 10.2934 21.0337 8.7004V8.70054C21.0337 8.70054 22.3109 4.3143 21.1489 2.5C21.1489 2.5 21.2562 3.26857 20.6091 4.01705Z" fill="url(#paint0_linear_2334_12663)"/>
<path d="M11.5508 24.1016L12.9157 29.6777C13.9998 32.3601 22.5265 32.3207 23.6199 29.8083L24.9933 24.1016C22.9725 25.7193 13.7406 26.0589 11.5508 24.1016Z" fill="white"/>
<path d="M13.791 10.3075C13.791 10.3075 15.0512 11.2996 14.3249 12.5447L16.2772 12.7252L16.7673 11.961L16.7941 10.8795L16.5528 10.236L15.1681 10.0195L13.791 10.3075Z" fill="#FB9B08"/>
<path d="M14.9477 9.34149C14.9068 9.34149 14.8654 9.33859 14.8247 9.3328L12.3739 8.98532C11.8983 8.91777 11.5663 8.47601 11.6337 8.00042L11.8211 6.67863C11.8817 6.25162 12.2522 5.92969 12.683 5.92969C12.7239 5.92969 12.7653 5.93258 12.806 5.93844L15.2567 6.28592C15.4871 6.31845 15.6911 6.43893 15.8309 6.62504C15.9707 6.81103 16.0297 7.0404 15.997 7.27083L15.8096 8.59254C15.7491 9.01949 15.3785 9.34149 14.9477 9.34149Z" fill="white"/>
<path d="M12.1632 6.70609L11.97 8.06895C11.9305 8.34665 12.1237 8.60373 12.4015 8.64304L14.8933 8.99644C15.1709 9.03581 15.4281 8.84252 15.4674 8.56489L15.6607 7.20209C15.7001 6.9244 15.5068 6.66731 15.2291 6.62794L12.7373 6.2746C12.7131 6.27118 12.689 6.26953 12.6652 6.26953C12.4164 6.26953 12.1991 6.45262 12.1632 6.70609Z" fill="url(#paint1_linear_2334_12663)"/>
<g opacity="0.2">
<path d="M12.422 8.64618L13.4291 8.78904L15.2489 6.63305C15.2356 6.63009 15.2223 6.62719 15.2086 6.62522L14.16 6.47656L12.3438 8.62834C12.369 8.63597 12.395 8.64236 12.422 8.64618Z" fill="white"/>
</g>
<path d="M15.0469 12.6214C15.0519 12.5617 15.3967 11.3125 16.626 11.898L16.6755 12.3083L16.153 12.67L15.2004 12.7998L15.0469 12.6214Z" fill="#EF2A4C"/>
<path d="M15.9286 6.96324C15.8347 7.53154 15.4852 8.52256 15.2189 8.90441C15.0109 9.20258 14.638 9.61372 14.0249 9.65665C13.3597 9.70326 11.7457 9.46421 11.3951 9.44321C11.1939 9.43109 11.052 9.63729 11.1398 9.8188C11.2324 10.0102 11.7388 10.3939 12.0895 10.434C12.683 10.5016 13.4216 10.5225 14.159 10.4879C15.0212 10.4476 15.4397 10.3671 15.9085 10.4008C16.4696 10.4411 16.4125 10.8973 16.4352 11.4114C16.4574 11.9113 16.4524 12.2877 15.8613 12.3495C15.3632 12.4017 14.3444 12.4276 13.8676 12.4462C13.3717 12.4655 13.3639 12.9612 13.8975 12.9883C14.7087 13.0294 16.1014 13.0791 16.5919 12.8455C17.0667 12.6194 17.2093 12.1849 17.1844 11.5896C17.1496 10.7547 17.2617 10.5334 16.885 10.0234C16.457 9.44393 16.3296 9.3145 16.3837 8.80947C16.4591 8.10589 16.519 7.43186 16.5726 7.03191C16.6843 6.19896 16.0746 6.07867 15.9286 6.96324Z" fill="#FFD00F"/>
<path d="M17.0133 16.1914C17.0133 16.1914 19.0713 15.7597 18.3607 16.9261C19.2858 16.792 19.0579 18.1058 18.1797 17.8243C19.3126 18.8098 17.0267 19.1852 17.0334 18.1058C16.6647 18.9304 15.5386 17.6903 15.9475 17.5897L17.0133 16.1914Z" fill="#FFD62E"/>
<path d="M19.7731 22.5482C18.3341 21.9224 19.9071 20.6176 20.8188 21.7705C21.1341 21.1108 22.7136 21.6954 21.8288 22.2532C23.0622 22.6197 21.7215 23.7457 21.1137 23.147C21.3193 24.1033 18.477 23.6504 19.7731 22.5482Z" fill="#FFD00F"/>
<path d="M15.3988 24.3722C14.347 24.4527 15.01 22.4905 15.9667 23.2729C15.2245 22.1199 18.2008 22.0529 17.4081 23.2729C18.1138 22.6635 19.0856 24.0638 17.9192 24.0236C18.8711 24.5599 17.3159 25.4046 17.088 24.5464C16.9901 25.4951 15.3009 25.3208 15.3988 24.3722Z" fill="#BA9B0D"/>
<path d="M17.1274 15.0374C14.0919 15.9766 10.3376 15.6888 8.72134 16.7437C7.44775 17.575 6.39609 19.6409 5.92714 22.0349C5.43752 24.5343 5.62686 27.0519 5.82542 27.6568C6.26981 29.0106 7.39929 29.7452 8.40401 28.0903C9.3157 26.5887 11.1536 20.7598 11.1536 20.7598C11.841 20.8149 14.9631 20.4097 14.6743 19.0318C16.5378 18.5894 17.7528 17.1951 16.9487 16.7022C18.0532 15.9877 18.3114 14.9648 17.541 14.9648C17.4262 14.9648 17.2885 14.9876 17.1274 15.0374Z" fill="url(#paint2_linear_2334_12663)"/>
<path d="M11.2535 22.9191C11.569 21.859 14.6185 21.0273 18.3339 21.0273C22.2591 21.0273 25.4411 21.9557 25.4411 23.1009C25.4411 24.2461 22.2591 25.1745 18.3339 25.1745C14.4086 25.1745 11.2266 24.2461 11.2266 23.1009C11.2266 23.0396 11.2356 22.979 11.2535 22.9191Z" fill="#FFD00F"/>
<path d="M19.6497 10.1521C19.6089 10.1521 19.5675 10.1491 19.5269 10.1434L16.6495 9.73532C16.4191 9.70266 16.2151 9.58225 16.0754 9.39627C15.9355 9.21015 15.8765 8.98078 15.9092 8.75042L16.0966 7.42863C16.1571 7.00169 16.5277 6.67969 16.9586 6.67969C16.9994 6.67969 17.0409 6.68265 17.0814 6.68844L19.9589 7.09649C20.1893 7.12915 20.3932 7.2495 20.533 7.43548C20.6729 7.62153 20.7319 7.85097 20.6991 8.08139L20.5117 9.40311C20.4513 9.82999 20.0806 10.1521 19.6497 10.1521Z" fill="white"/>
<path d="M16.4386 7.45622L16.2453 8.81895C16.2059 9.09665 16.3991 9.35374 16.6768 9.39317L19.5953 9.80695C19.873 9.84632 20.13 9.65316 20.1694 9.37539L20.3627 8.0126C20.4021 7.7349 20.2089 7.47788 19.9312 7.43844L17.0127 7.02467C16.9885 7.02124 16.9645 7.01953 16.9407 7.01953C16.6919 7.0196 16.4745 7.20262 16.4386 7.45622Z" fill="url(#paint3_linear_2334_12663)"/>
<g opacity="0.2">
<path d="M16.6973 9.39453L18.0342 9.58414L19.8557 7.4263L18.5186 7.23669L16.6973 9.39453Z" fill="white"/>
</g>
<path d="M15.1463 21.2086C15.5623 19.6792 13.3231 20.3045 14.543 21.861C13.0875 22.0029 14.0725 23.9856 15.1921 23.1424C15.1805 24.2244 16.6232 23.1515 15.7953 22.4442C16.8457 21.7957 16.1573 20.394 15.1463 21.2086Z" fill="#FFD00F"/>
<path d="M23.3381 21.9459C22.7259 21.1854 24.6296 20.6011 24.2542 21.7407C24.6743 20.8802 26.1312 21.6167 25.0586 22.2457C26.0239 22.3261 25.157 23.9707 24.4955 23.1705C24.7726 23.9349 23.0297 23.7287 23.414 23.1127C22.5262 23.1127 22.4503 21.9459 23.3381 21.9459Z" fill="#FFD93D"/>
<path d="M21.1175 22.463C19.9556 22.1955 21.4571 20.4162 22.1007 21.4798C22.517 20.7374 23.5449 21.3139 23.1285 22.0563C24.5339 22.311 23.2089 23.8215 22.3151 23.2049C21.9835 23.9611 20.1046 22.8782 21.1175 22.463Z" fill="#FFD00F"/>
<path d="M17.6416 20.8734C16.1129 19.731 18.6531 18.7128 18.514 20.1006C18.8805 19.0839 20.1667 21.1381 18.8741 21.101C19.3884 22.1659 16.8405 21.585 17.6416 20.8734Z" fill="#FFD00F"/>
<path d="M16.2828 21.2603C14.978 20.7686 16.5064 18.999 17.2213 20.4381C17.3018 19.8034 18.7497 20.4023 17.9543 21.0905C18.8391 20.7954 18.8302 22.1808 17.9543 21.9973C17.9364 22.8444 15.891 22.1489 16.2828 21.2603Z" fill="#FFD00F"/>
<path d="M21.1258 20.2059C20.6431 19.0262 22.7346 18.8519 22.1313 20.206C23.0966 19.7099 23.2441 21.2194 22.4239 21.2194C22.4572 22.0771 20.9311 22.1362 20.8979 21.2785C19.6242 21.2784 20.0398 19.7501 21.1258 20.2059Z" fill="#FFD00F"/>
<path d="M24.9912 24.1016L24.9871 24.1187L24.9555 24.2509L24.7437 25.1294L24.7266 25.2006L23.618 29.8082C23.4946 30.0912 23.2767 30.3434 22.9855 30.5633C22.7778 30.7202 22.5332 30.8614 22.2591 30.9855C21.9507 31.1259 21.6047 31.2451 21.2319 31.3438C20.9722 31.4124 20.6995 31.4712 20.4179 31.5199C20.1027 31.574 19.7765 31.6152 19.4441 31.6439C19.1852 31.6658 18.9213 31.6802 18.6575 31.6871C18.6212 31.6877 18.5842 31.6885 18.5479 31.6892C18.1525 31.696 17.7557 31.685 17.3658 31.6563C17.3343 31.6542 17.3035 31.6521 17.2726 31.6494C17.0287 31.6295 16.7875 31.6028 16.5511 31.5693C16.1769 31.5158 15.8145 31.4452 15.4725 31.3575C15.2101 31.2897 14.9592 31.2116 14.7243 31.1231C14.7071 31.1164 14.69 31.1102 14.6728 31.104C14.6687 31.1019 14.6653 31.1006 14.6612 31.0992C14.2425 30.9361 13.8739 30.7408 13.5785 30.5106C13.5635 30.4982 13.5483 30.4866 13.5333 30.4743C13.5305 30.4722 13.5285 30.4701 13.5258 30.4681C13.2441 30.2378 13.0338 29.974 12.9139 29.678L11.8181 25.2013L11.5742 24.2043L11.5488 24.1016C11.7434 24.2756 11.9935 24.4311 12.289 24.5695C12.6781 24.7518 13.1461 24.9033 13.6703 25.0266C13.9678 25.0972 14.2843 25.1582 14.6139 25.2102C15.1052 25.2877 15.6267 25.3453 16.1659 25.3836H16.168C16.5299 25.4097 16.8992 25.4275 17.2726 25.437H17.2747C17.7317 25.4487 18.195 25.448 18.6555 25.4357H18.6575C19.0097 25.4261 19.3612 25.4097 19.7073 25.3864C20.1904 25.3548 20.6638 25.3096 21.1182 25.2521C21.445 25.2116 21.7623 25.1643 22.0658 25.1109C22.5161 25.0321 22.9368 24.9396 23.3178 24.8354C23.596 24.7587 23.8523 24.6758 24.0832 24.5866C24.1106 24.5764 24.1373 24.5654 24.1634 24.5552C24.4868 24.4249 24.7561 24.2818 24.959 24.1269C24.9699 24.118 24.9809 24.1097 24.9912 24.1016Z" fill="white"/>
<path d="M14.675 31.1048C14.6709 31.1027 14.6674 31.1013 14.6633 31.1C14.2446 30.9368 13.8759 30.7416 13.5807 30.5113L12.291 24.5703C12.6802 24.7526 13.1483 24.904 13.6724 25.0273L14.675 31.1048Z" fill="#FF4576"/>
<path d="M16.5533 31.5704C16.1791 31.5169 15.8166 31.4464 15.4747 31.3587L14.6161 25.2114L14.6113 25.1758L16.1681 25.3848H16.1703L16.1949 25.3882L16.5533 31.5704Z" fill="#FF4576"/>
<path d="M18.6583 25.3203L18.6563 25.4389L18.5486 31.6923C18.1533 31.6992 17.7565 31.6883 17.3666 31.6594L17.2755 25.4402L17.2734 25.3203H18.6583Z" fill="#FF4576"/>
<path d="M21.1282 25.1758L21.1193 25.2532L20.419 31.5211C20.1037 31.5752 19.7776 31.6163 19.4453 31.6451L19.7085 25.3875L19.7112 25.3183L21.1282 25.1758Z" fill="#FF4576"/>
<path d="M23.3532 24.6445L23.3202 24.8357L22.2616 30.9857C21.9532 31.1262 21.6071 31.2454 21.2344 31.3441L22.0683 25.1112L22.0951 24.9131L23.3532 24.6445Z" fill="#FF4576"/>
<path d="M24.9879 24.1211L24.9563 24.2534H24.9557L24.7446 25.1319L24.7275 25.2031L23.6187 29.8106C23.4954 30.0936 23.2775 30.3458 22.9863 30.5657L23.9627 25.5848H23.9634L24.132 24.7241L24.1642 24.5576L24.206 24.3459L24.9598 24.1293L24.9879 24.1211Z" fill="#FF4576"/>
<g opacity="0.1">
<path d="M24.9595 24.2536L24.7477 25.1322L24.7306 25.2034C24.5216 25.339 24.2653 25.4665 23.9666 25.5851H23.9658C23.7199 25.6823 23.4458 25.7728 23.1463 25.8558C22.7776 25.9585 22.3713 26.0496 21.9341 26.1271C21.6395 26.1791 21.3304 26.2258 21.0091 26.2649C20.5822 26.3176 20.134 26.358 19.6694 26.3847C19.335 26.4046 18.9924 26.4169 18.6423 26.4224C18.521 26.4245 18.399 26.4252 18.2763 26.4252C17.9427 26.4252 17.6144 26.4183 17.2931 26.4053C16.9368 26.3909 16.5886 26.3683 16.2514 26.3395C15.7218 26.293 15.2181 26.2292 14.7487 26.1497C14.4246 26.0956 14.1169 26.0332 13.8285 25.9646C13.3262 25.8455 12.8807 25.707 12.5059 25.5528C12.2414 25.4439 12.0119 25.3274 11.822 25.2041L11.5781 24.207C11.7604 24.3688 12.0085 24.5202 12.3121 24.6607C12.6903 24.8354 13.1555 24.993 13.6907 25.1273C13.9847 25.2013 14.2999 25.2678 14.6336 25.3274C15.1215 25.4137 15.6484 25.4837 16.2049 25.5343C16.553 25.5659 16.9121 25.5892 17.2814 25.6049C17.6123 25.6186 17.9515 25.6262 18.2962 25.6262C18.4168 25.6262 18.5367 25.6255 18.656 25.6235C19.0123 25.6186 19.3624 25.6056 19.703 25.5851C20.1888 25.5563 20.6562 25.5131 21.0995 25.4569C21.4277 25.4158 21.743 25.3671 22.0431 25.3116C22.4961 25.2288 22.914 25.1314 23.2902 25.0218C23.6027 24.9306 23.8856 24.8313 24.1352 24.7244C24.4743 24.5798 24.7525 24.4222 24.9588 24.2536H24.9595Z" fill="black"/>
</g>
<path d="M25.3493 23.9382C25.4476 23.7393 25.5757 23.3465 25.4014 22.8851H25.4016C25.411 22.929 25.4159 22.9734 25.4159 23.018C25.4159 24.1633 22.2466 25.0917 18.3371 25.0917C14.4275 25.0917 11.2583 24.1633 11.2583 23.018C11.2583 22.9568 11.2674 22.8962 11.2851 22.8363L11.284 22.8359C11.0941 23.2001 11.2203 23.7264 11.3186 23.9253L11.3182 23.9255C11.7825 24.939 14.7464 25.7206 18.3337 25.7206C21.9086 25.7206 24.8646 24.9443 25.3444 23.9359" fill="white"/>
<path d="M14.0827 22.817C13.9958 21.4584 16.2278 22.6185 15.2893 23.2158C16.2144 23.0817 15.9864 24.3957 15.1083 24.114C16.2412 25.0994 13.452 25.7128 13.9621 24.3957C13.452 24.8905 12.4723 23.8359 13.0816 23.6977C11.7768 23.0851 13.8861 21.4048 14.0827 22.817Z" fill="#FFD00F"/>
<path d="M14.2214 22.4264C14.1344 21.0678 16.3664 22.2279 15.4279 22.8252C16.3531 22.6911 16.1251 24.005 15.247 23.7234C16.3799 24.7088 13.5907 25.3222 14.1007 24.005C13.5907 24.4999 12.611 23.4453 13.2203 23.3071C11.9154 22.6944 14.0247 21.0142 14.2214 22.4264Z" fill="#FFD00F"/>
<path d="M11.8408 17.6925C11.8408 17.6925 11.8922 18.4596 12.5023 18.6942C13.173 18.9522 14.0521 19.1743 14.8483 18.9757C16.3752 18.5951 17.7739 17.2974 16.9485 16.7011C14.2708 17.8509 11.8408 17.6925 11.8408 17.6925Z" fill="url(#paint4_linear_2334_12663)"/>
<path d="M10.8726 19.3529C10.7094 20.0397 10.7012 20.7863 11.4488 20.7561C12.6535 20.7077 14.9149 20.2295 14.6759 19.0312C12.1545 19.519 10.8726 19.3529 10.8726 19.3529Z" fill="url(#paint5_linear_2334_12663)"/>
<path d="M11.154 20.7547C10.5078 20.7179 10.0936 20.6445 10.0936 20.6445C9.72935 20.829 8.92345 21.3021 9.13143 21.8079C9.32143 22.27 10.5125 22.7762 10.5125 22.7762C10.5125 22.7762 11.0097 21.2639 11.154 20.7547Z" fill="url(#paint6_linear_2334_12663)"/>
<path d="M19.1784 21.5044C19.0914 20.1459 21.3235 21.306 20.385 21.9033C21.3101 21.7692 21.0822 23.0831 20.204 22.8015C21.3369 23.787 18.5478 24.4004 19.0578 23.0831C18.5478 23.5781 17.5681 22.5234 18.1774 22.3852C16.8724 21.7726 18.9818 20.0923 19.1784 21.5044Z" fill="#FFDA40"/>
<path d="M20.0081 23.83C18.5004 23.3409 19.0174 25.6077 20.6308 24.4639C20.7026 25.9246 22.7305 25.0358 21.9419 23.8772C23.022 23.9407 22.0197 22.4482 21.2735 23.2411C20.6761 22.1608 19.2431 22.781 20.0081 23.83Z" fill="#FFD00F"/>
<path d="M17.3503 22.4264C17.2633 21.0678 19.4953 22.2279 18.5568 22.8252C19.482 22.6911 19.254 24.005 18.3759 23.7234C19.5088 24.7088 16.7196 25.3222 17.2296 24.005C16.7196 24.4999 15.7399 23.4453 16.3492 23.3071C15.0443 22.6944 17.1536 21.0142 17.3503 22.4264Z" fill="#FFD00F"/>
<path d="M11.7117 22.4845C10.8624 22.0031 12.417 20.7586 12.4878 21.9564C12.5614 21.0017 14.1871 21.1497 13.4217 22.1295C14.3487 21.8487 14.1485 23.697 13.2388 23.1966C13.7781 23.8053 12.0818 24.2556 12.2122 23.5413C11.3867 23.8684 10.8863 22.8116 11.7117 22.4845Z" fill="#FFD00F"/>
<path d="M14.6745 21.8248C14.5876 20.4662 16.8196 21.6263 15.8811 22.2236C16.8062 22.0895 16.5782 23.4035 15.7001 23.1218C16.8329 24.1073 14.0438 24.7206 14.5538 23.4035C14.0438 23.8984 13.0641 22.8437 13.6734 22.7056C12.3686 22.0929 14.4779 20.4126 14.6745 21.8248Z" fill="#FFDA40"/>
<path d="M24.5353 25.9633C24.385 26.9308 24.0547 27.0362 22.6783 27.4294C21.2919 27.8255 18.406 28.0493 16.3928 27.9713C15.5921 27.9402 15.422 28.3794 15.7729 28.8184C16.1286 29.2637 17.0205 29.709 18.3345 29.664C16.9958 31.1655 19.9721 31.2661 21.2336 31.0998C20.5889 31.2258 20.6191 32.0891 22.1684 32.1202C23.3099 32.1431 24.448 31.6124 24.448 31.6124C24.1866 31.7866 24.1589 32.315 25.315 31.9408C25.7223 31.809 26.4288 31.3865 26.8967 30.7454C27.3794 30.0841 28.5637 26.3301 24.8947 24.4531C24.8947 24.4531 24.621 25.4122 24.5353 25.9633Z" fill="url(#paint7_linear_2334_12663)"/>
<path d="M18.3377 29.6669C18.3377 29.6669 17.5821 30.384 18.2717 30.8037C18.9659 31.2262 20.9126 31.2183 21.7076 31.0149C24.3495 30.3388 24.794 28.8472 23.7595 28.5769C21.5679 29.6094 18.3377 29.6669 18.3377 29.6669Z" fill="url(#paint8_linear_2334_12663)"/>
<path d="M26.0065 31.1652C25.8657 31.2275 25.6242 31.2897 25.14 31.1632C24.8234 31.3765 24.4476 31.61 24.4476 31.61C23.9154 32.0429 24.7512 32.2581 25.305 31.9866C25.6148 31.8348 26.4063 31.4222 26.3053 31.2302C26.2515 31.1281 26.2171 31.0938 26.1765 31.0938C26.1351 31.0938 26.0874 31.1295 26.0065 31.1652Z" fill="url(#paint9_linear_2334_12663)"/>
<path d="M21.0243 31.1418C20.6427 31.1975 20.4976 31.7848 21.1311 32.0174C22.2331 32.4222 23.6725 31.9733 24.393 31.6581C25.7453 31.0666 26.1734 29.9282 25.1069 29.6495C23.7294 30.5798 21.0243 31.1418 21.0243 31.1418Z" fill="url(#paint10_linear_2334_12663)"/>
<path d="M15.3932 22.9849C15.3063 21.6264 17.5383 22.7865 16.5998 23.3838C17.5249 23.2497 17.297 24.5636 16.4188 24.282C17.5517 25.2675 14.7625 25.8808 15.2726 24.5636C14.7625 25.0585 13.7828 24.0039 14.3922 23.8657C13.0873 23.2531 15.1966 21.5728 15.3932 22.9849Z" fill="#FFD00F"/>
</g>
<defs>
<linearGradient id="paint0_linear_2334_12663" x1="16.2003" y1="3.55822" x2="9.76588" y2="28.1206" gradientUnits="userSpaceOnUse">
<stop stop-color="#4AE274"/>
<stop offset="0.31" stop-color="#48DC71"/>
<stop offset="0.63" stop-color="#3DC061"/>
<stop offset="1" stop-color="#3DC061"/>
</linearGradient>
<linearGradient id="paint1_linear_2334_12663" x1="15.2623" y1="8.77609" x2="12.4596" y2="6.56289" gradientUnits="userSpaceOnUse">
<stop stop-color="#DE3168"/>
<stop offset="1" stop-color="#FF4576"/>
</linearGradient>
<linearGradient id="paint2_linear_2334_12663" x1="10.5422" y1="21.7764" x2="7.82912" y2="29.1121" gradientUnits="userSpaceOnUse">
<stop stop-color="#4AE274"/>
<stop offset="1" stop-color="#3CC263"/>
</linearGradient>
<linearGradient id="paint3_linear_2334_12663" x1="16.485" y1="6.74104" x2="20.3645" y2="9.77179" gradientUnits="userSpaceOnUse">
<stop stop-color="#2179F8"/>
<stop offset="1" stop-color="#104A9F"/>
</linearGradient>
<linearGradient id="paint4_linear_2334_12663" x1="15.4117" y1="18.2515" x2="15.8372" y2="16.3433" gradientUnits="userSpaceOnUse">
<stop stop-color="#4AE274"/>
<stop offset="1" stop-color="#3DC060"/>
</linearGradient>
<linearGradient id="paint5_linear_2334_12663" x1="13.4223" y1="18.6963" x2="13.0502" y2="20.0715" gradientUnits="userSpaceOnUse">
<stop stop-color="#3DC060"/>
<stop offset="1" stop-color="#4AE274"/>
</linearGradient>
<linearGradient id="paint6_linear_2334_12663" x1="10.87" y1="20.785" x2="10.2319" y2="21.6692" gradientUnits="userSpaceOnUse">
<stop stop-color="#41CB66"/>
<stop offset="1" stop-color="#48DE72" stop-opacity="0"/>
</linearGradient>
<linearGradient id="paint7_linear_2334_12663" x1="25.8777" y1="25.174" x2="23.2763" y2="28.2679" gradientUnits="userSpaceOnUse">
<stop stop-color="#3CC162"/>
<stop offset="1" stop-color="#4AE173"/>
</linearGradient>
<linearGradient id="paint8_linear_2334_12663" x1="20.0595" y1="28.8009" x2="21.6798" y2="30.203" gradientUnits="userSpaceOnUse">
<stop stop-color="#43CC68"/>
<stop offset="1" stop-color="#4AE173"/>
</linearGradient>
<linearGradient id="paint9_linear_2334_12663" x1="24.4405" y1="31.6683" x2="25.1035" y2="31.5899" gradientUnits="userSpaceOnUse">
<stop stop-color="#43CC68"/>
<stop offset="1" stop-color="#4AE173"/>
</linearGradient>
<linearGradient id="paint10_linear_2334_12663" x1="22.051" y1="30.9846" x2="23.7869" y2="32.1355" gradientUnits="userSpaceOnUse">
<stop stop-color="#43CC68"/>
<stop offset="1" stop-color="#4AE173"/>
</linearGradient>
<clipPath id="clip0_2334_12663">
<rect width="33.7079" height="33.7079" fill="white" transform="translate(0.189453 0.605469)"/>
</clipPath>
</defs>
</svg>
