<svg width="44" height="44" viewBox="0 0 44 44" fill="none" xmlns="http://www.w3.org/2000/svg">
<g clip-path="url(#clip0_2062_4662)">
<rect x="1.4834" y="2.04688" width="40.4494" height="40.4494" rx="10.1123" fill="white"/>
<rect x="-21.1006" y="0.699219" width="85.7286" height="42.8643" rx="0.879268" fill="#032B44"/>
<path fill-rule="evenodd" clip-rule="evenodd" d="M16.1084 18.9702C16.1084 18.9424 16.1084 18.9133 16.1084 18.8842V16.3031C16.1084 16.058 16.2691 15.8485 16.5259 15.8055C16.879 15.7473 17.3605 15.6649 17.4889 15.628C18.0666 15.4518 19.9928 15.0363 19.9928 12.3194V8.69517C19.9928 8.41904 20.2175 8.19531 20.4743 8.19531H22.9136C23.2025 8.19531 23.3951 8.41904 23.3951 8.69517V12.3194C23.3951 16.0241 20.7632 17.4813 20.6348 17.5848C20.7632 17.6857 23.2988 19.0488 23.3951 22.6045C23.3951 22.6937 23.4271 22.7842 23.4271 22.8761V26.5002C23.4271 26.5106 23.4272 26.5206 23.3951 26.5306C23.3951 26.5306 23.3951 28.88 23.3951 30.5878C23.3951 31.5484 24.1977 32.3273 25.1285 32.3276C25.7705 32.3276 26.4444 32.3276 26.9259 32.3289C27.1827 32.3393 27.4074 32.5675 27.4074 32.8459C27.4074 33.5039 27.4393 34.3164 27.4393 35.2557C27.4393 35.3937 27.375 35.5263 27.3108 35.624C27.1824 35.7219 27.0543 35.7769 26.9259 35.7769H25.5774L25.5134 35.7772C24.069 35.7788 22.6568 35.201 21.6297 34.1677C20.5704 33.1204 19.9928 31.6926 19.9928 30.2027V22.8434C19.9928 22.803 19.9928 22.7622 19.9928 22.7212C19.9286 20.1433 18.0666 19.7401 17.4889 19.5674C17.3605 19.5306 16.879 19.4481 16.5259 19.3896C16.3012 19.3518 16.1405 19.184 16.1084 18.9767V18.9702Z" fill="#3ADF68"/>
</g>
<rect x="0.809242" y="1.37272" width="41.7977" height="41.7977" rx="10.7865" stroke="#032B44" stroke-width="1.34831"/>
<defs>
<clipPath id="clip0_2062_4662">
<rect x="1.4834" y="2.04688" width="40.4494" height="40.4494" rx="10.1123" fill="white"/>
</clipPath>
</defs>
</svg>
