<svg width="23" height="23" viewBox="0 0 23 23" fill="none" xmlns="http://www.w3.org/2000/svg">
<path d="M11.5224 20.2088C16.6987 20.2088 19.8651 17.0425 19.8651 11.8661C19.8651 6.68977 16.6987 3.52344 11.5224 3.52344C6.34602 3.52344 3.17969 6.68977 3.17969 11.8661C3.17969 17.0425 6.34602 20.2088 11.5224 20.2088ZM10.1615 8.77013C10.7655 7.74425 11.0675 7.2313 11.5223 7.2313C11.9772 7.2313 12.2792 7.74424 12.8832 8.77013C12.919 8.8309 12.9535 8.8999 12.9893 8.97133C13.0868 9.16628 13.1934 9.37939 13.3596 9.4931C13.5076 9.59441 13.6957 9.60593 13.8816 9.61732C13.9673 9.62257 14.0526 9.6278 14.1332 9.64178C15.3465 9.85223 15.9531 9.95746 16.112 10.3569C16.1236 10.3861 16.1334 10.4159 16.1412 10.4463C16.2372 10.8189 15.8992 11.1473 15.2025 11.8243C15.1226 11.9021 15.0378 11.9844 14.9485 12.0719C14.8795 12.1395 14.8163 12.1981 14.7596 12.2507C14.5934 12.4048 14.4828 12.5074 14.4423 12.6358C14.4097 12.7395 14.4326 12.8488 14.466 13.0075C14.484 13.093 14.505 13.1928 14.5219 13.3137C14.6883 14.5014 14.7701 15.1596 14.4137 15.4284C13.9232 15.7983 13.2017 15.3849 12.6321 15.0585C12.4605 14.9601 12.3027 14.8697 12.1692 14.811C12.0541 14.7604 11.9598 14.7104 11.8783 14.6672C11.7344 14.5909 11.6304 14.5358 11.5223 14.5358C11.4143 14.5358 11.3103 14.5909 11.1664 14.6672C11.0849 14.7104 10.9906 14.7604 10.8755 14.811C10.742 14.8697 10.5842 14.9601 10.4126 15.0585C9.84302 15.3849 9.12149 15.7983 8.63097 15.4284C8.27455 15.1596 8.35912 14.5014 8.5255 13.3137C8.54209 13.1953 8.56225 13.0971 8.57956 13.0128C8.61276 12.8512 8.63548 12.7406 8.60244 12.6358C8.56159 12.5061 8.4506 12.4027 8.28234 12.246C8.2272 12.1946 8.16591 12.1375 8.09892 12.0719C8.00638 11.9812 7.91877 11.8961 7.83621 11.816C7.14491 11.1446 6.80792 10.8173 6.9035 10.4463C6.91132 10.4159 6.92107 10.3861 6.93268 10.3569C7.09155 9.95746 7.69821 9.85223 8.91153 9.64178C8.99213 9.6278 9.07737 9.62257 9.16308 9.61732C9.34897 9.60593 9.53711 9.59441 9.68512 9.4931C9.85127 9.37939 9.9579 9.16628 10.0554 8.97133C10.0912 8.8999 10.1257 8.8309 10.1615 8.77013Z" fill="white"/>
</svg>
