<svg width="14" height="14" viewBox="0 0 14 14" fill="none" xmlns="http://www.w3.org/2000/svg">
<path fill-rule="evenodd" clip-rule="evenodd" d="M6.83141 13.6589C10.5547 13.6589 13.573 10.6406 13.573 6.91735C13.573 3.19408 10.5547 0.175781 6.83141 0.175781C3.10814 0.175781 0.0898438 3.19408 0.0898438 6.91735C0.0898438 10.6406 3.10814 13.6589 6.83141 13.6589ZM9.91684 6.24744C10.2559 5.96193 10.2993 5.45563 10.0138 5.11658C9.72826 4.77754 9.22196 4.73414 8.88291 5.01965L6.39668 7.11332L5.15197 5.86861C4.83855 5.55519 4.33039 5.55519 4.01697 5.86861C3.70355 6.18203 3.70355 6.69019 4.01697 7.00361L5.57424 8.56088C5.98673 8.97337 6.64628 9.00159 7.09249 8.62583L9.91684 6.24744Z" fill="#0799EF"/>
</svg>
