<svg width="23" height="23" viewBox="0 0 23 23" fill="none" xmlns="http://www.w3.org/2000/svg">
<path d="M4.45312 16.3632C4.45312 17.1312 5.07565 17.7537 5.84357 17.7537H13.2593C14.0272 17.7537 14.6498 17.1312 14.6498 16.3632C14.6498 15.5953 14.0272 14.9728 13.2593 14.9728H5.84357C5.07565 14.9728 4.45312 15.5953 4.45312 16.3632ZM4.45312 11.7284C4.45312 12.4963 5.07565 13.1189 5.84357 13.1189H17.8941C18.6621 13.1189 19.2846 12.4963 19.2846 11.7284C19.2846 10.9605 18.6621 10.338 17.8941 10.338H5.84357C5.07565 10.338 4.45312 10.9605 4.45312 11.7284ZM4.45312 7.09357C4.45312 7.8615 5.07565 8.48402 5.84357 8.48402H17.8941C18.6621 8.48402 19.2846 7.8615 19.2846 7.09357C19.2846 6.32565 18.6621 5.70312 17.8941 5.70312H5.84357C5.07565 5.70312 4.45312 6.32565 4.45312 7.09357Z" fill="white"/>
</svg>
