<svg width="23" height="23" viewBox="0 0 23 23" fill="none" xmlns="http://www.w3.org/2000/svg">
<path d="M11.5947 20.117C16.771 20.117 19.9373 16.9507 19.9373 11.7743C19.9373 6.59797 16.771 3.43164 11.5947 3.43164C6.41829 3.43164 3.25195 6.59797 3.25195 11.7743C3.25195 16.9507 6.41829 20.117 11.5947 20.117ZM12.5216 8.06647C12.5216 8.57842 12.1066 8.99344 11.5947 8.99344C11.0827 8.99344 10.6677 8.57842 10.6677 8.06647C10.6677 7.55452 11.0827 7.13951 11.5947 7.13951C12.1066 7.13951 12.5216 7.55452 12.5216 8.06647ZM10.6677 11.7743C10.6677 11.2624 11.0827 10.8474 11.5947 10.8474C12.1066 10.8474 12.5216 11.2624 12.5216 11.7743V15.4822C12.5216 15.9942 12.1066 16.4092 11.5947 16.4092C11.0827 16.4092 10.6677 15.9942 10.6677 15.4822V11.7743Z" fill="white"/>
</svg>
