<svg width="34" height="35" viewBox="0 0 34 35" fill="none" xmlns="http://www.w3.org/2000/svg">
<circle cx="17.0375" cy="17.4867" r="16.8539" fill="#005BFF"/>
<path d="M17.3145 5.12639C10.9499 5.04947 5.72212 10.1524 5.6452 16.517C5.56828 22.8815 10.6713 28.1093 17.0358 28.1862C23.4003 28.2631 28.6281 23.1602 28.705 16.7956C28.7765 10.8808 24.3734 5.94972 18.6394 5.22312C18.2135 5.16032 17.7641 5.13182 17.3145 5.12639Z" fill="#005BFF"/>
<g opacity="0.5">
<path d="M9.2812 16.6911C9.42731 16.6933 9.59593 16.6062 9.72769 16.5505C9.78531 16.5265 9.89417 16.4986 9.93253 16.4507C9.93778 16.4441 10.0029 16.4075 9.9566 16.4068C9.81049 16.4047 9.64187 16.4918 9.51011 16.5475C9.44905 16.5731 9.35013 16.599 9.30527 16.6473C9.29886 16.6538 9.23551 16.6906 9.2812 16.6911Z" fill="#347CFF"/>
<path d="M9.65453 16.695C9.65303 16.7021 9.65298 16.7094 9.65444 16.7164C9.6548 16.7182 9.65545 16.72 9.6558 16.7218C9.66003 16.737 9.66447 16.7528 9.66993 16.7676C9.67096 16.771 9.67258 16.7744 9.67456 16.7773C9.67621 16.7804 9.67844 16.7837 9.68071 16.7866C9.68176 16.7876 9.68276 16.7889 9.68381 16.7899C9.69699 16.8039 9.71096 16.8186 9.72487 16.8315C9.72778 16.8339 9.73045 16.836 9.73373 16.8379C9.73427 16.8383 9.73478 16.8389 9.73561 16.8393C9.75035 16.848 9.77966 16.8643 9.79505 16.8724C9.79697 16.8735 9.79862 16.8743 9.80057 16.8752C9.81395 16.8807 9.83401 16.8868 9.84328 16.89C9.85482 16.8938 9.87159 16.9003 9.8858 16.9039C9.90084 16.9079 9.92985 16.9127 9.93245 16.9131C9.93931 16.9145 9.96388 16.9197 9.97939 16.9223L9.98401 16.9229C10.0175 16.9251 10.0512 16.9276 10.0849 16.9301C10.0867 16.9301 10.0884 16.9303 10.0902 16.9302C10.1055 16.9298 10.1768 16.9274 10.1921 16.9265C10.1933 16.9263 10.1942 16.9261 10.1951 16.9263C10.196 16.9261 10.1966 16.9259 10.1975 16.926C10.2145 16.9234 10.2723 16.9147 10.2891 16.9112C10.2912 16.9109 10.2933 16.9106 10.2951 16.9099C10.3082 16.9063 10.3211 16.9021 10.3339 16.8982C10.3473 16.8943 10.3607 16.8901 10.3741 16.8863C10.3748 16.886 10.376 16.8853 10.376 16.8853C10.3779 16.8847 10.3797 16.884 10.3813 16.8833C10.3916 16.8785 10.4061 16.8704 10.4127 16.8671C10.4192 16.8638 10.4339 16.8566 10.4438 16.8508C10.4456 16.8502 10.4475 16.8489 10.4492 16.8477C10.4655 16.8366 10.4874 16.8127 10.4954 16.8049C10.4981 16.8023 10.5004 16.7997 10.5029 16.7967C10.5053 16.7935 10.5075 16.79 10.5095 16.7861C10.5103 16.7845 10.5111 16.7825 10.5117 16.7805C10.5177 16.7658 10.5232 16.75 10.5278 16.7345C10.53 16.7265 10.5305 16.7181 10.5292 16.71C10.5284 16.6838 10.5177 16.6637 10.4976 16.6488C10.477 16.6242 10.4511 16.6068 10.4198 16.5967C10.3806 16.5796 10.3401 16.568 10.298 16.5621C10.2502 16.551 10.2016 16.5457 10.152 16.5459C10.1184 16.5472 10.0847 16.5485 10.0511 16.5497C9.9933 16.5547 9.93715 16.5672 9.88263 16.5876C9.86258 16.5976 9.84278 16.608 9.82297 16.6184C9.79196 16.6362 9.77426 16.6624 9.76956 16.697C9.77102 16.7063 9.77013 16.7155 9.76722 16.7246C9.77195 16.7105 9.77663 16.6967 9.78136 16.6826C9.77776 16.6924 9.77193 16.7014 9.76426 16.7086C9.77729 16.6962 9.79031 16.6838 9.80333 16.6714C9.79899 16.6755 9.79447 16.6787 9.78941 16.6816L9.8494 16.6505C9.84596 16.6521 9.84286 16.6535 9.83921 16.6545C9.86514 16.6467 9.89075 16.6391 9.91668 16.6312C9.91455 16.6318 9.91271 16.6325 9.91062 16.6328C9.94088 16.6278 9.97113 16.6229 10.0016 16.6183C9.99955 16.6186 9.99746 16.6189 9.9954 16.6189C10.029 16.6176 10.0626 16.6163 10.0965 16.6151C10.0945 16.6151 10.0924 16.6151 10.0901 16.6148C10.1238 16.6174 10.1575 16.6199 10.1909 16.6224L10.1849 16.6216C10.2149 16.6272 10.2453 16.6331 10.2753 16.639C10.2734 16.6385 10.2714 16.6379 10.2694 16.6374C10.295 16.6462 10.3203 16.6544 10.3459 16.6632C10.3425 16.6622 10.3392 16.6606 10.3359 16.6587C10.3556 16.6697 10.3753 16.6811 10.3948 16.6917C10.3899 16.6888 10.3853 16.6853 10.3811 16.6815L10.4188 16.7197C10.4116 16.7121 10.4059 16.7034 10.4028 16.6934C10.4068 16.7077 10.4112 16.7217 10.4156 16.7358C10.413 16.7263 10.412 16.7174 10.4141 16.708C10.4131 16.6818 10.4027 16.6617 10.3823 16.647C10.362 16.6222 10.336 16.6048 10.3048 16.5946C10.2656 16.5776 10.2251 16.566 10.183 16.5601C10.1351 16.549 10.0865 16.5437 10.0369 16.5438C10.0033 16.5454 9.96971 16.5464 9.93607 16.548C9.87798 16.5527 9.82211 16.5652 9.7676 16.5855C9.74751 16.5959 9.72774 16.606 9.70765 16.6164C9.67693 16.6342 9.65922 16.6604 9.65453 16.695Z" fill="#347CFF"/>
<path d="M9.64694 17.8575C9.79714 17.8595 9.99441 17.7795 9.96997 17.599C9.94511 17.4195 9.69893 17.3322 9.54771 17.3296C9.39751 17.3276 9.20001 17.4079 9.22445 17.5884C9.24891 17.7674 9.4952 17.8552 9.64694 17.8575Z" fill="#347CFF"/>
<path d="M9.30263 16.4465C9.4605 16.4488 9.60313 16.3203 9.54409 16.1592C9.47825 15.9809 9.25127 15.9081 9.08113 15.9058C8.92326 15.9035 8.78062 16.032 8.83994 16.1929C8.90551 16.3714 9.13249 16.4442 9.30263 16.4465Z" fill="#347CFF"/>
<path d="M11.1101 15.6272C11.2958 15.6299 11.4281 15.4647 11.3959 15.2842C11.3616 15.0934 11.175 14.9432 10.9833 14.9404C10.7972 14.9378 10.6652 15.1027 10.6974 15.2835C10.7317 15.4742 10.9183 15.6242 11.1101 15.6272Z" fill="#347CFF"/>
<path d="M11.4092 17.0274C11.5243 17.0293 11.7831 16.9797 11.7832 16.8245C11.7831 16.6644 11.4987 16.6451 11.3979 16.6437C11.2832 16.6422 11.0238 16.6915 11.0237 16.8467C11.0238 17.0071 11.3082 17.026 11.4092 17.0274Z" fill="#347CFF"/>
<path d="M10.9673 18.7475C11.1638 18.7505 10.853 18.0967 10.6287 18.0934C10.4322 18.0904 10.7427 18.7442 10.9673 18.7475Z" fill="#347CFF"/>
<path d="M7.53043 16.8988C7.63894 16.9006 7.46962 16.6525 7.45026 16.6249C7.39373 16.5415 7.23759 16.2957 7.11487 16.2939C7.00612 16.2923 7.17537 16.5408 7.19449 16.5686C7.25133 16.6514 7.40747 16.8972 7.53043 16.8988Z" fill="#347CFF"/>
<path d="M7.94143 18.8289C8.12794 18.8319 8.18841 18.6224 8.14261 18.4745C8.08719 18.2951 7.91635 18.1504 7.72625 18.1476C7.53982 18.1448 7.47918 18.3538 7.52507 18.502C7.58077 18.6812 7.75188 18.8259 7.94143 18.8289Z" fill="#347CFF"/>
<path d="M9.0182 15.2169C9.19989 15.2197 9.18681 14.9983 9.12663 14.888C9.03897 14.7259 8.86613 14.6095 8.68171 14.6065C8.50005 14.6043 8.51285 14.8252 8.57317 14.9359C8.66095 15.0975 8.83418 15.214 9.0182 15.2169Z" fill="#347CFF"/>
<path d="M18.4042 16.4372C18.5503 16.4393 18.7192 16.3523 18.8507 16.2966C18.9083 16.2725 19.0171 16.245 19.0555 16.1968C19.0611 16.1901 19.1258 16.1538 19.0796 16.1529C18.9338 16.1508 18.7649 16.2378 18.6331 16.2935C18.5721 16.3192 18.4731 16.345 18.4283 16.3933C18.4222 16.3999 18.3585 16.4366 18.4042 16.4372Z" fill="#347CFF"/>
<path d="M18.7794 16.4371C18.7782 16.4443 18.7779 16.4516 18.7793 16.4588C18.7797 16.4606 18.7803 16.4622 18.7807 16.464C18.7852 16.4792 18.7894 16.495 18.7948 16.5098C18.7961 16.5132 18.7978 16.5166 18.7995 16.5195C18.8014 16.5227 18.8033 16.5258 18.8056 16.5288C18.8067 16.5298 18.8079 16.5311 18.809 16.5321C18.8219 16.5461 18.8359 16.5608 18.8498 16.5737C18.8527 16.5761 18.8553 16.5782 18.8586 16.5801C18.8591 16.5808 18.8597 16.5811 18.8605 16.5815C18.8755 16.5902 18.9046 16.6065 18.9199 16.6149C18.9219 16.6157 18.9238 16.6168 18.9257 16.6177C18.9391 16.6232 18.9589 16.6289 18.9682 16.6322C18.98 16.636 18.9965 16.6425 19.0107 16.6461C19.0257 16.6501 19.0548 16.6549 19.0573 16.6553C19.0645 16.6567 19.0888 16.6619 19.1043 16.6645L19.1089 16.665C19.1423 16.6675 19.1761 16.6698 19.2098 16.6723C19.2115 16.6722 19.2136 16.6725 19.2153 16.6724C19.2306 16.672 19.3016 16.6696 19.317 16.6686C19.3182 16.6685 19.3191 16.6686 19.32 16.6684C19.3209 16.6682 19.3218 16.6681 19.3224 16.6681C19.3394 16.6656 19.3971 16.6568 19.4143 16.6534C19.4164 16.6531 19.4182 16.6528 19.4203 16.6522C19.4331 16.6485 19.446 16.6443 19.4588 16.6403C19.4722 16.6365 19.4856 16.6323 19.499 16.6284C19.4996 16.6282 19.5006 16.628 19.5012 16.6275L19.5062 16.6255C19.5167 16.6207 19.531 16.6125 19.5376 16.6093C19.5441 16.606 19.5588 16.5988 19.569 16.593C19.5705 16.5923 19.5724 16.5911 19.5741 16.5899C19.5904 16.5787 19.6122 16.5551 19.6203 16.547C19.623 16.5445 19.6253 16.5418 19.6278 16.5389C19.6302 16.5357 19.6324 16.5322 19.6344 16.5283L19.6369 16.5228C19.6429 16.508 19.6481 16.4922 19.6527 16.4767C19.6552 16.4688 19.6557 16.4603 19.6541 16.4522C19.6533 16.426 19.6426 16.4059 19.6225 16.391C19.6019 16.3663 19.576 16.349 19.5447 16.3388C19.5058 16.3218 19.465 16.3102 19.4232 16.3043C19.3751 16.2932 19.3265 16.2879 19.2771 16.2881C19.2435 16.2894 19.2096 16.2906 19.176 16.2919C19.1182 16.2969 19.062 16.3094 19.0075 16.3297C18.9878 16.3398 18.9677 16.3502 18.9479 16.3606C18.9169 16.3783 18.8994 16.4046 18.8947 16.4392C18.8962 16.4485 18.895 16.4577 18.8921 16.4667C18.8968 16.4527 18.9015 16.4389 18.9065 16.4248C18.9027 16.4346 18.8968 16.4436 18.8894 16.4508C18.9022 16.4384 18.9152 16.426 18.9285 16.4136C18.9239 16.4177 18.9194 16.4209 18.9143 16.4238C18.9344 16.4134 18.9545 16.4031 18.9743 16.393C18.9711 16.3943 18.9678 16.3957 18.9644 16.3967C18.99 16.3891 19.0159 16.3813 19.0416 16.3734C19.0394 16.374 19.0376 16.3746 19.0355 16.375C19.0658 16.37 19.0963 16.3654 19.1265 16.3604L19.1203 16.3614C19.1542 16.3598 19.1878 16.3588 19.2214 16.3572C19.2193 16.3573 19.2173 16.3573 19.2153 16.3571C19.2487 16.3595 19.2824 16.3621 19.3161 16.3646C19.314 16.3646 19.3121 16.3641 19.3098 16.3638C19.3401 16.3694 19.3702 16.3753 19.4002 16.3812C19.3983 16.3806 19.3963 16.3801 19.3943 16.3795C19.4199 16.3884 19.4452 16.3969 19.4708 16.4054C19.4674 16.4044 19.4641 16.4028 19.4611 16.4012C19.4805 16.4119 19.5002 16.4232 19.5197 16.4339C19.5148 16.4309 19.5102 16.4274 19.5063 16.4237C19.5188 16.4364 19.5312 16.4492 19.5437 16.4619C19.5365 16.4542 19.5308 16.4456 19.5276 16.4358C19.532 16.4499 19.5361 16.4639 19.5405 16.4779C19.5379 16.4685 19.5372 16.4596 19.539 16.4502C19.5383 16.424 19.5276 16.4038 19.5072 16.3892C19.4869 16.3643 19.4609 16.3469 19.4297 16.3368C19.3907 16.3198 19.35 16.3082 19.3079 16.3022C19.26 16.2912 19.2114 16.2859 19.1618 16.286C19.1282 16.2876 19.0946 16.2886 19.061 16.2902C19.0032 16.2949 18.947 16.3074 18.8925 16.3277C18.8727 16.3381 18.8526 16.3482 18.8325 16.3585C18.8018 16.3763 18.7841 16.4028 18.7794 16.4371Z" fill="#347CFF"/>
<path d="M18.7713 17.5995C18.9216 17.6017 19.1188 17.5213 19.0942 17.3408C19.0696 17.1616 18.8236 17.0741 18.6718 17.0716C18.5216 17.0697 18.3244 17.1501 18.3493 17.3305C18.3736 17.5098 18.6196 17.5976 18.7713 17.5995Z" fill="#347CFF"/>
<path d="M18.4257 16.1887C18.5838 16.1909 18.7262 16.0625 18.6671 15.9014C18.6013 15.723 18.3743 15.6503 18.2042 15.648C18.0463 15.6456 17.9037 15.7742 17.963 15.9351C18.0286 16.1136 18.2555 16.1864 18.4257 16.1887Z" fill="#347CFF"/>
<path d="M20.2331 15.3694C20.4192 15.3721 20.5511 15.2069 20.5187 15.0264C20.4847 14.8356 20.2981 14.6857 20.1063 14.6826C19.9202 14.6797 19.7883 14.8452 19.8205 15.0257C19.8548 15.2164 20.0414 15.3664 20.2331 15.3694Z" fill="#347CFF"/>
<path d="M20.5342 16.7736C20.649 16.7751 20.9081 16.7258 20.9082 16.5707C20.9081 16.4105 20.6237 16.3913 20.5229 16.3899C20.4079 16.388 20.1488 16.4376 20.1487 16.5928C20.1488 16.7532 20.4332 16.7722 20.5342 16.7736Z" fill="#347CFF"/>
<path d="M20.0905 18.4936C20.2867 18.4966 19.9762 17.8428 19.7516 17.8395C19.5554 17.8365 19.8659 18.4903 20.0905 18.4936Z" fill="#347CFF"/>
<path d="M16.6553 16.641C16.764 16.643 16.5945 16.3947 16.5752 16.367C16.5186 16.2841 16.3629 16.038 16.2398 16.0361C16.131 16.0345 16.3005 16.2828 16.3194 16.3108C16.3765 16.3934 16.5321 16.6395 16.6553 16.641Z" fill="#347CFF"/>
<path d="M17.0642 18.5751C17.2506 18.5779 17.3113 18.3689 17.2654 18.2207C17.21 18.0414 17.0389 17.8968 16.849 17.8939C16.6627 17.8914 16.602 18.1001 16.6481 18.2482C16.7036 18.4275 16.8748 18.5724 17.0642 18.5751Z" fill="#347CFF"/>
<path d="M18.1432 14.9629C18.3246 14.9659 18.3117 14.7443 18.2518 14.6338C18.1641 14.4718 17.9908 14.3554 17.8065 14.3527C17.6254 14.3502 17.6384 14.5714 17.6981 14.682C17.7859 14.8436 17.9591 14.9601 18.1432 14.9629Z" fill="#347CFF"/>
<path d="M16.0644 18.5231C16.2105 18.5253 16.3791 18.4382 16.5109 18.3825C16.5685 18.3584 16.6773 18.3309 16.7157 18.2827C16.721 18.276 16.786 18.2397 16.7398 18.2388C16.5937 18.2367 16.4251 18.3238 16.2933 18.3795C16.2323 18.4051 16.1333 18.431 16.0885 18.4792C16.0821 18.4858 16.0187 18.5226 16.0644 18.5231Z" fill="#347CFF"/>
<path d="M16.4397 18.5231C16.4382 18.5302 16.4381 18.5376 16.4396 18.5448C16.4399 18.5466 16.4406 18.5484 16.441 18.5499C16.4452 18.5651 16.4496 18.581 16.4551 18.5957C16.4561 18.5991 16.4577 18.6025 16.4597 18.6054C16.4617 18.6086 16.4636 18.6118 16.4659 18.6147C16.4669 18.6157 16.4679 18.617 16.4692 18.6184C16.4821 18.632 16.4961 18.6467 16.51 18.6596C16.5129 18.6621 16.5156 18.6642 16.5189 18.6661C16.5194 18.6667 16.5199 18.6671 16.5208 18.6675C16.5355 18.6761 16.5648 18.6924 16.5802 18.7008C16.5821 18.7017 16.5837 18.7028 16.5857 18.7036C16.5991 18.7091 16.6192 18.7149 16.6284 18.7181C16.64 18.7219 16.6567 18.7285 16.671 18.732C16.686 18.736 16.715 18.7409 16.7176 18.7412C16.7245 18.7427 16.749 18.7478 16.7645 18.7504L16.7692 18.751C16.8026 18.7535 16.8363 18.7557 16.87 18.7583C16.8718 18.7582 16.8735 18.7584 16.8753 18.7583C16.8906 18.7582 16.9619 18.7556 16.9773 18.7546C16.9785 18.7544 16.9793 18.7546 16.9802 18.7544C16.9811 18.7542 16.9821 18.754 16.9826 18.7541C16.9997 18.7516 17.0574 18.7428 17.0746 18.7394C17.0764 18.739 17.0785 18.7387 17.0803 18.7381C17.0934 18.7344 17.1062 18.7302 17.1191 18.7263C17.1325 18.7224 17.1459 18.7182 17.1593 18.7144C17.1599 18.7142 17.1608 18.714 17.1615 18.7135C17.163 18.7128 17.1649 18.7122 17.1664 18.7115C17.1767 18.7066 17.1912 18.6985 17.1978 18.6955C17.2044 18.692 17.2191 18.685 17.2289 18.6789C17.2308 18.6783 17.2327 18.6771 17.2343 18.6758C17.2507 18.6647 17.2725 18.6411 17.2805 18.633C17.2832 18.6304 17.2856 18.6278 17.288 18.6249C17.2905 18.6216 17.2927 18.6181 17.2947 18.6143C17.2955 18.6126 17.2963 18.6107 17.2971 18.6087C17.3031 18.5939 17.3083 18.5782 17.313 18.5626C17.3151 18.5547 17.3156 18.5462 17.3143 18.5381C17.3135 18.5119 17.3029 18.4918 17.2828 18.4769C17.2622 18.4523 17.2362 18.4349 17.2049 18.4248C17.1657 18.4078 17.1253 18.3962 17.0832 18.3902C17.0353 18.3791 16.9867 18.3738 16.9371 18.374C16.9035 18.3756 16.8699 18.3766 16.8363 18.3782C16.7785 18.3828 16.7223 18.3953 16.6678 18.4157C16.648 18.4258 16.6279 18.4361 16.6081 18.4465C16.5771 18.4643 16.5594 18.4905 16.5547 18.5251C16.5562 18.5344 16.5553 18.5439 16.5524 18.5527C16.5571 18.5389 16.5618 18.5248 16.5665 18.5108C16.5629 18.5206 16.5571 18.5295 16.5494 18.5368C16.5624 18.5243 16.5755 18.5119 16.5884 18.4998C16.5841 18.5036 16.5796 18.5069 16.5746 18.5097C16.5947 18.4994 16.6145 18.489 16.6345 18.4789C16.6311 18.4803 16.628 18.4816 16.6244 18.4826C16.6503 18.4751 16.6759 18.4672 16.7018 18.4593C16.6997 18.4599 16.6979 18.4606 16.6958 18.4609C16.726 18.456 16.7563 18.4513 16.7868 18.4467C16.7847 18.447 16.7826 18.447 16.7805 18.4473C16.8142 18.4458 16.8477 18.4447 16.8817 18.4432C16.8796 18.4432 16.8776 18.4433 16.8752 18.443C16.909 18.4455 16.9427 18.448 16.9761 18.4505C16.9743 18.4506 16.972 18.45 16.97 18.4497C17.0001 18.4553 17.0304 18.4612 17.0605 18.4671C17.0585 18.4666 17.0565 18.466 17.0546 18.4655C17.0801 18.4743 17.1054 18.4828 17.1311 18.4914C17.1277 18.4903 17.1243 18.4887 17.121 18.4871C17.1408 18.4979 17.1605 18.5092 17.1799 18.5199C17.175 18.5172 17.1705 18.5137 17.1663 18.5096L17.204 18.5479C17.1967 18.5402 17.1911 18.5316 17.1879 18.5218C17.192 18.5358 17.1964 18.5498 17.2007 18.5639C17.1981 18.5547 17.1972 18.5455 17.1993 18.5361C17.1985 18.5102 17.1879 18.4898 17.1674 18.4752C17.1471 18.4506 17.1212 18.4329 17.0899 18.4228C17.0507 18.4057 17.0102 18.3941 16.9681 18.3885C16.9203 18.3771 16.8717 18.3718 16.8221 18.372C16.7884 18.3735 16.7549 18.3746 16.7212 18.3761C16.6631 18.3808 16.6073 18.3933 16.5528 18.4137C16.5327 18.424 16.5129 18.4344 16.4928 18.4445C16.4621 18.4623 16.4443 18.4888 16.4397 18.5231Z" fill="#347CFF"/>
<path d="M16.4318 19.6855C16.5817 19.6875 16.7792 19.6073 16.7547 19.4271C16.7301 19.2476 16.4841 19.1604 16.3323 19.1576C16.1821 19.1557 15.9849 19.2361 16.0094 19.4163C16.034 19.5958 16.2801 19.6836 16.4318 19.6855Z" fill="#347CFF"/>
<path d="M16.0858 18.2746C16.2437 18.277 16.3863 18.1484 16.3273 17.9874C16.2615 17.809 16.0345 17.7362 15.8643 17.7339C15.7065 17.7316 15.5638 17.8601 15.6233 18.0213C15.6887 18.1996 15.9157 18.2723 16.0858 18.2746Z" fill="#347CFF"/>
<path d="M17.8933 17.4515C18.0793 17.4541 18.2113 17.2889 18.1791 17.1084C18.1448 16.9176 17.9582 16.7677 17.7665 16.7646C17.5804 16.762 17.4485 16.9272 17.4806 17.1077C17.5149 17.2985 17.7015 17.4484 17.8933 17.4515Z" fill="#347CFF"/>
<path d="M18.1944 18.8516C18.3094 18.8535 18.5683 18.8039 18.5683 18.6487C18.5683 18.4886 18.2838 18.4694 18.1831 18.468C18.0683 18.4664 17.8089 18.5157 17.8088 18.6712C17.8089 18.8313 18.0933 18.8503 18.1944 18.8516Z" fill="#347CFF"/>
<path d="M17.7526 20.5757C17.9488 20.5786 17.6383 19.9248 17.4137 19.9215C17.2175 19.9185 17.528 20.5723 17.7526 20.5757Z" fill="#347CFF"/>
<path d="M14.3155 18.7269C14.4242 18.7289 14.2547 18.4806 14.2353 18.453C14.1787 18.3701 14.023 18.1239 13.8999 18.122C13.7912 18.1204 13.9607 18.3687 13.9795 18.3967C14.0366 18.4793 14.1923 18.7254 14.3155 18.7269Z" fill="#347CFF"/>
<path d="M14.7263 20.6571C14.9131 20.66 14.9734 20.4508 14.9275 20.3027C14.8721 20.1236 14.7012 19.9786 14.5111 19.9758C14.3248 19.9733 14.2641 20.182 14.3102 20.3301C14.3659 20.5093 14.5368 20.6543 14.7263 20.6571Z" fill="#347CFF"/>
<path d="M15.8053 17.045C15.9867 17.0479 15.9738 16.8264 15.9136 16.716C15.8262 16.5539 15.6529 16.4374 15.4686 16.4347C15.2875 16.4323 15.3001 16.6533 15.3602 16.7641C15.448 16.9257 15.6212 17.0421 15.8053 17.045Z" fill="#347CFF"/>
<path d="M12.5643 14.5547C12.7105 14.5565 12.8794 14.4695 13.0108 14.4137C13.0685 14.3897 13.1773 14.3622 13.2157 14.314C13.2212 14.3076 13.286 14.271 13.2398 14.2701C13.0936 14.2679 12.925 14.3553 12.7933 14.4107C12.7322 14.4364 12.6333 14.4625 12.5884 14.5105C12.5823 14.517 12.5186 14.5541 12.5643 14.5547Z" fill="#347CFF"/>
<path d="M12.9395 14.5546C12.9384 14.5615 12.938 14.5691 12.9395 14.576C12.9398 14.5778 12.9405 14.5797 12.9408 14.5815C12.9451 14.5964 12.9495 14.6122 12.955 14.627C12.9563 14.6307 12.9579 14.6338 12.9596 14.6367C12.9615 14.6401 12.9635 14.643 12.9658 14.646C12.9668 14.6473 12.9678 14.6483 12.9691 14.6496C12.982 14.6636 12.996 14.678 13.0099 14.6912C13.0128 14.6933 13.0155 14.6954 13.0187 14.6976L13.0207 14.6987C13.0357 14.7074 13.0647 14.7237 13.0801 14.7321C13.082 14.7329 13.0836 14.734 13.0856 14.7348C13.0993 14.7404 13.1191 14.7461 13.1283 14.7494C13.1401 14.7535 13.1566 14.76 13.1708 14.7636C13.1859 14.7672 13.2149 14.7721 13.2175 14.7727C13.2244 14.7739 13.2489 14.7794 13.2644 14.7816L13.2691 14.7822C13.3025 14.7847 13.3362 14.7872 13.3699 14.7895C13.3717 14.7897 13.3737 14.7897 13.3752 14.7896C13.3908 14.7895 13.4618 14.7868 13.4772 14.7858C13.4784 14.7857 13.4792 14.7858 13.4801 14.7856C13.481 14.7854 13.4819 14.7855 13.4825 14.7853C13.4996 14.7828 13.5573 14.774 13.5744 14.7709C13.5766 14.7703 13.5784 14.7699 13.5805 14.7693C13.5933 14.7657 13.6061 14.7617 13.619 14.7575C13.6323 14.7539 13.6458 14.7498 13.6592 14.7456L13.6613 14.745C13.6629 14.7443 13.6648 14.7434 13.6663 14.7427C13.6766 14.7379 13.6911 14.7297 13.6977 14.7268C13.7043 14.7232 13.719 14.7163 13.7291 14.7102C13.7307 14.7095 13.7325 14.7086 13.7342 14.7073C13.7506 14.6959 13.7724 14.6723 13.7804 14.6645C13.7831 14.6619 13.7855 14.659 13.7879 14.6564C13.7903 14.6532 13.7926 14.6494 13.7946 14.6455C13.7953 14.6441 13.7961 14.6422 13.797 14.6399C13.803 14.6252 13.8082 14.6094 13.8128 14.5941C13.815 14.5862 13.8155 14.5778 13.8142 14.5694C13.8134 14.5435 13.8028 14.523 13.7827 14.5085C13.762 14.4838 13.7361 14.4664 13.7048 14.456C13.6659 14.439 13.6251 14.4277 13.5834 14.4215C13.5352 14.4104 13.4866 14.4051 13.437 14.4052C13.4034 14.4068 13.3698 14.4078 13.3362 14.4094C13.2784 14.4141 13.2222 14.4266 13.1677 14.4469C13.1479 14.4573 13.1278 14.4677 13.108 14.4778C13.077 14.4955 13.0596 14.5221 13.0549 14.5564C13.0564 14.5657 13.0551 14.5752 13.0523 14.5839C13.057 14.5701 13.0617 14.5561 13.0667 14.5423C13.0628 14.5521 13.057 14.5607 13.0496 14.568C13.0623 14.5556 13.0753 14.5434 13.0883 14.531C13.084 14.5349 13.0795 14.5384 13.0745 14.541C13.0946 14.5306 13.1146 14.5206 13.1344 14.5102C13.1313 14.5118 13.1279 14.5129 13.1245 14.5139C13.1502 14.5063 13.1758 14.4984 13.2017 14.4909C13.1996 14.4912 13.1978 14.4918 13.1957 14.4921C13.2259 14.4872 13.2564 14.4826 13.2867 14.4779C13.2846 14.4782 13.2825 14.4783 13.2804 14.4786C13.3143 14.477 13.3479 14.476 13.3816 14.4744C13.3795 14.4745 13.3774 14.4745 13.3754 14.4745C13.4088 14.4767 13.4426 14.4793 13.4759 14.482C13.4742 14.4818 13.4719 14.4815 13.4699 14.481C13.5 14.4866 13.5303 14.4925 13.5604 14.4984C13.5584 14.4978 13.5564 14.4973 13.5544 14.4967C13.58 14.5056 13.6053 14.5141 13.6309 14.5229C13.6276 14.5216 13.6242 14.52 13.6212 14.5184C13.6407 14.5291 13.6604 14.5404 13.6798 14.5514C13.6749 14.5484 13.6704 14.5449 13.6664 14.5412C13.6789 14.5539 13.6913 14.5667 13.7038 14.5794C13.6966 14.5717 13.691 14.5628 13.6878 14.553C13.6919 14.567 13.6963 14.5811 13.7006 14.5951C13.698 14.586 13.6974 14.5768 13.6991 14.5676C13.6984 14.5414 13.6878 14.521 13.6673 14.5064C13.647 14.4818 13.621 14.4644 13.5898 14.4543C13.5506 14.437 13.5101 14.4257 13.468 14.4197C13.4202 14.4084 13.3716 14.4031 13.3219 14.4035C13.2883 14.4048 13.2547 14.4061 13.2211 14.4074C13.1633 14.4123 13.1072 14.4246 13.0527 14.4449C13.0329 14.4553 13.0128 14.4656 12.9927 14.476C12.962 14.4935 12.9442 14.52 12.9395 14.5546Z" fill="#347CFF"/>
<path d="M12.9315 15.7166C13.0817 15.7188 13.2789 15.6384 13.2544 15.4582C13.2297 15.2787 12.9837 15.1915 12.8319 15.189C12.6817 15.1869 12.4848 15.2673 12.5093 15.4474C12.5337 15.627 12.7797 15.7145 12.9315 15.7166Z" fill="#347CFF"/>
<path d="M12.5858 14.3059C12.744 14.3081 12.8865 14.1793 12.8272 14.0184C12.7613 13.84 12.5342 13.7676 12.3642 13.7649C12.2064 13.7626 12.0637 13.8912 12.1231 14.0524C12.1889 14.2305 12.4159 14.3032 12.5858 14.3059Z" fill="#347CFF"/>
<path d="M14.3933 13.4827C14.5793 13.4853 14.7113 13.3204 14.6788 13.1397C14.6445 12.9486 14.4582 12.799 14.2665 12.7959C14.0804 12.7929 13.9485 12.9585 13.9806 13.139C14.0149 13.3297 14.2016 13.4799 14.3933 13.4827Z" fill="#347CFF"/>
<path d="M14.6944 14.883C14.8094 14.8845 15.0686 14.8353 15.0684 14.6801C15.0683 14.5194 14.7839 14.5004 14.6831 14.499C14.5681 14.4974 14.3089 14.5467 14.3089 14.7022C14.3089 14.8623 14.5936 14.8813 14.6944 14.883Z" fill="#347CFF"/>
<path d="M14.2507 16.603C14.4468 16.606 14.1363 15.9522 13.9117 15.9488C13.7156 15.9459 14.0261 16.5997 14.2507 16.603Z" fill="#347CFF"/>
<path d="M10.8156 14.7581C10.9242 14.7601 10.7544 14.512 10.7353 14.4842C10.6787 14.4013 10.523 14.1552 10.4 14.1535C10.2911 14.1518 10.4606 14.4 10.4795 14.428C10.5364 14.5107 10.6924 14.7566 10.8156 14.7581Z" fill="#347CFF"/>
<path d="M11.2244 16.6845C11.4108 16.6872 11.4714 16.4783 11.4256 16.3301C11.3702 16.151 11.199 16.0061 11.0092 16.0032C10.8229 16.0007 10.7621 16.2094 10.8083 16.3575C10.8637 16.5369 11.0346 16.6816 11.2244 16.6845Z" fill="#347CFF"/>
<path d="M12.305 13.0763C12.4867 13.0791 12.4737 12.858 12.4139 12.7471C12.3261 12.5855 12.1528 12.469 11.9685 12.4663C11.7872 12.4636 11.8 12.6849 11.8602 12.7953C11.9477 12.957 12.1211 13.0737 12.305 13.0763Z" fill="#347CFF"/>
<path d="M18.6795 21.2961C18.7727 21.1836 18.8102 20.9974 18.8491 20.8598C18.8662 20.7998 18.9129 20.6975 18.8994 20.6377C18.8975 20.6292 18.9095 20.5556 18.8801 20.5915C18.7871 20.7041 18.7493 20.8902 18.7105 21.0276C18.6926 21.0916 18.6508 21.1848 18.6602 21.25C18.6614 21.2589 18.6504 21.3315 18.6795 21.2961Z" fill="#347CFF"/>
<path d="M18.9151 21.0061C18.9197 21.012 18.9256 21.0162 18.9319 21.0197L18.9369 21.0221C18.9514 21.028 18.9664 21.0346 18.9813 21.0395C18.9847 21.0408 18.9884 21.0415 18.9918 21.0423C18.9956 21.0428 18.9991 21.0429 19.0029 21.0428C19.0044 21.0427 19.0058 21.0426 19.0076 21.0425C19.0266 21.0411 19.0467 21.0396 19.0656 21.0367C19.0692 21.036 19.0728 21.035 19.0762 21.0339C19.0768 21.0334 19.0774 21.0332 19.0783 21.033C19.0946 21.0272 19.1256 21.0144 19.1415 21.0073C19.1433 21.0067 19.1452 21.0058 19.147 21.0051C19.16 20.998 19.1767 20.986 19.185 20.9809C19.1955 20.9743 19.2111 20.9651 19.223 20.9564C19.2351 20.9471 19.2572 20.9273 19.2592 20.9255C19.2645 20.9212 19.2838 20.9052 19.2954 20.8949C19.2961 20.8941 19.2971 20.8934 19.2977 20.8926L19.2988 20.8915C19.3218 20.8669 19.3446 20.8422 19.3677 20.8176C19.3688 20.816 19.3701 20.8147 19.3712 20.8133C19.3806 20.8013 19.4231 20.7442 19.4318 20.7316C19.4325 20.7305 19.4332 20.7297 19.4336 20.7289C19.434 20.728 19.4343 20.7275 19.4347 20.7267C19.4436 20.7122 19.4726 20.6617 19.4808 20.646C19.4819 20.6444 19.4827 20.6427 19.4835 20.6407L19.4986 20.6031C19.504 20.5903 19.5092 20.5771 19.5144 20.5643C19.5145 20.5634 19.5148 20.5629 19.5152 20.5623C19.5157 20.5606 19.516 20.5586 19.5165 20.5569C19.5191 20.5458 19.522 20.5295 19.5235 20.5223C19.525 20.5152 19.5288 20.4992 19.5305 20.488L19.5313 20.4817C19.5327 20.4619 19.5279 20.4302 19.5267 20.4186C19.5266 20.4154 19.5259 20.4115 19.5252 20.4078C19.5239 20.4042 19.5226 20.4002 19.5211 20.3962C19.5201 20.3943 19.5192 20.3924 19.5182 20.3908C19.5103 20.3769 19.501 20.3628 19.4921 20.3497C19.4874 20.3426 19.481 20.3374 19.4739 20.3333C19.4528 20.3174 19.4305 20.3128 19.4062 20.3194C19.3744 20.3203 19.3447 20.3297 19.3169 20.3476C19.2792 20.3672 19.2447 20.3918 19.214 20.4208C19.1752 20.4513 19.1406 20.4859 19.1102 20.5246C19.09 20.552 19.0698 20.579 19.05 20.6058C19.0174 20.6542 18.9921 20.7055 18.9739 20.761C18.9693 20.783 18.9651 20.8048 18.9605 20.8268C18.9552 20.8619 18.9645 20.8924 18.9886 20.9175C18.9968 20.9223 19.0036 20.9288 19.0085 20.9367C19.0007 20.9243 18.9928 20.9122 18.985 20.8994C18.9903 20.9086 18.9935 20.9184 18.9945 20.9288C18.9929 20.9113 18.9914 20.8932 18.9899 20.8751C18.9903 20.881 18.9899 20.8868 18.9889 20.8923C18.9934 20.8706 18.9977 20.8485 19.0022 20.8265C19.0015 20.8299 19.0005 20.8333 18.9992 20.8367C19.0091 20.8118 19.0193 20.7867 19.0293 20.7616C19.0284 20.7636 19.0276 20.7655 19.0265 20.7674C19.0419 20.7406 19.0571 20.7138 19.0721 20.6876C19.0713 20.6892 19.0702 20.6908 19.0692 20.6925C19.089 20.6657 19.1089 20.6383 19.129 20.6115C19.128 20.6128 19.1266 20.6147 19.1252 20.6163C19.148 20.5913 19.1711 20.567 19.1939 20.542C19.1925 20.5436 19.1909 20.5451 19.1896 20.5461C19.2129 20.5262 19.2363 20.5066 19.2596 20.4867C19.258 20.488 19.2564 20.4892 19.2547 20.4905C19.2774 20.4758 19.3001 20.4616 19.3228 20.4469C19.3196 20.4489 19.3164 20.4505 19.313 20.4518L19.3755 20.4264C19.3703 20.4286 19.3648 20.43 19.3592 20.4307C19.377 20.4289 19.3948 20.427 19.4123 20.4255C19.402 20.4262 19.3919 20.4249 19.3817 20.4216L19.4228 20.4379C19.4142 20.4342 19.4063 20.4288 19.4002 20.4219C19.3793 20.406 19.3567 20.4014 19.3327 20.408C19.3009 20.4089 19.271 20.4183 19.2435 20.4362C19.2058 20.4558 19.1712 20.4804 19.1403 20.5094C19.1018 20.5397 19.0671 20.5746 19.0364 20.6132C19.0165 20.6403 18.9963 20.6676 18.9762 20.6944C18.9439 20.7428 18.9186 20.7942 18.9004 20.8496C18.8959 20.8714 18.8916 20.8934 18.8871 20.9154C18.8817 20.9505 18.891 20.9811 18.9151 21.0061Z" fill="#347CFF"/>
<path d="M19.8163 21.7399C19.9121 21.6238 19.9727 21.4197 19.8167 21.3264C19.6616 21.2332 19.4392 21.3703 19.3424 21.4875C19.247 21.6029 19.1863 21.8073 19.3424 21.901C19.4973 21.994 19.7198 21.8567 19.8163 21.7399Z" fill="#347CFF"/>
<path d="M18.4998 21.1241C18.6004 21.0021 18.589 20.8103 18.4262 20.7556C18.2458 20.6953 18.0476 20.8274 17.939 20.9586C17.8385 21.0803 17.8496 21.272 18.0125 21.3265C18.1929 21.3867 18.3915 21.2554 18.4998 21.1241Z" fill="#347CFF"/>
<path d="M18.9872 19.2028C19.1059 19.0594 19.0595 18.8524 18.8987 18.765C18.7283 18.6725 18.4946 18.724 18.372 18.8722C18.2537 19.0155 18.2999 19.2217 18.4611 19.3096C18.6314 19.4021 18.865 19.3505 18.9872 19.2028Z" fill="#347CFF"/>
<path d="M20.2714 19.845C20.3445 19.7562 20.4681 19.5228 20.3469 19.4259C20.2219 19.3258 20.0294 19.536 19.9649 19.6138C19.8917 19.7022 19.7681 19.9352 19.8893 20.0325C20.0147 20.1326 20.2072 19.9227 20.2714 19.845Z" fill="#347CFF"/>
<path d="M21.3358 21.2643C21.4609 21.1131 20.7564 20.9466 20.6135 21.1196C20.4883 21.2712 21.1929 21.4374 21.3358 21.2643Z" fill="#347CFF"/>
<path d="M17.7442 22.7888C17.8131 22.7049 17.5137 22.6819 17.48 22.6794C17.3796 22.672 17.0908 22.6396 17.012 22.7347C16.943 22.8183 17.2425 22.8413 17.2761 22.8438C17.3766 22.8512 17.6657 22.8834 17.7442 22.7888Z" fill="#347CFF"/>
<path d="M19.5076 23.6785C19.6262 23.5347 19.5014 23.3567 19.3569 23.2994C19.1822 23.2308 18.9624 23.2735 18.8413 23.42C18.7229 23.5635 18.8477 23.7415 18.9921 23.7988C19.1668 23.8675 19.3866 23.8248 19.5076 23.6785Z" fill="#347CFF"/>
<path d="M17.363 20.5779C17.4785 20.4381 17.2979 20.3096 17.1741 20.2873C16.9931 20.2547 16.7939 20.3167 16.6763 20.4588C16.5608 20.5986 16.7415 20.7268 16.8651 20.7494C17.0461 20.7819 17.2456 20.7199 17.363 20.5779Z" fill="#347CFF"/>
<path d="M24.1873 14.019C24.2803 13.9064 24.3178 13.7202 24.357 13.5823C24.374 13.5226 24.4207 13.4203 24.4072 13.3605C24.4054 13.352 24.4174 13.2785 24.3879 13.314C24.2949 13.4269 24.2572 13.6127 24.2183 13.7504C24.2002 13.8141 24.1587 13.9076 24.168 13.9728C24.1692 13.9817 24.1582 14.0543 24.1873 14.019Z" fill="#347CFF"/>
<path d="M24.423 13.7288C24.4278 13.7344 24.4334 13.7389 24.4397 13.7424C24.4414 13.7432 24.443 13.744 24.4447 13.7445C24.4592 13.7507 24.4742 13.757 24.4891 13.7621C24.4928 13.7635 24.4962 13.7642 24.4999 13.7647C24.5034 13.7651 24.5072 13.7656 24.5107 13.7655L24.5154 13.7652C24.5344 13.7635 24.5545 13.7623 24.5734 13.7591C24.577 13.7587 24.5806 13.7577 24.584 13.7563C24.5846 13.7561 24.5855 13.7559 24.5862 13.7557C24.6025 13.7496 24.6334 13.7371 24.6493 13.73C24.6514 13.7291 24.6533 13.7285 24.6552 13.7275C24.6678 13.7206 24.6848 13.7087 24.6931 13.7036C24.7033 13.697 24.7192 13.6879 24.7308 13.6791C24.7432 13.6695 24.7651 13.65 24.767 13.6482C24.7723 13.6439 24.7919 13.6279 24.8035 13.6173C24.8042 13.6165 24.8049 13.616 24.8056 13.6152C24.8059 13.6147 24.8062 13.6145 24.8069 13.614C24.8297 13.5896 24.8527 13.5649 24.8756 13.54C24.8766 13.5386 24.878 13.5373 24.879 13.536C24.8885 13.524 24.9309 13.4669 24.9399 13.454C24.9403 13.4532 24.941 13.4524 24.9414 13.4512C24.9418 13.4507 24.9422 13.4499 24.9425 13.4493C24.9514 13.4349 24.9808 13.3841 24.9889 13.3687C24.9897 13.367 24.9905 13.3651 24.9914 13.3631C24.9964 13.3509 25.0016 13.3383 25.0064 13.3257C25.0118 13.3129 25.017 13.2998 25.0222 13.2867C25.0226 13.2861 25.0226 13.2856 25.023 13.2847C25.0235 13.283 25.0241 13.2813 25.0243 13.2796C25.0272 13.2682 25.0301 13.2522 25.0313 13.245C25.0328 13.2379 25.0366 13.2219 25.0384 13.2104C25.0389 13.2084 25.0392 13.2064 25.0392 13.2041C25.0408 13.1846 25.0357 13.1529 25.0348 13.1413C25.0344 13.1377 25.034 13.1342 25.033 13.1305C25.032 13.1266 25.0308 13.1226 25.0289 13.1188C25.028 13.117 25.027 13.1151 25.026 13.1135C25.0181 13.0996 25.0091 13.0852 24.9999 13.0723C24.9952 13.0653 24.9892 13.0598 24.9818 13.0557C24.9609 13.0401 24.9383 13.0355 24.914 13.042C24.8822 13.043 24.8526 13.0521 24.8251 13.07C24.787 13.0898 24.7528 13.1145 24.7218 13.1434C24.6831 13.1737 24.6484 13.2086 24.618 13.2473C24.5978 13.2743 24.5776 13.3017 24.5578 13.3285C24.5252 13.3769 24.5002 13.4283 24.4817 13.4834C24.4775 13.5054 24.4729 13.5275 24.4686 13.5495C24.463 13.5846 24.4727 13.6148 24.4964 13.6402C24.5049 13.6451 24.5114 13.6512 24.5166 13.6594L24.4929 13.6218C24.4982 13.631 24.5013 13.6411 24.5023 13.6515C24.5008 13.6337 24.4992 13.6159 24.4977 13.5978C24.4981 13.6037 24.498 13.6096 24.4967 13.615C24.5013 13.593 24.5058 13.571 24.5101 13.5489C24.5094 13.5523 24.5083 13.556 24.507 13.5594C24.5169 13.5342 24.5271 13.5094 24.5371 13.4843C24.5362 13.4862 24.5354 13.4882 24.5346 13.4901C24.5497 13.4633 24.5649 13.4365 24.5803 13.41C24.5791 13.4119 24.5781 13.4135 24.577 13.4151C24.5968 13.3883 24.617 13.361 24.6371 13.3342C24.6358 13.3355 24.6344 13.3371 24.6331 13.3387C24.6561 13.314 24.6789 13.2894 24.702 13.2647C24.7003 13.2663 24.699 13.2676 24.6974 13.2688C24.7207 13.2489 24.7441 13.229 24.7675 13.2091C24.7658 13.2106 24.7642 13.2119 24.7626 13.2129C24.7852 13.1984 24.8079 13.184 24.8306 13.1696C24.8277 13.1716 24.8243 13.1732 24.8212 13.1743C24.8419 13.166 24.8626 13.1575 24.8836 13.1491C24.8781 13.1513 24.8726 13.1527 24.867 13.1534C24.8848 13.1516 24.9026 13.1497 24.9205 13.1479C24.9101 13.1489 24.8997 13.1476 24.8896 13.144L24.9306 13.1603C24.922 13.1569 24.9144 13.1515 24.9083 13.1443C24.8871 13.1287 24.8648 13.1241 24.8408 13.1307C24.8088 13.1313 24.7791 13.1408 24.7516 13.1587C24.7136 13.1785 24.6794 13.2029 24.6484 13.2321C24.6096 13.2623 24.575 13.297 24.5445 13.3359C24.5244 13.363 24.5042 13.39 24.4843 13.4171C24.4518 13.4655 24.4264 13.5169 24.4083 13.572C24.4037 13.594 24.3994 13.6161 24.3949 13.6381C24.3895 13.6732 24.3989 13.7034 24.423 13.7288Z" fill="#347CFF"/>
<path d="M25.3241 14.4587C25.4198 14.3428 25.4804 14.1387 25.3245 14.0451C25.1694 13.9519 24.947 14.089 24.8502 14.2063C24.7549 14.322 24.6939 14.5263 24.8502 14.6198C25.0051 14.7128 25.2276 14.5755 25.3241 14.4587Z" fill="#347CFF"/>
<path d="M24.0056 13.8467C24.1061 13.725 24.0951 13.5333 23.9322 13.4786C23.7518 13.4183 23.5537 13.5501 23.4451 13.6813C23.3446 13.803 23.3556 13.995 23.5186 14.0492C23.699 14.1094 23.8973 13.978 24.0056 13.8467Z" fill="#347CFF"/>
<path d="M24.4954 11.921C24.6137 11.7778 24.5674 11.5712 24.4063 11.4837C24.236 11.3912 24.0024 11.4428 23.8801 11.5905C23.7614 11.7342 23.8078 11.9404 23.9687 12.0282C24.1393 12.1209 24.3728 12.0693 24.4954 11.921Z" fill="#347CFF"/>
<path d="M25.7793 12.5635C25.8525 12.4751 25.9761 12.2417 25.8549 12.1448C25.7299 12.0447 25.5374 12.2545 25.4729 12.3323C25.3997 12.4211 25.2761 12.6541 25.3974 12.7514C25.5227 12.8515 25.7152 12.6412 25.7793 12.5635Z" fill="#347CFF"/>
<path d="M26.8436 13.9832C26.9688 13.8319 26.2642 13.6654 26.1213 13.8382C25.9961 13.9897 26.7004 14.1562 26.8436 13.9832Z" fill="#347CFF"/>
<path d="M23.2519 15.5112C23.3214 15.4276 23.0214 15.404 22.988 15.4018C22.8879 15.3944 22.5985 15.3619 22.52 15.4571C22.4507 15.5407 22.7505 15.5634 22.7841 15.5665C22.8842 15.5739 23.1737 15.6061 23.2519 15.5112Z" fill="#347CFF"/>
<path d="M25.0152 16.3974C25.1339 16.2537 25.0088 16.0754 24.8644 16.0188C24.6898 15.9499 24.4701 15.9927 24.349 16.1393C24.2303 16.2828 24.3554 16.4611 24.4998 16.5177C24.6744 16.5866 24.8942 16.5437 25.0152 16.3974Z" fill="#347CFF"/>
<path d="M22.8708 13.2966C22.9863 13.1568 22.8059 13.0284 22.6819 13.0063C22.5009 12.9734 22.3015 13.0352 22.1844 13.1776C22.0685 13.3176 22.2492 13.4458 22.3732 13.4682C22.5542 13.501 22.7537 13.4387 22.8708 13.2966Z" fill="#347CFF"/>
<path d="M24.3494 17.1477C24.4427 17.0352 24.4801 16.849 24.5191 16.7114C24.5361 16.6513 24.5828 16.549 24.5693 16.4892C24.5675 16.4808 24.5795 16.4072 24.55 16.4431C24.457 16.5556 24.4196 16.7418 24.3807 16.8792C24.3625 16.9432 24.3208 17.0364 24.3301 17.1015C24.3313 17.1105 24.3203 17.183 24.3494 17.1477Z" fill="#347CFF"/>
<path d="M24.5851 16.8537C24.5896 16.8595 24.5955 16.8638 24.6018 16.8672L24.6068 16.8696C24.6213 16.8759 24.6363 16.8822 24.6512 16.8873C24.6546 16.8883 24.6583 16.8891 24.6617 16.8898C24.6655 16.8903 24.669 16.8904 24.6728 16.8903C24.6743 16.8902 24.6761 16.8902 24.6775 16.8901C24.6965 16.8887 24.7166 16.8871 24.7355 16.8842C24.7391 16.8835 24.7428 16.8825 24.7461 16.8815C24.7468 16.881 24.7474 16.8808 24.7483 16.8806C24.7646 16.8747 24.7955 16.8622 24.8114 16.8549C24.8132 16.8542 24.8154 16.8533 24.817 16.8526C24.8299 16.8455 24.847 16.8336 24.8549 16.8284C24.8655 16.8219 24.8813 16.8127 24.893 16.8039C24.905 16.7946 24.9271 16.7751 24.9292 16.773C24.9344 16.7687 24.9538 16.7527 24.9653 16.7424C24.966 16.7417 24.967 16.7409 24.9677 16.7401L24.9687 16.7391C24.9918 16.7144 25.0146 16.6897 25.0377 16.6651C25.0387 16.6635 25.0401 16.6622 25.0411 16.6609C25.0506 16.6489 25.093 16.5918 25.1017 16.5791C25.1024 16.578 25.1031 16.5772 25.1035 16.5764C25.1039 16.5756 25.1043 16.575 25.1047 16.5742C25.1135 16.5598 25.1426 16.5092 25.1507 16.4935C25.1518 16.4919 25.1526 16.4902 25.1534 16.4883L25.1685 16.4506C25.174 16.4378 25.1791 16.4247 25.1843 16.4118C25.1847 16.411 25.1848 16.4104 25.1851 16.4099C25.1856 16.4082 25.1859 16.4062 25.1864 16.4045C25.189 16.3934 25.192 16.377 25.1934 16.3699C25.1949 16.3627 25.1987 16.3468 25.2005 16.3356L25.2013 16.3292C25.2026 16.3094 25.1978 16.2777 25.1967 16.2661C25.1965 16.2629 25.1958 16.259 25.1951 16.2554C25.1938 16.2517 25.1926 16.2477 25.191 16.2437C25.1901 16.2418 25.1891 16.2399 25.1882 16.2384C25.1803 16.2244 25.1712 16.2104 25.162 16.1972C25.1573 16.1901 25.151 16.1849 25.1439 16.1808C25.123 16.1649 25.1004 16.1606 25.0761 16.1669C25.0443 16.1678 25.0147 16.1773 24.9869 16.1951C24.9492 16.2147 24.9146 16.2393 24.884 16.2683C24.8452 16.2989 24.8106 16.3335 24.7801 16.3721C24.7599 16.3995 24.7397 16.4265 24.7199 16.4537C24.6874 16.5017 24.662 16.5531 24.6438 16.6085C24.6393 16.6306 24.635 16.6523 24.6305 16.6743C24.6251 16.7094 24.6345 16.74 24.6585 16.765C24.6667 16.7699 24.6735 16.7763 24.6784 16.7843C24.6706 16.7718 24.6627 16.7597 24.655 16.747C24.6603 16.7561 24.6634 16.7659 24.6644 16.7763C24.6629 16.7588 24.6613 16.7407 24.6598 16.7229C24.6603 16.7286 24.6598 16.7344 24.6588 16.7398C24.6633 16.7181 24.6676 16.6961 24.6722 16.6741C24.6714 16.6775 24.6704 16.6809 24.6691 16.6842C24.679 16.6594 24.6893 16.6343 24.6992 16.6094C24.6983 16.6114 24.6975 16.613 24.6964 16.6149C24.7119 16.5882 24.727 16.5616 24.7421 16.5351C24.7413 16.5368 24.7402 16.5384 24.7391 16.54C24.7589 16.5132 24.7791 16.4858 24.7993 16.4591C24.7979 16.4604 24.7965 16.4622 24.7951 16.4638C24.818 16.4388 24.841 16.4145 24.8641 16.3896C24.8625 16.3911 24.8611 16.3927 24.8595 16.3937C24.8829 16.3738 24.9062 16.3541 24.9296 16.3342C24.9279 16.3355 24.9263 16.3368 24.9247 16.338C24.9474 16.3233 24.97 16.3092 24.9927 16.2945C24.9895 16.2964 24.9864 16.298 24.983 16.2994C25.004 16.2909 25.0247 16.2824 25.0454 16.2742C25.0402 16.2761 25.0348 16.2775 25.0291 16.2783C25.0469 16.2764 25.0648 16.2746 25.0823 16.273C25.0719 16.2737 25.0618 16.2724 25.0517 16.2691L25.0927 16.2855C25.0841 16.2817 25.0763 16.2763 25.0701 16.2694C25.0492 16.2535 25.027 16.2489 25.0026 16.2555C24.9708 16.2565 24.9409 16.2659 24.9134 16.2838C24.8757 16.3033 24.8415 16.328 24.8102 16.3569C24.7717 16.3875 24.7371 16.4221 24.7064 16.4607C24.6865 16.4878 24.6663 16.5152 24.6462 16.542C24.6139 16.5904 24.5886 16.6417 24.5704 16.6972C24.5658 16.7189 24.5616 16.7409 24.557 16.763C24.5517 16.7981 24.561 16.8286 24.5851 16.8537Z" fill="#347CFF"/>
<path d="M25.4863 17.5877C25.5819 17.4714 25.6427 17.2674 25.4864 17.1739C25.3313 17.0807 25.1092 17.218 25.0124 17.3352C24.9168 17.4505 24.8563 17.655 25.0124 17.7487C25.1673 17.8418 25.3896 17.7043 25.4863 17.5877Z" fill="#347CFF"/>
<path d="M24.1696 16.9717C24.2702 16.85 24.2591 16.6583 24.0962 16.6038C23.9159 16.5433 23.7171 16.6752 23.6089 16.8062C23.5084 16.9279 23.5194 17.1196 23.6821 17.174C23.8625 17.2342 24.0614 17.103 24.1696 16.9717Z" fill="#347CFF"/>
<path d="M24.6593 15.0502C24.7778 14.9071 24.7315 14.7001 24.5707 14.6127C24.4003 14.5202 24.1665 14.5716 24.0444 14.7197C23.9257 14.8631 23.9723 15.0695 24.133 15.1572C24.3033 15.2497 24.5369 15.1981 24.6593 15.0502Z" fill="#347CFF"/>
<path d="M25.9413 15.6926C26.0145 15.6038 26.138 15.3704 26.0168 15.2735C25.8914 15.1735 25.6989 15.3837 25.6348 15.4615C25.5616 15.5499 25.438 15.7829 25.5593 15.8802C25.6843 15.9803 25.8768 15.7704 25.9413 15.6926Z" fill="#347CFF"/>
<path d="M27.0057 17.1159C27.1306 16.9646 26.4263 16.7981 26.2834 16.9712C26.1582 17.1228 26.8625 17.289 27.0057 17.1159Z" fill="#347CFF"/>
<path d="M23.4122 18.6404C23.4811 18.5565 23.1817 18.5335 23.148 18.531C23.0479 18.5236 22.7587 18.4911 22.6799 18.5863C22.611 18.6699 22.9105 18.6929 22.9441 18.6954C23.0445 18.7028 23.3337 18.735 23.4122 18.6404Z" fill="#347CFF"/>
<path d="M25.1776 19.5222C25.2961 19.3784 25.1713 19.2005 25.0268 19.1432C24.8521 19.0745 24.6323 19.1175 24.5112 19.2638C24.3927 19.4076 24.5176 19.5852 24.6621 19.6425C24.8367 19.7112 25.0565 19.6685 25.1776 19.5222Z" fill="#347CFF"/>
<path d="M19.0642 17.3941C19.1575 17.2813 19.1947 17.0953 19.2339 16.9574C19.2509 16.8977 19.2977 16.7954 19.2842 16.7353C19.2823 16.7271 19.2943 16.6533 19.2648 16.6891C19.1718 16.802 19.1341 16.9879 19.0952 17.1255C19.0774 17.1892 19.0356 17.2828 19.0449 17.3479C19.0461 17.3568 19.0351 17.4294 19.0642 17.3941Z" fill="#347CFF"/>
<path d="M19.2999 17.1038C19.3045 17.1094 19.3101 17.1139 19.3167 17.1174C19.3183 17.1182 19.32 17.119 19.3217 17.1195C19.3361 17.1257 19.3512 17.132 19.3661 17.1371C19.3694 17.1385 19.3731 17.1392 19.3766 17.1397C19.3804 17.1401 19.3838 17.1406 19.3876 17.1405C19.3891 17.1404 19.3906 17.1403 19.3924 17.1402C19.4114 17.1385 19.4315 17.1373 19.4504 17.1341C19.4539 17.1337 19.4576 17.1327 19.461 17.1313C19.4616 17.1311 19.4622 17.1309 19.4631 17.1307C19.4794 17.1246 19.5104 17.1121 19.5262 17.105C19.5281 17.1041 19.5299 17.1034 19.5318 17.1025C19.5447 17.0956 19.5615 17.0834 19.5698 17.0786C19.5803 17.072 19.5958 17.0628 19.6075 17.054C19.6199 17.0445 19.6417 17.025 19.644 17.0232C19.6492 17.0189 19.6686 17.0029 19.6802 16.9923C19.6809 16.9915 19.6815 16.991 19.6825 16.9902C19.6829 16.9897 19.6832 16.9895 19.6836 16.9889C19.7066 16.9646 19.7294 16.9399 19.7522 16.9149C19.7536 16.9136 19.7549 16.9123 19.756 16.911C19.7654 16.899 19.8079 16.8419 19.8166 16.8289C19.8173 16.8282 19.8179 16.8274 19.8184 16.8262C19.8187 16.8257 19.8191 16.8249 19.8195 16.8243C19.8284 16.8099 19.8574 16.759 19.8656 16.7437C19.8666 16.742 19.8675 16.7401 19.8683 16.7381C19.8734 16.7259 19.8782 16.7133 19.8833 16.7007C19.8888 16.6879 19.894 16.6748 19.8992 16.6617C19.8992 16.6611 19.8996 16.6606 19.9 16.6597C19.9005 16.658 19.9007 16.6563 19.9012 16.6546C19.9039 16.6432 19.9068 16.6269 19.9083 16.62C19.9098 16.6129 19.9136 16.5969 19.9153 16.5854L19.9161 16.5791C19.9174 16.5596 19.9127 16.5279 19.9115 16.5163C19.9111 16.5127 19.9106 16.5091 19.9099 16.5055C19.9087 16.5015 19.9074 16.4976 19.9058 16.4938C19.9049 16.4917 19.9037 16.4901 19.903 16.4885C19.8951 16.4746 19.8858 16.4602 19.8769 16.4473C19.8722 16.4403 19.8658 16.4348 19.8587 16.4307C19.8375 16.415 19.8152 16.4105 19.7909 16.417C19.7592 16.4177 19.7292 16.4271 19.7017 16.445C19.664 16.4648 19.6295 16.4895 19.5988 16.5184C19.56 16.5487 19.5254 16.5836 19.4946 16.6222C19.4748 16.6493 19.4546 16.6767 19.4347 16.7035C19.4022 16.7519 19.3769 16.8032 19.3587 16.8584C19.3541 16.8804 19.3499 16.9025 19.3453 16.9245C19.34 16.9596 19.3493 16.9898 19.3734 17.0152C19.3816 17.02 19.3881 17.0261 19.3932 17.0344L19.3696 16.9968C19.3751 17.006 19.3782 17.0161 19.3793 17.0265C19.3777 17.0087 19.3762 16.9909 19.3747 16.9728C19.3751 16.9787 19.3746 16.9845 19.3736 16.99C19.3782 16.968 19.3825 16.9459 19.387 16.9239C19.3863 16.9273 19.3853 16.931 19.3839 16.9344C19.3939 16.9092 19.4041 16.8844 19.414 16.8593C19.4132 16.8612 19.4124 16.8632 19.4112 16.8651C19.4267 16.8383 19.4418 16.8115 19.4569 16.7849C19.4561 16.7869 19.455 16.7885 19.4536 16.7901C19.4738 16.7633 19.4937 16.7359 19.5138 16.7092C19.5128 16.7105 19.5114 16.7121 19.51 16.7137C19.5328 16.689 19.5559 16.6644 19.5787 16.6397C19.5773 16.6413 19.5757 16.6425 19.574 16.6438C19.5977 16.6239 19.6211 16.604 19.6444 16.5841C19.6428 16.5856 19.6411 16.5869 19.6395 16.5879C19.6619 16.5734 19.6849 16.559 19.7072 16.5446C19.7043 16.5465 19.7012 16.5482 19.6978 16.5492C19.7188 16.541 19.7396 16.5325 19.7603 16.524C19.755 16.5263 19.7496 16.5277 19.7439 16.5284C19.7617 16.5266 19.7793 16.5247 19.7971 16.5228C19.7867 16.5239 19.7766 16.5226 19.7665 16.519L19.8076 16.5353C19.7986 16.5318 19.7911 16.5265 19.785 16.5192C19.7641 16.5037 19.7415 16.499 19.7175 16.5057C19.6857 16.5063 19.6558 16.5157 19.6283 16.5336C19.5905 16.5535 19.556 16.5778 19.525 16.607C19.4866 16.6373 19.4519 16.672 19.4212 16.7106C19.4013 16.738 19.3811 16.765 19.361 16.7921C19.3287 16.8402 19.3034 16.8919 19.2852 16.947C19.2807 16.969 19.2764 16.9911 19.2718 17.0131C19.2665 17.0482 19.2758 17.0784 19.2999 17.1038Z" fill="#347CFF"/>
<path d="M20.1991 17.8376C20.2948 17.7217 20.3554 17.5176 20.1995 17.424C20.0444 17.3308 19.822 17.4679 19.7252 17.5852C19.6299 17.7009 19.5689 17.9052 19.7252 17.9987C19.8801 18.0917 20.1026 17.9544 20.1991 17.8376Z" fill="#347CFF"/>
<path d="M18.8825 17.2217C18.9831 17.1 18.972 16.9083 18.8092 16.8536C18.6288 16.7933 18.4306 16.9251 18.3221 17.0563C18.2215 17.178 18.2325 17.37 18.3955 17.4242C18.5759 17.4844 18.7743 17.353 18.8825 17.2217Z" fill="#347CFF"/>
<path d="M19.3722 15.3002C19.4905 15.1569 19.4444 14.9505 19.2836 14.8631C19.113 14.7705 18.8792 14.822 18.7569 14.9697C18.6388 15.1133 18.685 15.3195 18.8457 15.4071C19.0162 15.4998 19.25 15.4483 19.3722 15.3002Z" fill="#347CFF"/>
<path d="M20.6543 15.9424C20.7277 15.8537 20.8511 15.6206 20.7299 15.5237C20.6049 15.4236 20.4124 15.6334 20.3479 15.7112C20.2747 15.8 20.1511 16.033 20.2724 16.1303C20.3977 16.2304 20.5902 16.0201 20.6543 15.9424Z" fill="#347CFF"/>
<path d="M21.7206 17.3621C21.8457 17.2108 21.1411 17.0443 20.9983 17.2171C20.8731 17.3686 21.5777 17.5351 21.7206 17.3621Z" fill="#347CFF"/>
<path d="M18.1288 18.8862C18.1983 18.8026 17.8984 18.779 17.865 18.7765C17.7648 18.7694 17.4754 18.7369 17.3969 18.8321C17.3277 18.9157 17.6274 18.9384 17.6611 18.9415C17.7612 18.9489 18.0506 18.9811 18.1288 18.8862Z" fill="#347CFF"/>
<path d="M19.8921 19.7763C20.0108 19.6326 19.8858 19.4543 19.7414 19.3977C19.5668 19.3288 19.347 19.3716 19.2259 19.5182C19.1073 19.6617 19.2323 19.84 19.3768 19.8966C19.5514 19.9655 19.7711 19.9227 19.8921 19.7763Z" fill="#347CFF"/>
<path d="M17.7478 16.6755C17.8633 16.5355 17.6826 16.4073 17.5589 16.3849C17.3779 16.3524 17.1788 16.4141 17.061 16.5564C16.9455 16.6962 17.1262 16.8244 17.2499 16.847C17.4309 16.8796 17.6304 16.8173 17.7478 16.6755Z" fill="#347CFF"/>
</g>
<path d="M14.1645 16.32C14.1645 16.32 13.8091 20.8692 9.3578 25.1228C11.3858 26.9934 14.0776 28.1528 17.0395 28.1783C19.8504 28.2192 22.4481 27.2327 24.4705 25.5823C23.3808 24.5867 19.4001 20.6488 19.1056 15.9948L14.1645 16.32Z" fill="url(#paint0_linear_2334_12924)"/>
<path d="M16.6731 21.7426C13.5892 21.3571 11.8324 26.8257 11.8324 26.8257C11.8324 26.8257 15.7636 29.4413 21.6198 27.2913C21.6198 27.2913 19.7623 22.134 16.6843 21.7432L16.6731 21.7426Z" fill="url(#paint1_linear_2334_12924)"/>
<path d="M16.9162 17.8199C13.4013 17.9043 12.1643 16.1977 11.6208 14.4467C11.0777 12.6955 10.7562 9.58729 10.8049 7.66408C10.854 5.74063 11.1072 6.00021 12.2405 5.62896C13.374 5.25804 14.9561 4.81248 14.8026 4.37052C14.649 3.92884 14.3429 3.9738 14.1094 4.05674C14.1094 4.05674 14.262 3.56953 14.8002 3.56378C15.3381 3.55799 15.6419 3.70842 15.7817 4.26041C15.7817 4.26041 16.3412 3.49699 15.5376 3.23047C15.5376 3.23047 16.177 2.92019 16.6117 3.36566C17.0464 3.81084 17.0056 4.14037 17.0056 4.14037C17.0056 4.14037 17.1519 3.15189 17.8494 3.11155C18.5465 3.07146 18.8094 3.58777 18.8094 3.58777C18.8094 3.58777 17.9051 3.55251 17.9577 4.24977C18.0104 4.94732 19.6835 5.08949 20.4511 5.30685C21.2185 5.52388 22.3408 5.72064 22.4771 6.55381C22.6138 7.38643 22.68 11.7861 21.7893 14.176C20.8985 16.5659 19.4956 17.7582 16.9162 17.8199Z" fill="#3ADF68"/>
<path d="M12.5534 15.4594C12.2361 14.9813 11.9002 14.1723 11.6618 13.4107C11.2235 12.0107 10.9711 10.4626 10.8301 9.19141C10.9199 10.9803 11.2048 13.1099 11.6201 14.4482C12.1377 16.1167 13.2899 17.7406 16.4372 17.8178L16.4392 17.816C15.0334 17.5444 13.5199 16.9156 12.5534 15.4594Z" fill="#5CE783"/>
<g opacity="0.5">
<path d="M17.807 9.76479C17.807 9.76479 17.146 8.26088 17.3393 6.64798C17.5326 5.03507 18.279 6.8376 19.0318 7.46562C20.0407 8.31266 20.8573 8.58477 20.8573 8.58477C20.8573 8.58477 21.0752 9.38611 20.8973 9.9195C20.7158 10.4566 17.807 9.76479 17.807 9.76479Z" fill="url(#paint2_linear_2334_12924)"/>
</g>
<g opacity="0.5">
<path d="M15.3327 10.0286C15.3327 10.0286 16.0821 8.39208 15.9299 6.7717C15.7738 5.15491 15.0814 6.68108 13.9768 7.44729C12.8916 8.19552 12.1203 8.51722 12.1203 8.51722C12.1203 8.51722 11.8855 9.31108 12.055 9.85476C12.2208 10.3945 15.3327 10.0286 15.3327 10.0286Z" fill="url(#paint3_linear_2334_12924)"/>
</g>
<path d="M19.8167 12.6762C19.2804 13.047 19.0652 13.666 19.3385 14.0609C19.6088 14.4553 20.2651 14.4774 20.7996 14.1079C21.3371 13.7388 21.5524 13.1198 21.2791 12.7249C21.1613 12.5527 20.9682 12.4503 20.7458 12.4212C20.4579 12.3842 20.1181 12.47 19.8167 12.6762Z" fill="#5CE783"/>
<path d="M12.4567 12.9419C12.284 13.3905 12.6367 13.9426 13.2452 14.1743C13.8538 14.4092 14.4849 14.2352 14.656 13.7882C14.8287 13.3395 14.476 12.7875 13.869 12.5541C13.7451 12.5075 13.6246 12.477 13.5044 12.4628C13.0251 12.4008 12.5935 12.5829 12.4567 12.9419Z" fill="#5CE783"/>
<path d="M14.7538 14.2155C14.7538 14.2155 15.4966 14.9187 16.9314 14.8563C18.3659 14.7939 18.9435 14.0953 18.9435 14.0953C18.9435 14.0953 16.727 12.9305 14.7538 14.2155Z" fill="#FCB315"/>
<path d="M17.2297 13.8362C15.4826 13.7897 14.7376 14.6949 13.9104 14.673C13.4266 14.6602 13.171 14.3079 13.1578 14.0753C13.1445 13.8431 13.3881 14.2223 14.1749 14.0399C14.9618 13.8572 15.7399 12.8297 15.9659 12.0315C16.1918 11.2335 16.3836 10.1828 16.4985 9.2795C16.6137 8.37596 16.7032 8.3275 16.8033 8.31588C17.0454 8.28714 17.1003 8.72947 17.1651 9.27191C17.3326 10.6808 17.5603 11.6696 17.7611 12.0944C18.0735 12.7546 18.8753 14.0403 19.7464 14.1711C19.7464 14.1711 20.1132 14.2738 20.5087 14.2091C20.7819 14.1641 20.4789 14.6298 20.1471 14.6994C19.8421 14.7632 19.57 14.7016 19.4283 14.654C18.5261 14.3506 18.1474 13.8609 17.2297 13.8362Z" fill="#FFC606"/>
<g opacity="0.5">
<path d="M15.5523 13.5877C15.9961 13.4345 17.0017 13.1881 18.1442 13.5651C18.194 13.5815 18.2332 13.5195 18.1963 13.4816C17.8027 13.0872 16.9677 11.9859 16.9609 9.74514C16.9597 9.6569 16.8279 9.64623 16.8131 9.73723C16.7323 10.2679 16.6819 11.316 16.3948 12.1114C16.1653 12.7421 15.782 13.2167 15.5018 13.5023C15.4617 13.5424 15.5 13.6049 15.5523 13.5877Z" fill="url(#paint4_linear_2334_12924)"/>
</g>
<path d="M18.2793 7.42032C18.2793 7.42032 19.0368 8.08748 20.4086 8.56378C20.4086 8.56378 21.1222 9.22255 20.9296 11.0652C20.7806 12.4922 19.0801 12.5015 18.3556 11.1864C17.6037 9.82143 17.9047 8.01298 18.2793 7.42032Z" fill="white"/>
<path d="M18.2792 7.41961C18.0926 7.71475 17.9242 8.31202 17.8952 9.00563C17.9068 9.14264 17.9225 9.28663 17.9484 9.44511C18.2287 11.1573 19.286 11.8328 19.944 11.5002C20.6576 11.1398 20.5426 9.39146 20.3355 8.53608C19.0106 8.06242 18.2792 7.41961 18.2792 7.41961Z" fill="#02283E"/>
<path d="M13.0975 8.22299C13.0975 8.22299 11.7186 10.3466 12.5229 11.5436C13.2107 12.568 14.615 11.8159 15.1071 10.7809C15.5988 9.74582 15.5892 8.28043 15.4475 7.53908C15.4475 7.53908 14.7971 8.12006 13.0975 8.22299Z" fill="white"/>
<path d="M15.5285 8.55128C15.5285 8.45242 15.5264 8.35564 15.5224 8.26272C15.5051 8.00236 15.5035 7.7355 15.4458 7.53923C15.2894 7.65487 14.658 8.06093 13.4562 8.19199C13.2106 8.64419 12.5511 10.0121 13.0054 10.9145C13.5564 12.009 14.7361 11.1822 15.3193 9.61918C15.4619 9.2363 15.5203 8.87674 15.5285 8.55128Z" fill="#02283E"/>
<path d="M20.5715 9.74625C20.5715 9.74625 20.1346 8.85226 19.584 9.14743C19.1662 9.37149 19.4246 10.0679 19.7128 10.3299C20.2153 10.7869 20.8537 10.6801 20.5715 9.74625Z" fill="white"/>
<g opacity="0.3">
<path d="M20.1041 10.2112C20.1041 10.2112 19.7368 9.45949 19.2737 9.70771C18.9224 9.89594 19.1397 10.4818 19.3819 10.7019C19.8047 11.0863 20.3412 10.9964 20.1041 10.2112Z" fill="white"/>
</g>
<g opacity="0.3">
<path d="M14.9362 9.90562C14.9362 9.90562 14.7282 9.14311 14.2546 9.29172C13.8952 9.40442 13.9937 9.98635 14.1796 10.2333C14.5038 10.6644 15.0177 10.6761 14.9362 9.90562Z" fill="white"/>
</g>
<path d="M15.4443 9.26215C15.4443 9.26215 15.2426 8.63891 14.8063 8.8861C14.3701 9.13366 14.5169 10.1171 14.9613 10.39L15.2209 10.0057L15.4443 9.26215Z" fill="white"/>
<path d="M21.5214 18.8937C21.6663 19.7589 22.1592 20.4683 22.1592 20.4683C22.1592 20.4683 19.5455 20.3976 16.8939 18.7835C16.8939 18.7835 16.3561 19.4153 17.3475 20.3862C18.3378 21.3711 20.8893 22.0813 20.8893 22.0813C20.8893 22.0813 20.1042 22.0923 19.3069 21.8922C19.3069 21.8922 18.9456 22.9715 20.1878 23.4011C20.1878 23.4011 19.6643 24.216 21.2225 24.7254C21.2225 24.7254 20.7056 25.6389 22.1023 26.2482C23.499 26.8575 28.9766 27.3958 30.3282 24.6965C31.0563 23.2107 29.4013 22.4979 27.1306 21.9629C25.878 21.6725 23.7109 20.8792 21.8134 17.9913C21.8134 17.9913 21.3904 18.0295 21.5214 18.8937Z" fill="url(#paint5_linear_2334_12924)"/>
<path d="M11.926 18.4422C11.7047 19.2912 11.1507 19.9539 11.1507 19.9539C11.1507 19.9539 13.7603 20.1159 16.5449 18.7439C16.5449 18.7439 17.0244 19.421 15.9506 20.3C14.8767 21.1929 12.2721 21.6735 12.2721 21.6735C12.2721 21.6735 13.0532 21.7542 13.865 21.6258C13.865 21.6258 14.129 22.7329 12.8536 23.0504C12.8536 23.0504 13.3025 23.9086 11.7051 24.2775C11.7051 24.2775 12.1388 25.2333 10.6935 25.716C9.24812 26.1987 3.74433 26.2479 2.63808 23.439C2.045 21.8944 3.75684 21.3316 6.06604 21.0005C7.33954 20.8227 9.56864 20.2252 11.7154 17.5175C11.7154 17.5175 12.1333 17.5931 11.926 18.4422Z" fill="url(#paint6_linear_2334_12924)"/>
<defs>
<linearGradient id="paint0_linear_2334_12924" x1="16.9184" y1="28.0123" x2="17.0317" y2="17.6629" gradientUnits="userSpaceOnUse">
<stop stop-color="#3ADF68"/>
<stop offset="1" stop-color="#3CD066"/>
</linearGradient>
<linearGradient id="paint1_linear_2334_12924" x1="17.5606" y1="22.9071" x2="17.9916" y2="27.8199" gradientUnits="userSpaceOnUse">
<stop stop-color="#5CE783"/>
<stop offset="1" stop-color="#3CD267"/>
</linearGradient>
<linearGradient id="paint2_linear_2334_12924" x1="20.5236" y1="10.328" x2="18.2712" y2="7.65636" gradientUnits="userSpaceOnUse">
<stop stop-color="#3ADF68"/>
<stop offset="1" stop-color="#34C05B"/>
</linearGradient>
<linearGradient id="paint3_linear_2334_12924" x1="12.5215" y1="10.3841" x2="14.9188" y2="7.71647" gradientUnits="userSpaceOnUse">
<stop stop-color="#3ADF68"/>
<stop offset="1" stop-color="#34C05B"/>
</linearGradient>
<linearGradient id="paint4_linear_2334_12924" x1="16.7926" y1="13.2045" x2="16.3338" y2="10.5185" gradientUnits="userSpaceOnUse">
<stop stop-color="white"/>
<stop offset="1" stop-color="#FFCB03"/>
</linearGradient>
<linearGradient id="paint5_linear_2334_12924" x1="29.2237" y1="22.8101" x2="15.2972" y2="21.762" gradientUnits="userSpaceOnUse">
<stop stop-color="#3CD066"/>
<stop offset="1" stop-color="#64FF8F"/>
</linearGradient>
<linearGradient id="paint6_linear_2334_12924" x1="3.90593" y1="21.6584" x2="17.8705" y2="21.8526" gradientUnits="userSpaceOnUse">
<stop stop-color="#3CD066"/>
<stop offset="1" stop-color="#64FF8F"/>
</linearGradient>
</defs>
</svg>
