<svg width="68" height="68" viewBox="0 0 68 68" fill="none" xmlns="http://www.w3.org/2000/svg">
<path d="M64.755 33.8993C66.479 33.8993 67.8917 35.3 67.7323 37.0167C67.1418 43.3743 64.7545 49.4572 60.8187 54.5391C56.2435 60.4466 49.835 64.6665 42.6005 66.5356C35.366 68.4046 27.7155 67.8169 20.8513 64.8648C13.9872 61.9127 8.29844 56.7636 4.67915 50.2266C1.05986 43.6896 -0.284819 36.1353 0.856427 28.7509C1.99767 21.3665 5.56015 14.5706 10.984 9.43122C16.4079 4.29182 23.3856 1.10026 30.8207 0.358092C37.2167 -0.280349 43.6392 0.924925 49.3409 3.79891C50.8804 4.57493 51.3178 6.51561 50.4027 7.97678C49.4876 9.43796 47.5672 9.86272 46.0117 9.11929C41.4972 6.96168 36.459 6.06967 31.4409 6.57057C25.3829 7.17528 19.6975 9.7757 15.2783 13.9632C10.859 18.1507 7.9564 23.6878 7.02653 29.7045C6.09666 35.7211 7.19228 41.8762 10.1412 47.2024C13.0901 52.5287 17.7252 56.7241 23.318 59.1294C28.9108 61.5347 35.1442 62.0136 41.0388 60.4907C46.9333 58.9678 52.1548 55.5295 55.8826 50.7162C58.9706 46.7291 60.8886 41.9857 61.4561 37.0144C61.6517 35.3014 63.0309 33.8993 64.755 33.8993Z" fill="#3ADF68"/>
</svg>
