<svg width="156" height="74" viewBox="0 0 156 74" fill="none" xmlns="http://www.w3.org/2000/svg">
<path fill-rule="evenodd" clip-rule="evenodd" d="M86.5586 31.8181V34.2714C86.5877 34.4614 86.7343 34.6154 86.9391 34.6501C87.2611 34.7039 87.7001 34.7794 87.8171 34.8133C87.8428 34.821 87.8713 34.8293 87.9023 34.8383C88.506 35.0126 90.0445 35.4571 90.1001 37.7069V44.5715C90.1001 45.9387 90.6267 47.2487 91.5925 48.2097C92.5289 49.1577 93.8165 49.688 95.1334 49.6864L95.1919 49.6861C95.1919 49.6861 95.1922 49.7078 96.3867 49.6861C96.6893 49.6806 96.8653 49.4783 96.8611 49.1396C96.8553 48.6706 96.8681 48.304 96.8603 47.9078C96.8537 47.5765 96.8603 47.272 96.8603 46.9969C96.8603 46.7415 96.6555 46.5321 96.4213 46.5226C95.9823 46.5212 95.3679 46.5212 94.7826 46.5212C93.9337 46.521 93.2021 45.8062 93.2021 44.925V41.2022C93.2312 41.1932 93.2021 37.6406 93.2021 37.5998C93.1203 34.5608 91.1084 33.2672 90.7389 33.0298C90.7116 33.0123 90.6933 33.0003 90.6854 32.9942C90.6933 32.9876 90.7116 32.9757 90.7386 32.9577C91.1149 32.7096 93.2021 31.3331 93.2021 28.1629V24.8377C93.2021 24.5843 93.0264 24.3789 92.7631 24.3789H90.5391C90.3049 24.3789 90.1001 24.5843 90.1001 24.8377V28.1629C90.1001 30.5287 88.5183 30.9928 87.9068 31.1719C87.874 31.1818 87.8441 31.1905 87.8171 31.1987C87.7001 31.2324 87.2611 31.3082 86.9391 31.3614C86.7049 31.4009 86.5586 31.5933 86.5586 31.8181ZM125.45 37.4567V43.9349C125.45 44.0499 125.405 44.1599 125.324 44.2412C125.244 44.3223 125.135 44.3679 125.021 44.3679C124.43 44.3674 123.37 44.3669 122.778 44.3663C122.542 44.3661 122.35 44.1723 122.35 43.9336C122.35 41.2998 122.35 27.4471 122.35 24.812C122.35 24.5729 122.542 24.3789 122.779 24.3789C123.37 24.3789 124.43 24.3789 125.021 24.3789C125.258 24.3789 125.45 24.5729 125.45 24.812C125.45 26.4872 125.45 32.4488 125.45 32.4488C128.757 29.3218 134.847 31.5708 134.847 37.4421V43.933C134.847 44.048 134.802 44.158 134.722 44.2394C134.641 44.3205 134.532 44.3661 134.418 44.3661C133.827 44.3661 132.765 44.3661 132.173 44.3661C132.06 44.3661 131.951 44.3205 131.87 44.2394C131.79 44.158 131.745 44.048 131.745 43.933C131.745 42.4176 131.745 37.4421 131.745 37.4421C131.745 34.3753 128.672 33.4376 126.828 34.6671C126.038 35.1945 125.45 36.1403 125.45 37.4567ZM111.405 33.0199C110.059 34.3506 109.444 36.1048 109.444 37.8632C109.444 39.6219 110.059 41.3758 111.405 42.7073C113.659 45.0003 117.141 45.3056 119.775 43.619C119.804 43.5978 119.838 43.575 119.875 43.5506C119.952 43.5002 120.038 43.4438 120.097 43.385C120.243 43.2397 120.327 42.971 120.129 42.6903C119.952 42.438 119.719 42.1232 119.471 41.7858C119.259 41.4964 119.06 41.2264 118.883 40.9794C118.74 40.779 118.458 40.7255 118.253 40.8474C118.194 40.8839 118.145 40.9136 118.088 40.951C115.132 42.8655 112.371 40.3377 112.371 37.8632C112.371 35.3887 115.188 32.8752 118.085 34.7797C118.142 34.8173 118.194 34.8425 118.253 34.8793C118.458 35.0013 118.746 34.9429 118.885 34.7468C119.061 34.4998 119.258 34.2314 119.47 33.9422C119.694 33.6382 119.903 33.3552 120.071 33.1183C120.352 32.7231 120.277 32.4419 119.874 32.1756C119.838 32.1515 119.804 32.1289 119.775 32.1083C117.141 30.4214 113.659 30.7264 111.405 33.0199ZM98.7916 38.9996H106.108C106.986 38.9996 107.689 38.2889 107.689 37.4127C107.689 35.4624 107.366 34.4224 106.255 33.0949C105.113 31.7606 103.299 31.0371 101.894 31.0371C98.382 31.0371 95.6896 34.0501 95.6896 37.864C95.6896 42.5631 99.3182 44.6907 102.216 44.6907C104.293 44.6907 105.903 44.1877 107.483 43.1862C107.659 43.0545 107.747 42.7847 107.63 42.5721L107.584 42.4961C107.265 41.965 106.824 41.2317 106.489 40.7265C106.372 40.5267 106.108 40.4679 105.903 40.5924C104.909 41.1869 103.855 41.7105 102.274 41.6989C100.811 41.6888 99.26 40.7512 98.7916 38.9996ZM104.499 36.3953C104.235 34.4246 102.889 34.0647 101.894 34.0647C100.548 34.0647 99.4066 35.071 98.9089 36.3953H104.499Z" fill="#3ADF68"/>
<path fill-rule="evenodd" clip-rule="evenodd" d="M28.4634 31.0961C27.0667 30.9485 25.6593 31.2385 24.4339 31.9257C23.2085 32.6129 22.2253 33.6639 21.6196 34.9339C21.0141 36.2044 20.8158 37.6316 21.0518 39.0192C21.2878 40.4074 21.9468 41.6875 22.9384 42.6845C23.9293 43.682 25.2046 44.3464 26.5879 44.5876C27.9712 44.8285 29.3951 44.6343 30.6636 44.0311C31.9323 43.4276 32.9836 42.4449 33.6724 41.2184C34.3619 39.9916 34.655 38.5812 34.5124 37.1803C34.3553 35.6235 33.668 34.1685 32.5661 33.0605C31.4644 31.9522 30.0153 31.2583 28.4634 31.0961ZM28.2431 41.48C27.4918 41.5809 26.7284 41.4434 26.0595 41.0867C25.3903 40.73 24.8495 40.1724 24.5131 39.4912C24.1766 38.8104 24.0612 38.041 24.1832 37.291C24.3054 36.5415 24.6586 35.8488 25.1936 35.3108C25.7285 34.7725 26.4185 34.4163 27.1656 34.2915C27.913 34.1667 28.6808 34.2798 29.361 34.6154C30.0407 34.9504 30.5988 35.4907 30.9565 36.1607C31.3144 36.8304 31.4537 37.5955 31.3556 38.3493C31.2523 39.1417 30.8914 39.8776 30.3287 40.4437C29.7659 41.0096 29.033 41.374 28.2431 41.48ZM38.1472 31.3657C37.9118 31.3662 37.6789 31.4195 37.4665 31.5215C37.2538 31.6235 37.0666 31.7719 36.9184 31.9559C36.77 32.1395 36.6643 32.3542 36.6095 32.584C36.5544 32.8137 36.5508 33.0531 36.5995 33.2842C36.7487 34.0336 37.4465 34.5451 38.2068 34.5451H42.6189L35.7528 43.6563C35.7019 43.7236 35.6709 43.8039 35.6631 43.888C35.655 43.9717 35.6707 44.0562 35.7079 44.132C35.7454 44.2076 35.8029 44.2714 35.8742 44.316C35.9458 44.3605 36.0281 44.3843 36.1123 44.3846H46.8821C47.6418 44.3846 48.3403 43.8731 48.4896 43.1236C48.5383 42.8923 48.5349 42.6532 48.4799 42.4234C48.4248 42.1934 48.3191 41.979 48.1709 41.7951C48.023 41.6114 47.8358 41.4633 47.6231 41.361C47.4107 41.2587 47.1781 41.2054 46.9424 41.2049H41.5668L48.4277 32.1008C48.4788 32.0327 48.5103 31.9519 48.5181 31.8671C48.5263 31.7823 48.5105 31.6969 48.4728 31.6209C48.435 31.5443 48.3768 31.4802 48.3047 31.4351C48.2328 31.3901 48.1494 31.3659 48.0645 31.3657H38.1472ZM81.1849 31.4025C80.8272 31.4873 80.5099 31.6919 80.2843 31.9821C80.0609 32.2723 79.9419 32.6306 79.9468 32.9982V38.292L71.3919 31.4658C71.3248 31.4123 71.2443 31.3789 71.1591 31.3696C71.0738 31.3604 70.9878 31.3749 70.9107 31.4126C70.8336 31.4499 70.7686 31.5082 70.7232 31.5811C70.6779 31.6543 70.654 31.7383 70.6543 31.8242V42.755C70.6482 43.1226 70.7678 43.4812 70.9928 43.7711C71.2175 44.0613 71.5348 44.2659 71.8912 44.3509C72.1228 44.4021 72.3627 44.4002 72.5927 44.3459C72.8235 44.2916 73.039 44.1861 73.2242 44.0369C73.4096 43.888 73.559 43.6993 73.6605 43.4843C73.762 43.2699 73.8152 43.0351 73.8152 42.7977V37.4577L82.3694 44.2842C82.4381 44.3377 82.5191 44.3708 82.603 44.3804C82.6893 44.3899 82.7753 44.3748 82.8516 44.3374C82.9277 44.3001 82.9935 44.2415 83.0394 44.1689C83.085 44.096 83.1078 44.012 83.1078 43.9259V32.9553C83.1078 32.7175 83.0546 32.4827 82.9531 32.2683C82.8516 32.0539 82.7019 31.8652 82.5168 31.7163C82.3316 31.5673 82.1161 31.4616 81.885 31.4073C81.654 31.3532 81.4159 31.3514 81.1849 31.4025ZM58.9092 34.2412C62.5278 34.2412 65.2315 36.1586 65.2315 37.8735C65.2315 39.5888 62.5278 41.5062 58.9092 41.5062C55.2912 41.5062 52.5873 39.5888 52.5873 37.8735C52.5873 36.1586 55.2912 34.2412 58.9092 34.2412ZM58.9092 31.0614C53.6716 31.0614 49.426 34.1113 49.426 37.8735C49.426 41.6355 53.6716 44.6857 58.9092 44.6857C64.1469 44.6857 68.3925 41.6355 68.3925 37.8735C68.3925 34.1113 64.1469 31.0614 58.9092 31.0614Z" fill="white"/>
</svg>
