<svg width="244" height="116" viewBox="0 0 244 116" fill="none" xmlns="http://www.w3.org/2000/svg">
<path fill-rule="evenodd" clip-rule="evenodd" d="M135.625 49.9148V53.7578C135.671 54.0554 135.9 54.2966 136.221 54.351C136.725 54.4353 137.413 54.5536 137.596 54.6067C137.637 54.6188 137.681 54.6317 137.73 54.6458C138.675 54.9189 141.085 55.6151 141.173 59.1393V69.8923C141.173 72.034 141.997 74.0861 143.51 75.5914C144.977 77.0764 146.994 77.9071 149.057 77.9046L149.149 77.9042C149.149 77.9042 149.149 77.9382 151.02 77.9042C151.494 77.8955 151.77 77.5787 151.763 77.0481C151.754 76.3133 151.774 75.7392 151.762 75.1186C151.752 74.5996 151.762 74.1226 151.762 73.6917C151.762 73.2915 151.441 72.9636 151.074 72.9486C150.387 72.9465 149.424 72.9465 148.507 72.9465C147.178 72.9461 146.032 71.8265 146.032 70.4461V64.6146C146.077 64.6005 146.032 59.0355 146.032 58.9716C145.904 54.2111 142.752 52.1848 142.173 51.8128C142.131 51.7854 142.102 51.7667 142.089 51.7572C142.102 51.7468 142.131 51.7281 142.173 51.6999C142.762 51.3113 146.032 49.1551 146.032 44.1891V38.9803C146.032 38.5835 145.756 38.2617 145.344 38.2617H141.86C141.493 38.2617 141.173 38.5835 141.173 38.9803V44.1891C141.173 47.8951 138.695 48.622 137.737 48.9027C137.685 48.918 137.639 48.9317 137.596 48.9446C137.413 48.9973 136.725 49.1161 136.221 49.1995C135.854 49.2614 135.625 49.5628 135.625 49.9148ZM196.546 58.7474V68.8951C196.546 69.0753 196.475 69.2476 196.349 69.3751C196.224 69.5021 196.053 69.5735 195.875 69.5735C194.948 69.5727 193.288 69.5718 192.361 69.571C191.991 69.5706 191.691 69.2671 191.691 68.8931C191.691 64.7674 191.691 43.0678 191.691 38.9401C191.691 38.5656 191.992 38.2617 192.362 38.2617C193.289 38.2617 194.948 38.2617 195.875 38.2617C196.245 38.2617 196.546 38.5656 196.546 38.9401C196.546 41.5642 196.546 50.9028 196.546 50.9028C201.726 46.0046 211.266 49.5275 211.266 58.7246V68.8922C211.266 69.0724 211.196 69.2447 211.07 69.3721C210.944 69.4992 210.773 69.5706 210.595 69.5706C209.668 69.5706 208.005 69.5706 207.078 69.5706C206.9 69.5706 206.73 69.4992 206.603 69.3721C206.478 69.2447 206.407 69.0724 206.407 68.8922C206.407 66.5185 206.407 58.7246 206.407 58.7246C206.407 53.9205 201.593 52.4517 198.705 54.3776C197.467 55.2037 196.546 56.6854 196.546 58.7474ZM174.546 51.7975C172.437 53.8819 171.474 56.6297 171.474 59.3842C171.474 62.1391 172.437 64.8865 174.546 66.9722C178.076 70.564 183.531 71.0423 187.657 68.4003C187.702 68.3671 187.756 68.3314 187.814 68.2932C187.934 68.2143 188.068 68.1259 188.161 68.0337C188.39 67.8062 188.521 67.3853 188.212 66.9456C187.934 66.5504 187.569 66.0572 187.181 65.5287C186.848 65.0754 186.536 64.6524 186.26 64.2655C186.036 63.9516 185.593 63.8678 185.273 64.0587C185.181 64.116 185.104 64.1625 185.014 64.2211C180.383 67.22 176.058 63.2604 176.058 59.3842C176.058 55.508 180.471 51.5708 185.01 54.554C185.099 54.613 185.181 54.6524 185.273 54.7101C185.593 54.9011 186.044 54.8097 186.263 54.5025C186.539 54.1156 186.847 53.6951 187.18 53.2422C187.529 52.766 187.857 52.3226 188.12 51.9515C188.56 51.3325 188.443 50.892 187.812 50.4748C187.755 50.437 187.702 50.4018 187.657 50.3694C183.531 47.727 178.076 48.2048 174.546 51.7975ZM154.787 61.1643H166.249C167.624 61.1643 168.724 60.0509 168.724 58.6785C168.724 55.6234 168.219 53.9944 166.478 51.915C164.69 49.8247 161.847 48.6914 159.647 48.6914C154.146 48.6914 149.928 53.4111 149.928 59.3855C149.928 66.7464 155.612 70.0791 160.151 70.0791C163.406 70.0791 165.927 69.2912 168.403 67.7224C168.678 67.516 168.815 67.0934 168.632 66.7605L168.56 66.6413C168.06 65.8094 167.369 64.6607 166.845 63.8694C166.661 63.5564 166.249 63.4642 165.928 63.6594C164.369 64.5905 162.719 65.4108 160.243 65.3926C157.951 65.3768 155.521 63.908 154.787 61.1643ZM163.727 57.0847C163.314 53.9977 161.205 53.434 159.647 53.434C157.538 53.434 155.751 55.0103 154.971 57.0847H163.727Z" fill="#3ADF68"/>
<path fill-rule="evenodd" clip-rule="evenodd" d="M44.6227 48.7815C42.4349 48.5502 40.2303 49.0044 38.3107 50.0809C36.3911 51.1573 34.8511 52.8038 33.9022 54.7932C32.9537 56.7834 32.6432 59.0189 33.0129 61.1926C33.3826 63.3671 34.4149 65.3723 35.968 66.934C37.5204 68.4966 39.518 69.5374 41.6848 69.9152C43.8517 70.2925 46.0822 69.9882 48.0692 69.0434C50.0565 68.0981 51.7033 66.5587 52.7824 64.6375C53.8624 62.7158 54.3216 60.5064 54.0982 58.3119C53.8521 55.8734 52.7755 53.5942 51.0494 51.8585C49.3237 50.1224 47.0537 49.0355 44.6227 48.7815ZM44.2777 65.0472C43.1008 65.2054 41.905 64.9899 40.8571 64.4311C39.8088 63.8723 38.9618 62.9989 38.4348 61.932C37.9077 60.8655 37.727 59.6603 37.918 58.4854C38.1094 57.3114 38.6627 56.2262 39.5007 55.3835C40.3387 54.5403 41.4195 53.9824 42.5898 53.7869C43.7605 53.5913 44.9633 53.7686 46.0288 54.2942C47.0936 54.8189 47.9677 55.6654 48.528 56.7149C49.0887 57.7639 49.3068 58.9624 49.1532 60.1431C48.9914 61.3844 48.4261 62.5372 47.5446 63.424C46.6631 64.3103 45.5149 64.8811 44.2777 65.0472ZM59.792 49.2037C59.4231 49.2045 59.0583 49.2879 58.7256 49.4478C58.3924 49.6076 58.0992 49.8401 57.8671 50.1282C57.6346 50.4159 57.469 50.7522 57.3832 51.1121C57.2969 51.472 57.2912 51.8469 57.3676 52.2089C57.6013 53.3829 58.6944 54.1841 59.8852 54.1841H66.7966L56.0411 68.4564C55.9615 68.5618 55.913 68.6876 55.9007 68.8192C55.8879 68.9504 55.9126 69.0828 55.9709 69.2015C56.0296 69.3199 56.1196 69.4199 56.2313 69.4897C56.3435 69.5594 56.4725 69.5968 56.6043 69.5972H73.4746C74.6646 69.5972 75.7589 68.7959 75.9927 67.6219C76.0691 67.2595 76.0637 66.885 75.9775 66.5251C75.8912 66.1648 75.7257 65.8289 75.4936 65.5408C75.2619 65.2531 74.9686 65.021 74.6355 64.8608C74.3027 64.7006 73.9384 64.6171 73.5691 64.6163H65.1485L75.8957 50.3553C75.9758 50.2486 76.0251 50.122 76.0375 49.9891C76.0502 49.8563 76.0255 49.7226 75.9664 49.6035C75.9072 49.4835 75.816 49.383 75.7031 49.3124C75.5905 49.2419 75.4599 49.2041 75.3268 49.2037H59.792ZM127.208 49.2614C126.648 49.3942 126.151 49.7147 125.798 50.1693C125.448 50.6239 125.261 51.1851 125.269 51.761V60.0534L111.868 49.3606C111.763 49.2767 111.637 49.2244 111.503 49.2099C111.37 49.1954 111.235 49.2182 111.114 49.2772C110.994 49.3357 110.892 49.427 110.821 49.5412C110.75 49.6558 110.712 49.7874 110.713 49.9219V67.0445C110.703 67.6203 110.89 68.182 111.243 68.6361C111.595 69.0907 112.092 69.4112 112.65 69.5445C113.013 69.6246 113.389 69.6217 113.749 69.5366C114.111 69.4515 114.448 69.2862 114.738 69.0525C115.029 68.8192 115.263 68.5236 115.422 68.1869C115.581 67.8511 115.664 67.4833 115.664 67.1113V58.7466L129.064 69.4398C129.171 69.5237 129.298 69.5756 129.43 69.5905C129.565 69.6055 129.7 69.5818 129.819 69.5233C129.938 69.4647 130.041 69.373 130.113 69.2592C130.185 69.1451 130.22 69.0135 130.22 68.8786V51.6937C130.22 51.3213 130.137 50.9535 129.978 50.6176C129.819 50.2818 129.585 49.9862 129.295 49.7529C129.005 49.5196 128.667 49.354 128.305 49.2688C127.943 49.1842 127.57 49.1813 127.208 49.2614ZM92.3146 53.708C97.9829 53.708 102.218 56.7115 102.218 59.3979C102.218 62.0847 97.9829 65.0883 92.3146 65.0883C86.6471 65.0883 82.4115 62.0847 82.4115 59.3979C82.4115 56.7115 86.6471 53.708 92.3146 53.708ZM92.3146 48.7271C84.1101 48.7271 77.4596 53.5046 77.4596 59.3979C77.4596 65.2909 84.1101 70.0688 92.3146 70.0688C100.519 70.0688 107.17 65.2909 107.17 59.3979C107.17 53.5046 100.519 48.7271 92.3146 48.7271Z" fill="white"/>
</svg>
