<svg width="25" height="25" viewBox="0 0 25 25" fill="none" xmlns="http://www.w3.org/2000/svg">
<path d="M20.6173 6.11451C20.6173 5.71057 20.4562 5.32332 20.1696 5.03859C19.8831 4.75385 19.4949 4.59516 19.0909 4.59769L13.0235 4.62929C12.1858 4.63452 11.5109 5.31787 11.5162 6.15559C11.5214 6.99331 12.2048 7.66817 13.0425 7.66294L15.4154 7.65443L10.9492 12.1206C10.3568 12.713 10.3568 13.6734 10.9492 14.2657C11.5416 14.8581 12.502 14.8581 13.0943 14.2657L17.5836 9.77652V12.1819C17.5836 13.0197 18.2627 13.6988 19.1004 13.6988C19.9382 13.6988 20.6173 13.0197 20.6173 12.1819V6.11451Z" fill="white"/>
<path d="M8.53981 7.92794C9.3177 7.61702 9.69626 6.73435 9.38534 5.95645C9.07441 5.17855 8.19174 4.8 7.41385 5.11092C7.01941 5.26858 6.51699 5.48323 6.06482 5.85033C5.57291 6.2497 5.21999 6.75935 4.97828 7.39741C4.54834 8.53236 4.4375 10.2022 4.4375 12.6875C4.4375 15.2635 4.79807 17.4684 6.27222 18.9426C7.74637 20.4168 9.95134 20.7773 12.5274 20.7773C15.0127 20.7773 16.6825 20.6665 17.8175 20.2366C18.4555 19.9949 18.9652 19.642 19.3645 19.15C19.7317 18.6979 19.9463 18.1954 20.1039 17.801C20.4148 17.0231 20.0362 16.1404 19.2583 15.8295C18.4803 15.5187 17.5977 15.8973 17.2868 16.6752C17.0377 17.2986 16.7055 17.4617 16.0667 17.5657C15.3939 17.6752 14.3126 17.7436 12.5274 17.7436C10.0473 17.7436 8.96571 17.3458 8.41739 16.7974C7.86906 16.2491 7.47121 15.1676 7.47121 12.6875C7.47121 10.9023 7.53966 9.82101 7.64916 9.14822C7.75314 8.50938 7.91635 8.17714 8.53981 7.92794Z" fill="white"/>
</svg>
