<svg width="20" height="20" viewBox="0 0 20 20" fill="none" xmlns="http://www.w3.org/2000/svg">
<path d="M2.07642 19.7436C1.48694 19.7436 0.897461 19.1535 0.897461 18.5634C0.897453 16.7932 1.22198 14.698 2.07641 13.8427C4.28146 11.6353 8.32191 7.59192 9.86929 6.04292C10.4587 5.45287 11.6653 5.42515 12.2548 6.01521L14.6126 8.37558C15.2021 8.96568 15.2021 10.1459 14.6126 10.736C13.0653 12.2849 8.9972 16.3561 6.79216 18.5634C5.93773 19.4187 3.84482 19.7436 2.07642 19.7436Z" fill="white"/>
<path d="M18.5933 2.04741C16.5039 -0.0426948 14.8235 1.089 13.8655 2.04731C12.3049 3.60841 12.3053 4.0195 13.8655 5.59441L15.0474 6.77674C16.5572 8.3378 17.0374 8.33322 18.5933 6.77684C19.5537 5.81614 20.6827 4.13752 18.5933 2.04741Z" fill="white"/>
</svg>
