<svg width="23" height="23" viewBox="0 0 23 23" fill="none" xmlns="http://www.w3.org/2000/svg">
<path d="M11.5227 7.01527C9.8833 7.01527 8.44155 7.8654 7.61564 9.15544C7.20158 9.80217 6.34164 9.9908 5.69491 9.57674C5.04817 9.16268 4.85955 8.30274 5.27361 7.65601C6.58911 5.60126 8.89584 4.23438 11.5227 4.23438C13.7005 4.23438 15.6575 5.1731 17.0132 6.66569L17.126 6.21455C17.3123 5.46955 18.0672 5.0166 18.8122 5.20285C19.5572 5.3891 20.0101 6.14402 19.8239 6.88901L18.8969 10.5969C18.7422 11.2159 18.186 11.6501 17.548 11.6501H13.8401C13.0722 11.6501 12.4497 11.0276 12.4497 10.2596C12.4497 9.49172 13.0722 8.8692 13.8401 8.8692H15.2312C14.3846 7.74208 13.0376 7.01527 11.5227 7.01527Z" fill="white"/>
<path d="M7.8142 14.431H9.2053C9.97322 14.431 10.5957 13.8085 10.5957 13.0406C10.5957 12.2726 9.97322 11.6501 9.2053 11.6501H5.49743C4.8594 11.6501 4.30324 12.0843 4.1485 12.7033L3.22153 16.4112C3.03528 17.1562 3.48824 17.9111 4.23323 18.0974C4.97823 18.2836 5.73315 17.8307 5.9194 17.0857L6.03218 16.6345C7.38792 18.1271 9.34492 19.0658 11.5227 19.0658C14.1496 19.0658 16.4563 17.6989 17.7718 15.6442C18.1859 14.9975 17.9973 14.1375 17.3505 13.7235C16.7038 13.3094 15.8438 13.498 15.4298 14.1448C14.6039 15.4348 13.1621 16.2849 11.5227 16.2849C10.0078 16.2849 8.66083 15.5582 7.8142 14.431Z" fill="white"/>
</svg>
