<svg width="48" height="67" viewBox="0 0 48 67" fill="none" xmlns="http://www.w3.org/2000/svg">
<path d="M38.3909 10.4168C37.8568 11.0961 37.3361 11.7807 36.7903 12.4503C35.7928 13.6808 35.867 15.2626 36.9762 16.153C38.0475 17.0079 39.2039 16.7327 40.2294 15.2586C41.5403 13.3716 42.7308 11.3959 44.0578 9.52041C44.7706 8.51619 45.7878 7.72442 46.4261 6.68592C46.914 5.90022 47.3775 4.79342 47.1891 3.99278C47.031 3.31302 45.9921 2.62659 45.2007 2.36413C43.1449 1.67507 41.009 1.20402 38.9005 0.676145C38.3362 0.533544 37.6909 0.307354 37.1785 0.455077C36.4233 0.668903 35.7558 1.18707 35.0481 1.57008C35.5817 2.3862 35.9299 3.57127 36.6861 3.94987C38.1852 4.70181 39.906 5.00546 41.6335 5.52987C41.2539 6.60714 40.9072 7.22989 39.7296 6.54124C38.6938 5.93916 37.6331 6.07518 36.5848 6.76133C31.1526 10.3097 25.4292 13.4794 20.3459 17.4705C16.7968 20.2591 13.983 24.062 11.0906 27.6161C9.5899 29.4601 8.34164 31.6365 7.48895 33.8584C5.90329 37.9957 5.89266 42.0163 10.0396 45.0233C8.01566 48.1533 6.06345 51.166 4.12292 54.1884C2.32677 56.9868 0.658845 59.8405 0.588445 63.3132C0.585575 63.4263 0.496901 63.5474 0.510999 63.6568C0.713319 64.9771 0.611851 66.7706 2.27 66.9304C4.06325 67.1014 4.19818 65.3676 4.31843 64.0021C4.65036 60.1641 6.91506 57.2113 8.81924 54.0968C10.0781 52.0388 11.5056 50.0779 12.7008 47.9847C13.3271 46.8843 14.0322 46.6665 15.1458 46.977C21.02 48.618 26.1919 46.7803 30.9737 43.4815C33.1313 41.9929 34.2818 39.6433 35.0931 37.2235C35.9158 34.7873 34.1934 32.6498 31.7377 32.085C24.9356 30.5177 20.3428 34.4304 15.734 38.3576C14.4494 39.45 13.3271 40.7356 12.1122 41.9538C10.3736 40.7967 9.76029 39.4042 10.215 37.4734C11.1916 33.3213 13.3932 29.8557 16.1351 26.6998C19.5553 22.7599 23.1915 19.0343 27.6772 16.2949C31.133 14.1814 34.6701 12.2035 38.1675 10.1685C38.2378 10.2531 38.3081 10.3377 38.3784 10.4223L38.3909 10.4168ZM16.2612 43.7257C18.9084 39.7278 26.9833 33.608 31.8966 36.3328C31.3264 41.2565 21.8522 45.5624 16.2612 43.7257Z" fill="#3ADF68"/>
</svg>
