<svg width="62" height="62" viewBox="0 0 62 62" fill="none" xmlns="http://www.w3.org/2000/svg">
<rect x="0.903809" y="0.496094" width="60.6741" height="60.6741" rx="30.0367" fill="#005BFF"/>
<path d="M29.4907 14.6133C26.8404 14.6133 25.8333 16.4155 25.8333 18.2177V29.932C25.8333 30.4296 25.4299 30.8331 24.9322 30.8331C24.4345 30.8331 24.0311 30.4296 24.0311 29.932V26.3276C24.0311 25.1267 23.13 24.7436 22.2289 25.1267C20.1601 26.0061 18.6245 27.0955 18.6245 30.2324C18.6245 33.5518 19.2804 36.7849 20.4267 39.8441C21.8186 43.5586 23.1395 45.2507 31.2399 45.2507C40.2509 45.2507 41.152 43.4485 42.9542 39.8441C43.8553 38.0419 45.6575 34.4375 45.6575 32.6353C45.6575 27.9676 44.3143 27.3297 40.4682 25.503C39.8593 25.2138 39.1876 24.8948 38.4487 24.5254C37.7001 24.1511 34.8443 22.7232 34.8443 24.5254C34.8443 25.023 34.4409 25.4265 33.9432 25.4265C33.4456 25.4265 33.0421 25.023 33.0421 24.5254L33.0421 18.2177C33.0421 16.4154 32.141 14.6133 29.4907 14.6133Z" fill="white"/>
</svg>
