<svg width="23" height="24" viewBox="0 0 23 24" fill="none" xmlns="http://www.w3.org/2000/svg">
<path d="M4.25432 11.1404C8.77851 9.23763 11.7953 7.98321 13.3048 7.37713C17.6147 5.64667 18.5102 5.34607 19.0939 5.33603C19.2223 5.33396 19.5094 5.36467 19.6953 5.51032C19.8523 5.6333 19.8955 5.79943 19.9162 5.91602C19.9369 6.03262 19.9626 6.29824 19.9421 6.50578C19.7086 8.87466 18.698 14.6233 18.1839 17.2765C17.9663 18.3991 17.538 18.7756 17.1233 18.8124C16.2221 18.8925 15.5377 18.2375 14.6648 17.6851C13.2989 16.8208 12.5273 16.2827 11.2014 15.4393C9.66918 14.4646 10.6625 13.9289 11.5357 13.0534C11.7642 12.8243 15.7351 9.3377 15.8119 9.02141C15.8215 8.98185 15.8305 8.8344 15.7397 8.75655C15.649 8.67869 15.515 8.70531 15.4184 8.72649C15.2814 8.7565 13.0994 10.1487 8.87227 12.9032C8.25291 13.3138 7.69191 13.5138 7.18927 13.5033C6.63515 13.4918 5.56925 13.2009 4.77686 12.9522C3.80497 12.6473 3.03252 12.486 3.09979 11.9681C3.13482 11.6983 3.51967 11.4224 4.25432 11.1404Z" fill="white"/>
</svg>
